<svg xmlns="http://www.w3.org/2000/svg" viewBox="0 0 32 32">
  <rect width="32" height="32" fill="#1a0a2e"/>
  <rect x="8" y="8" width="14" height="18" fill="#ff6b9d"/>
          <rect x="10" y="10" width="10" height="14" fill="#1a0a2e"/>
          <rect x="22" y="12" width="4" height="2" fill="#ff6b9d"/>
          <rect x="24" y="14" width="2" height="6" fill="#ff6b9d"/>
          <rect x="22" y="20" width="4" height="2" fill="#ff6b9d"/>
  <rect x="8" y="13" width="2" height="2" fill="#fff"/>
             <rect x="10" y="11" width="2" height="2" fill="#fff"/>
             <rect x="12" y="13" width="2" height="2" fill="#fff"/>
             <rect x="18" y="13" width="2" height="2" fill="#fff"/>
             <rect x="20" y="11" width="2" height="2" fill="#fff"/>
             <rect x="22" y="13" width="2" height="2" fill="#fff"/>
  <rect x="4" y="4" width="2" height="2" fill="#50fa7b"/>
          <rect x="8" y="4" width="2" height="2" fill="#50fa7b"/>
          <rect x="4" y="6" width="6" height="2" fill="#50fa7b"/>
          <rect x="6" y="8" width="2" height="2" fill="#50fa7b"/>
</svg>