<svg xmlns="http://www.w3.org/2000/svg" viewBox="0 0 32 32">
  <rect width="32" height="32" fill="#0c0c1d"/>
  <rect x="6" y="6" width="20" height="20" fill="#00d9ff"/>
          <rect x="8" y="4" width="16" height="2" fill="#00d9ff"/>
          <rect x="8" y="26" width="16" height="2" fill="#00d9ff"/>
          <rect x="4" y="8" width="2" height="16" fill="#00d9ff"/>
          <rect x="26" y="8" width="2" height="16" fill="#00d9ff"/>
  <rect x="7" y="10" width="8" height="6" fill="#fff"/>
             <rect x="17" y="10" width="8" height="6" fill="#fff"/>
             <rect x="8" y="11" width="3" height="4" fill="#0c0c1d"/>
             <rect x="21" y="11" width="3" height="4" fill="#0c0c1d"/>
  <rect x="12" y="20" width="8" height="2" fill="#0c0c1d"/>
             <rect x="10" y="18" width="2" height="2" fill="#0c0c1d"/>
             <rect x="20" y="18" width="2" height="2" fill="#0c0c1d"/>
  <rect x="4" y="0" width="6" height="8" fill="#00d9ff"/>
          <rect x="22" y="0" width="6" height="8" fill="#00d9ff"/>
          <rect x="6" y="2" width="2" height="4" fill="#ff00ff"/>
          <rect x="24" y="2" width="2" height="4" fill="#ff00ff"/>
  <rect x="4" y="12" width="2" height="8" fill="#ff00ff"/>
          <rect x="26" y="12" width="2" height="8" fill="#ff00ff"/>
          <rect x="6" y="14" width="2" height="4" fill="#ff00ff"/>
          <rect x="24" y="14" width="2" height="4" fill="#ff00ff"/>
  <rect x="2" y="2" width="4" height="2" fill="#ff00ff"/>
          <rect x="4" y="4" width="4" height="2" fill="#ff00ff"/>
</svg>