<svg xmlns="http://www.w3.org/2000/svg" viewBox="0 0 32 32">
  <rect width="32" height="32" fill="#03071e"/>
  <rect x="4" y="4" width="24" height="24" fill="#ffba08"/>
  <rect x="6" y="10" width="10" height="6" fill="#03071e"/>
             <rect x="8" y="12" width="2" height="2" fill="#f48c06"/>
             <rect x="18" y="10" width="6" height="6" fill="#fff"/>
             <rect x="20" y="12" width="2" height="2" fill="#03071e"/>
  <rect x="12" y="20" width="8" height="2" fill="#03071e"/>
             <rect x="10" y="18" width="2" height="2" fill="#03071e"/>
             <rect x="20" y="18" width="2" height="2" fill="#03071e"/>
  <rect x="14" y="-4" width="4" height="10" fill="#f48c06"/>
          <rect x="12" y="0" width="2" height="6" fill="#f48c06"/>
          <rect x="18" y="0" width="2" height="6" fill="#f48c06"/>
  <rect x="20" y="10" width="6" height="2" fill="#dc2f02"/>
          <rect x="22" y="8" width="2" height="6" fill="#dc2f02"/>
  <rect x="2" y="2" width="4" height="2" fill="#f48c06"/>
          <rect x="4" y="4" width="4" height="2" fill="#f48c06"/>
</svg>