<svg xmlns="http://www.w3.org/2000/svg" viewBox="0 0 32 32">
  <rect width="32" height="32" fill="#0c0c1d"/>
  <rect x="4" y="4" width="24" height="24" fill="#00d9ff"/>
  <rect x="7" y="10" width="8" height="6" fill="#0c0c1d"/>
             <rect x="17" y="10" width="8" height="6" fill="#0c0c1d"/>
             <rect x="9" y="12" width="4" height="2" fill="#00ff87"/>
             <rect x="19" y="12" width="4" height="2" fill="#00ff87"/>
  <rect x="12" y="20" width="8" height="2" fill="#0c0c1d"/>
             <rect x="14" y="22" width="4" height="4" fill="#ff00ff"/>
  <rect x="12" y="0" width="4" height="4" fill="#ff00ff"/>
          <rect x="14" y="2" width="6" height="2" fill="#ff00ff"/>
          <rect x="16" y="4" width="4" height="4" fill="#ff00ff"/>
  <rect x="4" y="12" width="2" height="8" fill="#ff00ff"/>
          <rect x="26" y="12" width="2" height="8" fill="#ff00ff"/>
          <rect x="6" y="14" width="2" height="4" fill="#ff00ff"/>
          <rect x="24" y="14" width="2" height="4" fill="#ff00ff"/>
  <rect x="26" y="2" width="2" height="6" fill="#ff00ff"/>
          <rect x="24" y="6" width="4" height="4" fill="#ff00ff"/>
</svg>