<svg xmlns="http://www.w3.org/2000/svg" viewBox="0 0 32 32">
  <rect width="32" height="32" fill="#2c003e"/>
  <rect x="4" y="4" width="24" height="16" fill="#ff79c6"/>
          <rect x="6" y="20" width="20" height="4" fill="#ff79c6"/>
          <rect x="8" y="24" width="16" height="4" fill="#ff79c6"/>
  <rect x="8" y="10" width="6" height="6" fill="#2c003e"/>
             <rect x="18" y="10" width="6" height="6" fill="#2c003e"/>
             <rect x="10" y="11" width="2" height="2" fill="#fff"/>
             <rect x="20" y="11" width="2" height="2" fill="#fff"/>
  
  <rect x="6" y="0" width="4" height="6" fill="#bd93f9"/>
          <rect x="22" y="0" width="4" height="6" fill="#bd93f9"/>
          <rect x="4" y="2" width="2" height="2" fill="#bd93f9"/>
          <rect x="26" y="2" width="2" height="2" fill="#bd93f9"/>
  <rect x="6" y="14" width="2" height="2" fill="#50fa7b" opacity="0.6"/>
          <rect x="8" y="16" width="2" height="2" fill="#50fa7b" opacity="0.6"/>
          <rect x="24" y="14" width="2" height="2" fill="#50fa7b" opacity="0.6"/>
          <rect x="22" y="16" width="2" height="2" fill="#50fa7b" opacity="0.6"/>
  <rect x="26" y="2" width="4" height="2" fill="#bd93f9"/>
          <rect x="28" y="4" width="2" height="2" fill="#bd93f9"/>
          <rect x="26" y="6" width="2" height="2" fill="#bd93f9"/>
          <rect x="26" y="10" width="2" height="2" fill="#bd93f9"/>
</svg>