<svg xmlns="http://www.w3.org/2000/svg" viewBox="0 0 32 32">
  <rect width="32" height="32" fill="#0f380f"/>
  <rect x="6" y="6" width="20" height="20" fill="#9bbc0f"/>
          <rect x="8" y="4" width="16" height="2" fill="#9bbc0f"/>
          <rect x="8" y="26" width="16" height="2" fill="#9bbc0f"/>
          <rect x="4" y="8" width="2" height="16" fill="#9bbc0f"/>
          <rect x="26" y="8" width="2" height="16" fill="#9bbc0f"/>
  <rect x="8" y="12" width="6" height="2" fill="#0f380f"/>
             <rect x="18" y="12" width="6" height="2" fill="#0f380f"/>
  <rect x="10" y="20" width="2" height="2" fill="#0f380f"/>
             <rect x="12" y="22" width="2" height="2" fill="#0f380f"/>
             <rect x="14" y="20" width="4" height="2" fill="#0f380f"/>
             <rect x="18" y="22" width="2" height="2" fill="#0f380f"/>
             <rect x="20" y="20" width="2" height="2" fill="#0f380f"/>
  <rect x="6" y="0" width="4" height="6" fill="#8bac0f"/>
          <rect x="22" y="0" width="4" height="6" fill="#8bac0f"/>
          <rect x="4" y="2" width="2" height="2" fill="#8bac0f"/>
          <rect x="26" y="2" width="2" height="2" fill="#8bac0f"/>
  <rect x="24" y="8" width="4" height="4" fill="#0f380f"/>
          <rect x="25" y="9" width="2" height="2" fill="#306230"/>
          <rect x="26" y="12" width="2" height="4" fill="#306230"/>
  <rect x="26" y="6" width="2" height="4" fill="#00d9ff"/>
          <rect x="26" y="10" width="2" height="2" fill="#00d9ff"/>
</svg>