<svg xmlns="http://www.w3.org/2000/svg" viewBox="0 0 32 32">
  <rect width="32" height="32" fill="#1a0a2e"/>
  <rect x="6" y="2" width="20" height="26" fill="#ffdbac"/>
          <rect x="4" y="6" width="2" height="18" fill="#ffdbac"/>
          <rect x="26" y="6" width="2" height="18" fill="#ffdbac"/>
  <rect x="7" y="8" width="8" height="6" fill="#1a0a2e"/>
             <rect x="17" y="8" width="8" height="6" fill="#1a0a2e"/>
             <rect x="9" y="10" width="4" height="2" fill="#50fa7b"/>
             <rect x="19" y="10" width="4" height="2" fill="#50fa7b"/>
  
  <rect x="10" y="0" width="2" height="6" fill="#50fa7b"/>
          <rect x="20" y="0" width="2" height="6" fill="#50fa7b"/>
          <rect x="8" y="0" width="2" height="2" fill="#ff6b9d"/>
          <rect x="22" y="0" width="2" height="2" fill="#ff6b9d"/>
  <rect x="20" y="10" width="6" height="2" fill="#50fa7b"/>
          <rect x="22" y="8" width="2" height="6" fill="#50fa7b"/>
  <rect x="2" y="2" width="4" height="2" fill="#ff6b9d"/>
          <rect x="4" y="4" width="4" height="2" fill="#ff6b9d"/>
</svg>