<svg xmlns="http://www.w3.org/2000/svg" viewBox="0 0 32 32">
  <rect width="32" height="32" fill="#0d2b45"/>
  <rect x="4" y="4" width="24" height="16" fill="#ffce96"/>
          <rect x="6" y="20" width="20" height="4" fill="#ffce96"/>
          <rect x="8" y="24" width="16" height="4" fill="#ffce96"/>
  <rect x="5" y="10" width="10" height="8" fill="#ff6b6b"/>
             <rect x="17" y="10" width="10" height="8" fill="#ff6b6b"/>
             <rect x="15" y="12" width="2" height="4" fill="#ff6b6b"/>
             <rect x="7" y="12" width="6" height="4" fill="#fff"/>
             <rect x="19" y="12" width="6" height="4" fill="#fff"/>
             <rect x="9" y="13" width="2" height="2" fill="#0d2b45"/>
             <rect x="21" y="13" width="2" height="2" fill="#0d2b45"/>
  <rect x="8" y="20" width="16" height="2" fill="#7ec8e3"/>
             <rect x="10" y="22" width="4" height="4" fill="#7ec8e3"/>
             <rect x="18" y="22" width="4" height="4" fill="#7ec8e3"/>
             <rect x="14" y="22" width="4" height="2" fill="#7ec8e3"/>
  <rect x="14" y="0" width="4" height="4" fill="#ff6b6b"/>
          <rect x="12" y="2" width="2" height="4" fill="#ff6b6b"/>
          <rect x="18" y="2" width="2" height="4" fill="#ff6b6b"/>
          <rect x="14" y="4" width="4" height="2" fill="#ff6b6b"/>
          <rect x="15" y="2" width="2" height="2" fill="#7ec8e3"/>
  <rect x="4" y="16" width="4" height="2" fill="#ff6b6b" opacity="0.5"/>
          <rect x="24" y="16" width="4" height="2" fill="#ff6b6b" opacity="0.5"/>
  
</svg>