<svg xmlns="http://www.w3.org/2000/svg" viewBox="0 0 32 32">
  <rect width="32" height="32" fill="#1a1c2c"/>
  <rect x="4" y="4" width="24" height="16" fill="#f4f4f4"/>
          <rect x="6" y="20" width="20" height="4" fill="#f4f4f4"/>
          <rect x="8" y="24" width="16" height="4" fill="#f4f4f4"/>
  <rect x="8" y="10" width="6" height="6" fill="#1a1c2c"/>
             <rect x="18" y="10" width="6" height="6" fill="#1a1c2c"/>
             <rect x="10" y="11" width="2" height="2" fill="#fff"/>
             <rect x="20" y="11" width="2" height="2" fill="#fff"/>
  <rect x="10" y="20" width="12" height="2" fill="#1a1c2c"/>
             <rect x="12" y="22" width="2" height="2" fill="#fff"/>
             <rect x="18" y="22" width="2" height="2" fill="#fff"/>
  <rect x="14" y="-4" width="4" height="10" fill="#94b0c2"/>
          <rect x="12" y="0" width="2" height="6" fill="#94b0c2"/>
          <rect x="18" y="0" width="2" height="6" fill="#94b0c2"/>
  <rect x="6" y="16" width="2" height="4" fill="#00d9ff"/>
          <rect x="6" y="20" width="2" height="2" fill="#00d9ff"/>
  <rect x="2" y="2" width="4" height="2" fill="#94b0c2"/>
          <rect x="4" y="4" width="4" height="2" fill="#94b0c2"/>
</svg>