<svg xmlns="http://www.w3.org/2000/svg" viewBox="0 0 32 32">
  <rect width="32" height="32" fill="#3f2832"/>
  <rect x="6" y="2" width="20" height="26" fill="#ff9f43"/>
          <rect x="4" y="6" width="2" height="18" fill="#ff9f43"/>
          <rect x="26" y="6" width="2" height="18" fill="#ff9f43"/>
  <rect x="10" y="8" width="2" height="2" fill="#feca57"/>
             <rect x="8" y="10" width="6" height="2" fill="#feca57"/>
             <rect x="10" y="12" width="2" height="2" fill="#feca57"/>
             <rect x="20" y="8" width="2" height="2" fill="#feca57"/>
             <rect x="18" y="10" width="6" height="2" fill="#feca57"/>
             <rect x="20" y="12" width="2" height="2" fill="#feca57"/>
  <rect x="10" y="18" width="12" height="2" fill="#3f2832"/>
             <rect x="12" y="20" width="2" height="2" fill="#fff"/>
             <rect x="18" y="20" width="2" height="2" fill="#fff"/>
  <rect x="4" y="0" width="6" height="8" fill="#ff9f43"/>
          <rect x="22" y="0" width="6" height="8" fill="#ff9f43"/>
          <rect x="6" y="2" width="2" height="4" fill="#feca57"/>
          <rect x="24" y="2" width="2" height="4" fill="#feca57"/>
  
  <rect x="26" y="2" width="4" height="2" fill="#feca57"/>
          <rect x="28" y="4" width="2" height="2" fill="#feca57"/>
          <rect x="26" y="6" width="2" height="2" fill="#feca57"/>
          <rect x="26" y="10" width="2" height="2" fill="#feca57"/>
</svg>