<svg xmlns="http://www.w3.org/2000/svg" viewBox="0 0 32 32">
  <rect width="32" height="32" fill="#1e1e2e"/>
  <rect x="6" y="6" width="20" height="6" fill="#f38ba8"/>
          <rect x="4" y="12" width="24" height="4" fill="#a6e3a1"/>
          <rect x="4" y="16" width="24" height="4" fill="#4ade80"/>
          <rect x="4" y="20" width="24" height="4" fill="#f38ba8"/>
          <rect x="6" y="24" width="20" height="4" fill="#f38ba8"/>
          <rect x="10" y="8" width="2" height="2" fill="#fff"/>
          <rect x="16" y="8" width="2" height="2" fill="#fff"/>
  <rect x="8" y="12" width="2" height="2" fill="#fff"/>
             <rect x="10" y="10" width="2" height="2" fill="#fff"/>
             <rect x="12" y="12" width="2" height="2" fill="#fff"/>
             <rect x="18" y="12" width="2" height="2" fill="#fff"/>
             <rect x="20" y="10" width="2" height="2" fill="#fff"/>
             <rect x="22" y="12" width="2" height="2" fill="#fff"/>
  <rect x="24" y="4" width="6" height="2" fill="#f38ba8"/>
          <rect x="26" y="6" width="2" height="2" fill="#f38ba8"/>
          <rect x="24" y="8" width="6" height="2" fill="#f38ba8"/>
</svg>