<svg xmlns="http://www.w3.org/2000/svg" viewBox="0 0 32 32">
  <rect width="32" height="32" fill="#0c0c1d"/>
  <rect x="2" y="8" width="28" height="18" fill="#00d9ff"/>
          <rect x="6" y="6" width="20" height="2" fill="#00d9ff"/>
          <rect x="6" y="26" width="20" height="2" fill="#00d9ff"/>
  <rect x="8" y="12" width="6" height="6" fill="#0c0c1d"/>
             <rect x="18" y="12" width="6" height="6" fill="#0c0c1d"/>
             <rect x="10" y="13" width="2" height="2" fill="#fff"/>
             <rect x="20" y="13" width="2" height="2" fill="#fff"/>
  <rect x="10" y="20" width="12" height="2" fill="#0c0c1d"/>
             <rect x="12" y="22" width="2" height="2" fill="#fff"/>
             <rect x="18" y="22" width="2" height="2" fill="#fff"/>
  <rect x="8" y="-6" width="4" height="12" fill="#00d9ff"/>
          <rect x="20" y="-6" width="4" height="12" fill="#00d9ff"/>
          <rect x="9" y="-4" width="2" height="8" fill="#ff00ff"/>
          <rect x="21" y="-4" width="2" height="8" fill="#ff00ff"/>
  <rect x="4" y="4" width="2" height="2" fill="#fff"/>
          <rect x="2" y="6" width="2" height="2" fill="#fff" opacity="0.6"/>
          <rect x="6" y="6" width="2" height="2" fill="#fff" opacity="0.6"/>
  <rect x="26" y="6" width="2" height="4" fill="#00d9ff"/>
          <rect x="26" y="10" width="2" height="2" fill="#00d9ff"/>
</svg>