<svg xmlns="http://www.w3.org/2000/svg" viewBox="0 0 32 32">
  <rect width="32" height="32" fill="#0b090a"/>
  <rect x="6" y="2" width="20" height="26" fill="#b5838d"/>
          <rect x="4" y="6" width="2" height="18" fill="#b5838d"/>
          <rect x="26" y="6" width="2" height="18" fill="#b5838d"/>
  <rect x="10" y="8" width="2" height="2" fill="#e5989b"/>
             <rect x="8" y="10" width="6" height="2" fill="#e5989b"/>
             <rect x="10" y="12" width="2" height="2" fill="#e5989b"/>
             <rect x="20" y="8" width="2" height="2" fill="#e5989b"/>
             <rect x="18" y="10" width="6" height="2" fill="#e5989b"/>
             <rect x="20" y="12" width="2" height="2" fill="#e5989b"/>
  <rect x="10" y="18" width="12" height="2" fill="#0b090a"/>
             <rect x="12" y="20" width="2" height="2" fill="#fff"/>
             <rect x="18" y="20" width="2" height="2" fill="#fff"/>
  <rect x="8" y="-6" width="4" height="12" fill="#b5838d"/>
          <rect x="20" y="-6" width="4" height="12" fill="#b5838d"/>
          <rect x="9" y="-4" width="2" height="8" fill="#e5989b"/>
          <rect x="21" y="-4" width="2" height="8" fill="#e5989b"/>
  <rect x="20" y="10" width="6" height="2" fill="#ffb4a2"/>
          <rect x="22" y="8" width="2" height="6" fill="#ffb4a2"/>
  
</svg>