<svg xmlns="http://www.w3.org/2000/svg" viewBox="0 0 32 32">
  <rect width="32" height="32" fill="#1e1e2e"/>
  <rect x="6" y="2" width="20" height="26" fill="#fab387"/>
          <rect x="4" y="6" width="2" height="18" fill="#fab387"/>
          <rect x="26" y="6" width="2" height="18" fill="#fab387"/>
  <rect x="6" y="8" width="10" height="6" fill="#1e1e2e"/>
             <rect x="8" y="10" width="2" height="2" fill="#f38ba8"/>
             <rect x="18" y="8" width="6" height="6" fill="#fff"/>
             <rect x="20" y="10" width="2" height="2" fill="#1e1e2e"/>
  <rect x="8" y="18" width="16" height="2" fill="#a6e3a1"/>
             <rect x="10" y="20" width="4" height="4" fill="#a6e3a1"/>
             <rect x="18" y="20" width="4" height="4" fill="#a6e3a1"/>
             <rect x="14" y="20" width="4" height="2" fill="#a6e3a1"/>
  <rect x="14" y="-4" width="4" height="10" fill="#f38ba8"/>
          <rect x="12" y="0" width="2" height="6" fill="#f38ba8"/>
          <rect x="18" y="0" width="2" height="6" fill="#f38ba8"/>
  <rect x="6" y="16" width="2" height="4" fill="#00d9ff"/>
          <rect x="6" y="20" width="2" height="2" fill="#00d9ff"/>
  <rect x="26" y="2" width="2" height="6" fill="#f38ba8"/>
          <rect x="24" y="6" width="4" height="4" fill="#f38ba8"/>
</svg>