<svg xmlns="http://www.w3.org/2000/svg" viewBox="0 0 32 32">
  <rect width="32" height="32" fill="#2d1b4e"/>
  <rect x="2" y="8" width="28" height="18" fill="#ff6348"/>
          <rect x="6" y="6" width="20" height="2" fill="#ff6348"/>
          <rect x="6" y="26" width="20" height="2" fill="#ff6348"/>
  <rect x="10" y="12" width="2" height="2" fill="#ffc048"/>
             <rect x="8" y="14" width="6" height="2" fill="#ffc048"/>
             <rect x="10" y="16" width="2" height="2" fill="#ffc048"/>
             <rect x="20" y="12" width="2" height="2" fill="#ffc048"/>
             <rect x="18" y="14" width="6" height="2" fill="#ffc048"/>
             <rect x="20" y="16" width="2" height="2" fill="#ffc048"/>
  <rect x="13" y="19" width="6" height="4" fill="#2d1b4e"/>
             <rect x="14" y="20" width="4" height="2" fill="#ffc048"/>
  <rect x="6" y="0" width="4" height="6" fill="#ffc048"/>
          <rect x="22" y="0" width="4" height="6" fill="#ffc048"/>
          <rect x="4" y="2" width="2" height="2" fill="#ffc048"/>
          <rect x="26" y="2" width="2" height="2" fill="#ffc048"/>
  <rect x="4" y="16" width="4" height="2" fill="#ffc048" opacity="0.5"/>
          <rect x="24" y="16" width="4" height="2" fill="#ffc048" opacity="0.5"/>
  <rect x="26" y="2" width="4" height="2" fill="#ffc048"/>
          <rect x="28" y="4" width="2" height="2" fill="#ffc048"/>
          <rect x="26" y="6" width="2" height="2" fill="#ffc048"/>
          <rect x="26" y="10" width="2" height="2" fill="#ffc048"/>
</svg>