<svg xmlns="http://www.w3.org/2000/svg" viewBox="0 0 32 32">
  <rect width="32" height="32" fill="#10002b"/>
  <rect x="14" y="4" width="4" height="4" fill="#c77dff"/>
          <rect x="12" y="8" width="8" height="4" fill="#c77dff"/>
          <rect x="10" y="12" width="12" height="6" fill="#c77dff"/>
          <rect x="8" y="16" width="16" height="6" fill="#ff9e00"/>
          <rect x="10" y="22" width="12" height="4" fill="#ff9e00"/>
          <rect x="12" y="26" width="8" height="2" fill="#ff9e00"/>
  <rect x="8" y="13" width="2" height="2" fill="#fff"/>
             <rect x="10" y="11" width="2" height="2" fill="#fff"/>
             <rect x="12" y="13" width="2" height="2" fill="#fff"/>
             <rect x="18" y="13" width="2" height="2" fill="#fff"/>
             <rect x="20" y="11" width="2" height="2" fill="#fff"/>
             <rect x="22" y="13" width="2" height="2" fill="#fff"/>
  <rect x="26" y="4" width="2" height="2" fill="#c77dff"/>
          <rect x="24" y="6" width="2" height="2" fill="#c77dff" opacity="0.5"/>
          <rect x="28" y="6" width="2" height="2" fill="#c77dff" opacity="0.5"/>
</svg>