<svg xmlns="http://www.w3.org/2000/svg" viewBox="0 0 32 32">
  <rect width="32" height="32" fill="#0b090a"/>
  <rect x="14" y="4" width="4" height="6" fill="#e5989b"/>
          <rect x="4" y="12" width="24" height="4" fill="#e5989b"/>
          <rect x="10" y="10" width="12" height="8" fill="#e5989b"/>
          <rect x="12" y="18" width="8" height="4" fill="#e5989b"/>
          <rect x="8" y="20" width="4" height="4" fill="#e5989b"/>
          <rect x="20" y="20" width="4" height="4" fill="#e5989b"/>
          <rect x="6" y="22" width="4" height="4" fill="#e5989b"/>
          <rect x="22" y="22" width="4" height="4" fill="#e5989b"/>
  <rect x="8" y="15" width="4" height="4" fill="#fff"/>
             <rect x="20" y="15" width="4" height="4" fill="#fff"/>
             <rect x="9" y="16" width="2" height="2" fill="#0b090a"/>
             <rect x="21" y="16" width="2" height="2" fill="#0b090a"/>
  <rect x="4" y="4" width="2" height="2" fill="#e5989b"/>
          <rect x="8" y="4" width="2" height="2" fill="#e5989b"/>
          <rect x="4" y="6" width="6" height="2" fill="#e5989b"/>
          <rect x="6" y="8" width="2" height="2" fill="#e5989b"/>
</svg>