<svg xmlns="http://www.w3.org/2000/svg" viewBox="0 0 32 32">
  <rect width="32" height="32" fill="#3f2832"/>
  <rect x="4" y="4" width="24" height="24" fill="#ff9f43"/>
  <rect x="8" y="10" width="6" height="6" fill="#3f2832"/>
             <rect x="18" y="10" width="6" height="6" fill="#3f2832"/>
             <rect x="10" y="11" width="2" height="2" fill="#fff"/>
             <rect x="20" y="11" width="2" height="2" fill="#fff"/>
  <rect x="10" y="20" width="2" height="2" fill="#3f2832"/>
             <rect x="12" y="22" width="2" height="2" fill="#3f2832"/>
             <rect x="14" y="20" width="4" height="2" fill="#3f2832"/>
             <rect x="18" y="22" width="2" height="2" fill="#3f2832"/>
             <rect x="20" y="20" width="2" height="2" fill="#3f2832"/>
  <rect x="8" y="0" width="16" height="2" fill="#feca57"/>
          <rect x="6" y="2" width="2" height="2" fill="#feca57"/>
          <rect x="24" y="2" width="2" height="2" fill="#feca57"/>
  <rect x="6" y="16" width="2" height="4" fill="#00d9ff"/>
          <rect x="6" y="20" width="2" height="2" fill="#00d9ff"/>
  
</svg>