<svg xmlns="http://www.w3.org/2000/svg" viewBox="0 0 32 32">
  <rect width="32" height="32" fill="#0f0f23"/>
  <rect x="10" y="10" width="12" height="12" fill="#00d9ff"/>
          <rect x="14" y="4" width="4" height="6" fill="#00d9ff"/>
          <rect x="14" y="22" width="4" height="6" fill="#00d9ff"/>
          <rect x="4" y="14" width="6" height="4" fill="#00d9ff"/>
          <rect x="22" y="14" width="6" height="4" fill="#00d9ff"/>
          <rect x="14" y="14" width="4" height="4" fill="#0f0f23"/>
  <rect x="10" y="14" width="2" height="2" fill="#ff00ff"/>
             <rect x="8" y="16" width="6" height="2" fill="#ff00ff"/>
             <rect x="10" y="18" width="2" height="2" fill="#ff00ff"/>
             <rect x="20" y="14" width="2" height="2" fill="#ff00ff"/>
             <rect x="18" y="16" width="6" height="2" fill="#ff00ff"/>
             <rect x="20" y="18" width="2" height="2" fill="#ff00ff"/>
  <rect x="4" y="4" width="2" height="2" fill="#ff00ff"/>
          <rect x="8" y="4" width="2" height="2" fill="#ff00ff"/>
          <rect x="4" y="6" width="6" height="2" fill="#ff00ff"/>
          <rect x="6" y="8" width="2" height="2" fill="#ff00ff"/>
</svg>