<svg xmlns="http://www.w3.org/2000/svg" viewBox="0 0 32 32">
  <rect width="32" height="32" fill="#1a0a2e"/>
  <rect x="6" y="2" width="20" height="26" fill="#ffdbac"/>
          <rect x="4" y="6" width="2" height="18" fill="#ffdbac"/>
          <rect x="26" y="6" width="2" height="18" fill="#ffdbac"/>
  <rect x="8" y="9" width="2" height="2" fill="#ff6b9d"/>
             <rect x="12" y="9" width="2" height="2" fill="#ff6b9d"/>
             <rect x="8" y="11" width="6" height="2" fill="#ff6b9d"/>
             <rect x="10" y="13" width="2" height="2" fill="#ff6b9d"/>
             <rect x="18" y="9" width="2" height="2" fill="#ff6b9d"/>
             <rect x="22" y="9" width="2" height="2" fill="#ff6b9d"/>
             <rect x="18" y="11" width="6" height="2" fill="#ff6b9d"/>
             <rect x="20" y="13" width="2" height="2" fill="#ff6b9d"/>
  <rect x="10" y="18" width="12" height="2" fill="#1a0a2e"/>
             <rect x="12" y="20" width="2" height="2" fill="#fff"/>
             <rect x="18" y="20" width="2" height="2" fill="#fff"/>
  <rect x="6" y="2" width="8" height="4" fill="#ff6b9d"/>
          <rect x="18" y="2" width="8" height="4" fill="#ff6b9d"/>
          <rect x="14" y="3" width="4" height="2" fill="#ff6b9d"/>
  <rect x="4" y="4" width="2" height="2" fill="#fff"/>
          <rect x="2" y="6" width="2" height="2" fill="#fff" opacity="0.6"/>
          <rect x="6" y="6" width="2" height="2" fill="#fff" opacity="0.6"/>
  <rect x="26" y="6" width="2" height="4" fill="#00d9ff"/>
          <rect x="26" y="10" width="2" height="2" fill="#00d9ff"/>
</svg>