<svg xmlns="http://www.w3.org/2000/svg" viewBox="0 0 32 32">
  <rect width="32" height="32" fill="#0c0c1d"/>
  <rect x="4" y="4" width="24" height="16" fill="#00d9ff"/>
          <rect x="6" y="20" width="20" height="4" fill="#00d9ff"/>
          <rect x="8" y="24" width="16" height="4" fill="#00d9ff"/>
  <rect x="12" y="10" width="8" height="8" fill="#fff"/>
             <rect x="14" y="12" width="4" height="4" fill="#0c0c1d"/>
             <rect x="15" y="13" width="2" height="2" fill="#ff00ff"/>
  <rect x="10" y="20" width="12" height="4" fill="#0c0c1d"/>
             <rect x="12" y="21" width="2" height="2" fill="#00ff87"/>
             <rect x="16" y="21" width="2" height="2" fill="#00ff87"/>
             <rect x="20" y="21" width="2" height="2" fill="#00ff87"/>
  <rect x="10" y="0" width="2" height="6" fill="#00ff87"/>
          <rect x="20" y="0" width="2" height="6" fill="#00ff87"/>
          <rect x="8" y="0" width="2" height="2" fill="#ff00ff"/>
          <rect x="22" y="0" width="2" height="2" fill="#ff00ff"/>
  <rect x="6" y="14" width="2" height="2" fill="#00ff87" opacity="0.6"/>
          <rect x="8" y="16" width="2" height="2" fill="#00ff87" opacity="0.6"/>
          <rect x="24" y="14" width="2" height="2" fill="#00ff87" opacity="0.6"/>
          <rect x="22" y="16" width="2" height="2" fill="#00ff87" opacity="0.6"/>
  
</svg>