<svg xmlns="http://www.w3.org/2000/svg" viewBox="0 0 32 32">
  <rect width="32" height="32" fill="#1b263b"/>
  <rect x="12" y="4" width="8" height="4" fill="#3ae374"/>
          <rect x="8" y="8" width="16" height="4" fill="#3ae374"/>
          <rect x="6" y="12" width="20" height="4" fill="#e0aaff"/>
          <rect x="10" y="16" width="12" height="4" fill="#e0aaff"/>
          <rect x="12" y="20" width="8" height="4" fill="#e0aaff"/>
          <rect x="14" y="24" width="4" height="4" fill="#e0aaff"/>
  <rect x="8" y="13" width="2" height="2" fill="#fff"/>
             <rect x="10" y="11" width="2" height="2" fill="#fff"/>
             <rect x="12" y="13" width="2" height="2" fill="#fff"/>
             <rect x="18" y="13" width="2" height="2" fill="#fff"/>
             <rect x="20" y="11" width="2" height="2" fill="#fff"/>
             <rect x="22" y="13" width="2" height="2" fill="#fff"/>
  <rect x="26" y="4" width="2" height="2" fill="#3ae374"/>
          <rect x="24" y="6" width="2" height="2" fill="#3ae374" opacity="0.5"/>
          <rect x="28" y="6" width="2" height="2" fill="#3ae374" opacity="0.5"/>
</svg>