<svg xmlns="http://www.w3.org/2000/svg" viewBox="0 0 32 32">
  <rect width="32" height="32" fill="#2c003e"/>
  <rect x="6" y="6" width="20" height="6" fill="#50fa7b"/>
          <rect x="4" y="12" width="24" height="4" fill="#ff79c6"/>
          <rect x="4" y="16" width="24" height="4" fill="#4ade80"/>
          <rect x="4" y="20" width="24" height="4" fill="#50fa7b"/>
          <rect x="6" y="24" width="20" height="4" fill="#50fa7b"/>
          <rect x="10" y="8" width="2" height="2" fill="#fff"/>
          <rect x="16" y="8" width="2" height="2" fill="#fff"/>
  <rect x="10" y="13" width="2" height="2" fill="#50fa7b"/>
             <rect x="8" y="15" width="6" height="2" fill="#50fa7b"/>
             <rect x="10" y="17" width="2" height="2" fill="#50fa7b"/>
             <rect x="20" y="13" width="2" height="2" fill="#50fa7b"/>
             <rect x="18" y="15" width="6" height="2" fill="#50fa7b"/>
             <rect x="20" y="17" width="2" height="2" fill="#50fa7b"/>
  <rect x="24" y="4" width="6" height="2" fill="#50fa7b"/>
          <rect x="26" y="6" width="2" height="2" fill="#50fa7b"/>
          <rect x="24" y="8" width="6" height="2" fill="#50fa7b"/>
</svg>