<svg xmlns="http://www.w3.org/2000/svg" viewBox="0 0 32 32">
  <rect width="32" height="32" fill="#10002b"/>
  <rect x="4" y="4" width="24" height="16" fill="#e0aaff"/>
          <rect x="6" y="20" width="20" height="4" fill="#e0aaff"/>
          <rect x="8" y="24" width="16" height="4" fill="#e0aaff"/>
  <rect x="10" y="12" width="2" height="2" fill="#10002b"/>
             <rect x="20" y="12" width="2" height="2" fill="#10002b"/>
  
  <rect x="10" y="0" width="2" height="6" fill="#ffea00"/>
          <rect x="20" y="0" width="2" height="6" fill="#ffea00"/>
          <rect x="8" y="0" width="2" height="2" fill="#ff9e00"/>
          <rect x="22" y="0" width="2" height="2" fill="#ff9e00"/>
  <rect x="4" y="16" width="4" height="2" fill="#ff9e00" opacity="0.5"/>
          <rect x="24" y="16" width="4" height="2" fill="#ff9e00" opacity="0.5"/>
  <rect x="26" y="2" width="4" height="2" fill="#ff9e00"/>
          <rect x="28" y="4" width="2" height="2" fill="#ff9e00"/>
          <rect x="26" y="6" width="2" height="2" fill="#ff9e00"/>
          <rect x="26" y="10" width="2" height="2" fill="#ff9e00"/>
</svg>