<svg xmlns="http://www.w3.org/2000/svg" viewBox="0 0 32 32">
  <rect width="32" height="32" fill="#3f2832"/>
  <rect x="8" y="4" width="16" height="4" fill="#ff9f43"/>
          <rect x="6" y="8" width="20" height="4" fill="#ff9f43"/>
          <rect x="4" y="12" width="24" height="16" fill="#ff9f43"/>
  <rect x="8" y="11" width="2" height="2" fill="#feca57"/>
             <rect x="12" y="11" width="2" height="2" fill="#feca57"/>
             <rect x="8" y="13" width="6" height="2" fill="#feca57"/>
             <rect x="10" y="15" width="2" height="2" fill="#feca57"/>
             <rect x="18" y="11" width="2" height="2" fill="#feca57"/>
             <rect x="22" y="11" width="2" height="2" fill="#feca57"/>
             <rect x="18" y="13" width="6" height="2" fill="#feca57"/>
             <rect x="20" y="15" width="2" height="2" fill="#feca57"/>
  <rect x="13" y="19" width="6" height="4" fill="#3f2832"/>
             <rect x="14" y="20" width="4" height="2" fill="#feca57"/>
  <rect x="10" y="0" width="2" height="6" fill="#ff6b6b"/>
          <rect x="20" y="0" width="2" height="6" fill="#ff6b6b"/>
          <rect x="8" y="0" width="2" height="2" fill="#feca57"/>
          <rect x="22" y="0" width="2" height="2" fill="#feca57"/>
  <rect x="4" y="4" width="2" height="2" fill="#fff"/>
          <rect x="2" y="6" width="2" height="2" fill="#fff" opacity="0.6"/>
          <rect x="6" y="6" width="2" height="2" fill="#fff" opacity="0.6"/>
  <rect x="26" y="6" width="2" height="4" fill="#00d9ff"/>
          <rect x="26" y="10" width="2" height="2" fill="#00d9ff"/>
</svg>