<svg xmlns="http://www.w3.org/2000/svg" viewBox="0 0 32 32">
  <rect width="32" height="32" fill="#0c0c1d"/>
  <rect x="8" y="4" width="16" height="4" fill="#00d9ff"/>
          <rect x="6" y="8" width="20" height="4" fill="#00d9ff"/>
          <rect x="4" y="12" width="24" height="16" fill="#00d9ff"/>
  <rect x="10" y="10" width="2" height="2" fill="#ff00ff"/>
             <rect x="8" y="12" width="6" height="2" fill="#ff00ff"/>
             <rect x="10" y="14" width="2" height="2" fill="#ff00ff"/>
             <rect x="20" y="10" width="2" height="2" fill="#ff00ff"/>
             <rect x="18" y="12" width="6" height="2" fill="#ff00ff"/>
             <rect x="20" y="14" width="2" height="2" fill="#ff00ff"/>
  
  <rect x="6" y="2" width="8" height="4" fill="#ff00ff"/>
          <rect x="18" y="2" width="8" height="4" fill="#ff00ff"/>
          <rect x="14" y="3" width="4" height="2" fill="#ff00ff"/>
  <rect x="4" y="12" width="2" height="8" fill="#ff00ff"/>
          <rect x="26" y="12" width="2" height="8" fill="#ff00ff"/>
          <rect x="6" y="14" width="2" height="4" fill="#ff00ff"/>
          <rect x="24" y="14" width="2" height="4" fill="#ff00ff"/>
  <rect x="2" y="2" width="4" height="2" fill="#ff00ff"/>
          <rect x="4" y="4" width="4" height="2" fill="#ff00ff"/>
</svg>