<svg xmlns="http://www.w3.org/2000/svg" viewBox="0 0 32 32">
  <rect width="32" height="32" fill="#2d1b4e"/>
  <rect x="4" y="4" width="24" height="24" fill="#ff6348"/>
  <rect x="5" y="10" width="10" height="8" fill="#ffc048"/>
             <rect x="17" y="10" width="10" height="8" fill="#ffc048"/>
             <rect x="15" y="12" width="2" height="4" fill="#ffc048"/>
             <rect x="7" y="12" width="6" height="4" fill="#fff"/>
             <rect x="19" y="12" width="6" height="4" fill="#fff"/>
             <rect x="9" y="13" width="2" height="2" fill="#2d1b4e"/>
             <rect x="21" y="13" width="2" height="2" fill="#2d1b4e"/>
  <rect x="13" y="19" width="6" height="4" fill="#2d1b4e"/>
             <rect x="14" y="20" width="4" height="2" fill="#ffc048"/>
  <rect x="4" y="0" width="24" height="8" fill="#ffc048"/>
          <rect x="6" y="-2" width="20" height="2" fill="#ffc048"/>
          <rect x="10" y="2" width="4" height="4" fill="#fff"/>
          <rect x="18" y="2" width="4" height="4" fill="#fff"/>
  
  <rect x="2" y="2" width="4" height="2" fill="#ffc048"/>
          <rect x="4" y="4" width="4" height="2" fill="#ffc048"/>
</svg>