<svg xmlns="http://www.w3.org/2000/svg" viewBox="0 0 32 32">
  <rect width="32" height="32" fill="#1b263b"/>
  <rect x="2" y="8" width="28" height="18" fill="#e0aaff"/>
          <rect x="6" y="6" width="20" height="2" fill="#e0aaff"/>
          <rect x="6" y="26" width="20" height="2" fill="#e0aaff"/>
  <rect x="8" y="12" width="2" height="2" fill="#1b263b"/>
             <rect x="10" y="14" width="2" height="2" fill="#1b263b"/>
             <rect x="12" y="12" width="2" height="2" fill="#1b263b"/>
             <rect x="8" y="16" width="2" height="2" fill="#1b263b"/>
             <rect x="12" y="16" width="2" height="2" fill="#1b263b"/>
             <rect x="18" y="12" width="2" height="2" fill="#1b263b"/>
             <rect x="20" y="14" width="2" height="2" fill="#1b263b"/>
             <rect x="22" y="12" width="2" height="2" fill="#1b263b"/>
             <rect x="18" y="16" width="2" height="2" fill="#1b263b"/>
             <rect x="22" y="16" width="2" height="2" fill="#1b263b"/>
  <rect x="12" y="20" width="8" height="2" fill="#1b263b"/>
             <rect x="14" y="22" width="4" height="4" fill="#c77dff"/>
  <rect x="8" y="-6" width="4" height="12" fill="#e0aaff"/>
          <rect x="20" y="-6" width="4" height="12" fill="#e0aaff"/>
          <rect x="9" y="-4" width="2" height="8" fill="#c77dff"/>
          <rect x="21" y="-4" width="2" height="8" fill="#c77dff"/>
  <rect x="4" y="16" width="4" height="2" fill="#c77dff" opacity="0.5"/>
          <rect x="24" y="16" width="4" height="2" fill="#c77dff" opacity="0.5"/>
  <rect x="26" y="2" width="4" height="2" fill="#c77dff"/>
          <rect x="28" y="4" width="2" height="2" fill="#c77dff"/>
          <rect x="26" y="6" width="2" height="2" fill="#c77dff"/>
          <rect x="26" y="10" width="2" height="2" fill="#c77dff"/>
</svg>