<svg xmlns="http://www.w3.org/2000/svg" viewBox="0 0 32 32">
  <rect width="32" height="32" fill="#10002b"/>
  <rect x="6" y="2" width="20" height="26" fill="#e0aaff"/>
          <rect x="4" y="6" width="2" height="18" fill="#e0aaff"/>
          <rect x="26" y="6" width="2" height="18" fill="#e0aaff"/>
  <rect x="8" y="8" width="6" height="6" fill="#10002b"/>
             <rect x="18" y="8" width="6" height="6" fill="#10002b"/>
             <rect x="10" y="9" width="2" height="2" fill="#fff"/>
             <rect x="20" y="9" width="2" height="2" fill="#fff"/>
  
  <rect x="14" y="0" width="4" height="4" fill="#ff9e00"/>
          <rect x="12" y="4" width="8" height="2" fill="#ff9e00"/>
          <rect x="10" y="6" width="12" height="2" fill="#ff9e00"/>
  <rect x="4" y="4" width="2" height="2" fill="#fff"/>
          <rect x="2" y="6" width="2" height="2" fill="#fff" opacity="0.6"/>
          <rect x="6" y="6" width="2" height="2" fill="#fff" opacity="0.6"/>
  <rect x="26" y="6" width="2" height="4" fill="#00d9ff"/>
          <rect x="26" y="10" width="2" height="2" fill="#00d9ff"/>
</svg>