<svg xmlns="http://www.w3.org/2000/svg" viewBox="0 0 32 32">
  <rect width="32" height="32" fill="#0b090a"/>
  <rect x="8" y="4" width="16" height="4" fill="#b5838d"/>
          <rect x="6" y="8" width="20" height="4" fill="#b5838d"/>
          <rect x="4" y="12" width="24" height="16" fill="#b5838d"/>
  <rect x="8" y="11" width="2" height="2" fill="#e5989b"/>
             <rect x="12" y="11" width="2" height="2" fill="#e5989b"/>
             <rect x="8" y="13" width="6" height="2" fill="#e5989b"/>
             <rect x="10" y="15" width="2" height="2" fill="#e5989b"/>
             <rect x="18" y="11" width="2" height="2" fill="#e5989b"/>
             <rect x="22" y="11" width="2" height="2" fill="#e5989b"/>
             <rect x="18" y="13" width="6" height="2" fill="#e5989b"/>
             <rect x="20" y="15" width="2" height="2" fill="#e5989b"/>
  <rect x="12" y="20" width="8" height="2" fill="#0b090a"/>
             <rect x="10" y="18" width="2" height="2" fill="#0b090a"/>
             <rect x="20" y="18" width="2" height="2" fill="#0b090a"/>
  <rect x="12" y="0" width="8" height="6" fill="#ffb4a2"/>
          <rect x="10" y="2" width="2" height="4" fill="#ffb4a2"/>
          <rect x="20" y="2" width="2" height="4" fill="#ffb4a2"/>
  <rect x="4" y="12" width="2" height="8" fill="#e5989b"/>
          <rect x="26" y="12" width="2" height="8" fill="#e5989b"/>
          <rect x="6" y="14" width="2" height="4" fill="#e5989b"/>
          <rect x="24" y="14" width="2" height="4" fill="#e5989b"/>
  <rect x="26" y="6" width="2" height="4" fill="#00d9ff"/>
          <rect x="26" y="10" width="2" height="2" fill="#00d9ff"/>
</svg>