<svg xmlns="http://www.w3.org/2000/svg" viewBox="0 0 32 32">
  <rect width="32" height="32" fill="#1a1c2c"/>
  <rect x="4" y="4" width="24" height="24" fill="#f4f4f4"/>
  <rect x="8" y="11" width="2" height="2" fill="#94b0c2"/>
             <rect x="12" y="11" width="2" height="2" fill="#94b0c2"/>
             <rect x="8" y="13" width="6" height="2" fill="#94b0c2"/>
             <rect x="10" y="15" width="2" height="2" fill="#94b0c2"/>
             <rect x="18" y="11" width="2" height="2" fill="#94b0c2"/>
             <rect x="22" y="11" width="2" height="2" fill="#94b0c2"/>
             <rect x="18" y="13" width="6" height="2" fill="#94b0c2"/>
             <rect x="20" y="15" width="2" height="2" fill="#94b0c2"/>
  <rect x="8" y="20" width="16" height="2" fill="#566c86"/>
             <rect x="10" y="22" width="4" height="4" fill="#566c86"/>
             <rect x="18" y="22" width="4" height="4" fill="#566c86"/>
             <rect x="14" y="22" width="4" height="2" fill="#566c86"/>
  <rect x="12" y="0" width="4" height="4" fill="#94b0c2"/>
          <rect x="14" y="2" width="6" height="2" fill="#94b0c2"/>
          <rect x="16" y="4" width="4" height="4" fill="#94b0c2"/>
  <rect x="6" y="14" width="2" height="2" fill="#566c86" opacity="0.6"/>
          <rect x="8" y="16" width="2" height="2" fill="#566c86" opacity="0.6"/>
          <rect x="24" y="14" width="2" height="2" fill="#566c86" opacity="0.6"/>
          <rect x="22" y="16" width="2" height="2" fill="#566c86" opacity="0.6"/>
  
</svg>