<svg xmlns="http://www.w3.org/2000/svg" viewBox="0 0 32 32">
  <rect width="32" height="32" fill="#2c003e"/>
  <rect x="6" y="2" width="20" height="26" fill="#ff79c6"/>
          <rect x="4" y="6" width="2" height="18" fill="#ff79c6"/>
          <rect x="26" y="6" width="2" height="18" fill="#ff79c6"/>
  <rect x="10" y="8" width="2" height="6" fill="#2c003e"/>
             <rect x="20" y="8" width="2" height="6" fill="#2c003e"/>
  <rect x="13" y="17" width="6" height="4" fill="#2c003e"/>
             <rect x="14" y="18" width="4" height="2" fill="#bd93f9"/>
  <rect x="8" y="0" width="16" height="2" fill="#bd93f9"/>
          <rect x="6" y="2" width="2" height="2" fill="#bd93f9"/>
          <rect x="24" y="2" width="2" height="2" fill="#bd93f9"/>
  <rect x="4" y="12" width="2" height="8" fill="#bd93f9"/>
          <rect x="26" y="12" width="2" height="8" fill="#bd93f9"/>
          <rect x="6" y="14" width="2" height="4" fill="#bd93f9"/>
          <rect x="24" y="14" width="2" height="4" fill="#bd93f9"/>
  <rect x="26" y="2" width="2" height="6" fill="#bd93f9"/>
          <rect x="24" y="6" width="4" height="4" fill="#bd93f9"/>
</svg>