<svg xmlns="http://www.w3.org/2000/svg" viewBox="0 0 32 32">
  <rect width="32" height="32" fill="#0d2b45"/>
  <rect x="4" y="4" width="24" height="16" fill="#ffce96"/>
          <rect x="6" y="20" width="20" height="4" fill="#ffce96"/>
          <rect x="8" y="24" width="16" height="4" fill="#ffce96"/>
  <rect x="7" y="10" width="8" height="6" fill="#fff"/>
             <rect x="17" y="10" width="8" height="6" fill="#fff"/>
             <rect x="8" y="11" width="3" height="4" fill="#0d2b45"/>
             <rect x="21" y="11" width="3" height="4" fill="#0d2b45"/>
  <rect x="12" y="20" width="8" height="2" fill="#0d2b45"/>
  <rect x="6" y="2" width="8" height="4" fill="#ff6b6b"/>
          <rect x="18" y="2" width="8" height="4" fill="#ff6b6b"/>
          <rect x="14" y="3" width="4" height="2" fill="#ff6b6b"/>
  <rect x="24" y="8" width="4" height="4" fill="#0d2b45"/>
          <rect x="25" y="9" width="2" height="2" fill="#7ec8e3"/>
          <rect x="26" y="12" width="2" height="4" fill="#7ec8e3"/>
  <rect x="2" y="2" width="4" height="2" fill="#ff6b6b"/>
          <rect x="4" y="4" width="4" height="2" fill="#ff6b6b"/>
</svg>