<svg xmlns="http://www.w3.org/2000/svg" viewBox="0 0 32 32">
  <rect width="32" height="32" fill="#2c003e"/>
  <rect x="6" y="6" width="20" height="20" fill="#ff79c6"/>
          <rect x="8" y="4" width="16" height="2" fill="#ff79c6"/>
          <rect x="8" y="26" width="16" height="2" fill="#ff79c6"/>
          <rect x="4" y="8" width="2" height="16" fill="#ff79c6"/>
          <rect x="26" y="8" width="2" height="16" fill="#ff79c6"/>
  <rect x="7" y="10" width="8" height="6" fill="#2c003e"/>
             <rect x="17" y="10" width="8" height="6" fill="#2c003e"/>
             <rect x="9" y="12" width="4" height="2" fill="#50fa7b"/>
             <rect x="19" y="12" width="4" height="2" fill="#50fa7b"/>
  <rect x="13" y="19" width="6" height="4" fill="#2c003e"/>
             <rect x="14" y="20" width="4" height="2" fill="#bd93f9"/>
  <rect x="8" y="0" width="16" height="2" fill="#bd93f9"/>
          <rect x="6" y="2" width="2" height="2" fill="#bd93f9"/>
          <rect x="24" y="2" width="2" height="2" fill="#bd93f9"/>
  <rect x="24" y="8" width="4" height="4" fill="#2c003e"/>
          <rect x="25" y="9" width="2" height="2" fill="#50fa7b"/>
          <rect x="26" y="12" width="2" height="4" fill="#50fa7b"/>
  <rect x="2" y="2" width="4" height="2" fill="#bd93f9"/>
          <rect x="4" y="4" width="4" height="2" fill="#bd93f9"/>
</svg>