<svg xmlns="http://www.w3.org/2000/svg" viewBox="0 0 32 32">
  <rect width="32" height="32" fill="#0a192f"/>
  <rect x="16" y="2" width="6" height="4" fill="#f72585"/>
          <rect x="14" y="6" width="6" height="4" fill="#f72585"/>
          <rect x="12" y="10" width="8" height="4" fill="#f72585"/>
          <rect x="10" y="14" width="12" height="4" fill="#f72585"/>
          <rect x="14" y="18" width="6" height="4" fill="#f72585"/>
          <rect x="12" y="22" width="6" height="4" fill="#f72585"/>
          <rect x="10" y="26" width="6" height="4" fill="#f72585"/>
  <rect x="8" y="12" width="2" height="2" fill="#fff"/>
             <rect x="10" y="10" width="2" height="2" fill="#fff"/>
             <rect x="12" y="12" width="2" height="2" fill="#fff"/>
             <rect x="18" y="12" width="2" height="2" fill="#fff"/>
             <rect x="20" y="10" width="2" height="2" fill="#fff"/>
             <rect x="22" y="12" width="2" height="2" fill="#fff"/>
  <rect x="26" y="4" width="2" height="2" fill="#f72585"/>
          <rect x="24" y="6" width="2" height="2" fill="#f72585" opacity="0.5"/>
          <rect x="28" y="6" width="2" height="2" fill="#f72585" opacity="0.5"/>
</svg>