<svg xmlns="http://www.w3.org/2000/svg" viewBox="0 0 32 32">
  <rect width="32" height="32" fill="#0f380f"/>
  <rect x="8" y="4" width="16" height="4" fill="#9bbc0f"/>
          <rect x="6" y="8" width="20" height="4" fill="#9bbc0f"/>
          <rect x="4" y="12" width="24" height="16" fill="#9bbc0f"/>
  <rect x="7" y="10" width="8" height="6" fill="#fff"/>
             <rect x="17" y="10" width="8" height="6" fill="#fff"/>
             <rect x="8" y="11" width="3" height="4" fill="#0f380f"/>
             <rect x="21" y="11" width="3" height="4" fill="#0f380f"/>
  <rect x="12" y="20" width="8" height="2" fill="#0f380f"/>
             <rect x="10" y="18" width="2" height="2" fill="#0f380f"/>
             <rect x="20" y="18" width="2" height="2" fill="#0f380f"/>
  
  <rect x="6" y="14" width="2" height="2" fill="#306230" opacity="0.6"/>
          <rect x="8" y="16" width="2" height="2" fill="#306230" opacity="0.6"/>
          <rect x="24" y="14" width="2" height="2" fill="#306230" opacity="0.6"/>
          <rect x="22" y="16" width="2" height="2" fill="#306230" opacity="0.6"/>
  <rect x="26" y="2" width="4" height="2" fill="#8bac0f"/>
          <rect x="28" y="4" width="2" height="2" fill="#8bac0f"/>
          <rect x="26" y="6" width="2" height="2" fill="#8bac0f"/>
          <rect x="26" y="10" width="2" height="2" fill="#8bac0f"/>
</svg>