<svg xmlns="http://www.w3.org/2000/svg" viewBox="0 0 32 32">
  <rect width="32" height="32" fill="#2d1b4e"/>
  <rect x="6" y="2" width="20" height="26" fill="#ff6348"/>
          <rect x="4" y="6" width="2" height="18" fill="#ff6348"/>
          <rect x="26" y="6" width="2" height="18" fill="#ff6348"/>
  <rect x="7" y="8" width="8" height="6" fill="#2d1b4e"/>
             <rect x="17" y="8" width="8" height="6" fill="#2d1b4e"/>
             <rect x="9" y="10" width="4" height="2" fill="#3ae374"/>
             <rect x="19" y="10" width="4" height="2" fill="#3ae374"/>
  <rect x="12" y="18" width="8" height="2" fill="#2d1b4e"/>
             <rect x="10" y="16" width="2" height="2" fill="#2d1b4e"/>
             <rect x="20" y="16" width="2" height="2" fill="#2d1b4e"/>
  <rect x="14" y="-4" width="4" height="10" fill="#ffc048"/>
          <rect x="12" y="0" width="2" height="6" fill="#ffc048"/>
          <rect x="18" y="0" width="2" height="6" fill="#ffc048"/>
  <rect x="4" y="12" width="2" height="8" fill="#ffc048"/>
          <rect x="26" y="12" width="2" height="8" fill="#ffc048"/>
          <rect x="6" y="14" width="2" height="4" fill="#ffc048"/>
          <rect x="24" y="14" width="2" height="4" fill="#ffc048"/>
  <rect x="26" y="6" width="2" height="4" fill="#00d9ff"/>
          <rect x="26" y="10" width="2" height="2" fill="#00d9ff"/>
</svg>