<svg xmlns="http://www.w3.org/2000/svg" viewBox="0 0 32 32">
  <rect width="32" height="32" fill="#0f380f"/>
  <rect x="4" y="4" width="24" height="24" fill="#9bbc0f"/>
  <rect x="5" y="10" width="10" height="8" fill="#8bac0f"/>
             <rect x="17" y="10" width="10" height="8" fill="#8bac0f"/>
             <rect x="15" y="12" width="2" height="4" fill="#8bac0f"/>
             <rect x="7" y="12" width="6" height="4" fill="#fff"/>
             <rect x="19" y="12" width="6" height="4" fill="#fff"/>
             <rect x="9" y="13" width="2" height="2" fill="#0f380f"/>
             <rect x="21" y="13" width="2" height="2" fill="#0f380f"/>
  <rect x="10" y="20" width="12" height="4" fill="#0f380f"/>
             <rect x="12" y="21" width="2" height="2" fill="#306230"/>
             <rect x="16" y="21" width="2" height="2" fill="#306230"/>
             <rect x="20" y="21" width="2" height="2" fill="#306230"/>
  <rect x="12" y="0" width="8" height="6" fill="#306230"/>
          <rect x="10" y="2" width="2" height="4" fill="#306230"/>
          <rect x="20" y="2" width="2" height="4" fill="#306230"/>
  <rect x="6" y="14" width="2" height="2" fill="#306230" opacity="0.6"/>
          <rect x="8" y="16" width="2" height="2" fill="#306230" opacity="0.6"/>
          <rect x="24" y="14" width="2" height="2" fill="#306230" opacity="0.6"/>
          <rect x="22" y="16" width="2" height="2" fill="#306230" opacity="0.6"/>
  <rect x="26" y="2" width="2" height="6" fill="#8bac0f"/>
          <rect x="24" y="6" width="4" height="4" fill="#8bac0f"/>
</svg>