<svg xmlns="http://www.w3.org/2000/svg" viewBox="0 0 32 32">
  <rect width="32" height="32" fill="#1e1e2e"/>
  <rect x="2" y="8" width="28" height="18" fill="#fab387"/>
          <rect x="6" y="6" width="20" height="2" fill="#fab387"/>
          <rect x="6" y="26" width="20" height="2" fill="#fab387"/>
  <rect x="5" y="12" width="10" height="8" fill="#f38ba8"/>
             <rect x="17" y="12" width="10" height="8" fill="#f38ba8"/>
             <rect x="15" y="14" width="2" height="4" fill="#f38ba8"/>
             <rect x="7" y="14" width="6" height="4" fill="#fff"/>
             <rect x="19" y="14" width="6" height="4" fill="#fff"/>
             <rect x="9" y="15" width="2" height="2" fill="#1e1e2e"/>
             <rect x="21" y="15" width="2" height="2" fill="#1e1e2e"/>
  <rect x="10" y="20" width="12" height="4" fill="#1e1e2e"/>
             <rect x="12" y="21" width="2" height="2" fill="#a6e3a1"/>
             <rect x="16" y="21" width="2" height="2" fill="#a6e3a1"/>
             <rect x="20" y="21" width="2" height="2" fill="#a6e3a1"/>
  <rect x="12" y="0" width="4" height="4" fill="#f38ba8"/>
          <rect x="14" y="2" width="6" height="2" fill="#f38ba8"/>
          <rect x="16" y="4" width="4" height="4" fill="#f38ba8"/>
  <rect x="4" y="12" width="2" height="8" fill="#f38ba8"/>
          <rect x="26" y="12" width="2" height="8" fill="#f38ba8"/>
          <rect x="6" y="14" width="2" height="4" fill="#f38ba8"/>
          <rect x="24" y="14" width="2" height="4" fill="#f38ba8"/>
  <rect x="26" y="6" width="2" height="4" fill="#00d9ff"/>
          <rect x="26" y="10" width="2" height="2" fill="#00d9ff"/>
</svg>