<svg xmlns="http://www.w3.org/2000/svg" viewBox="0 0 32 32">
  <rect width="32" height="32" fill="#1b263b"/>
  <rect x="2" y="8" width="28" height="18" fill="#e0aaff"/>
          <rect x="6" y="6" width="20" height="2" fill="#e0aaff"/>
          <rect x="6" y="26" width="20" height="2" fill="#e0aaff"/>
  <rect x="5" y="12" width="10" height="8" fill="#c77dff"/>
             <rect x="17" y="12" width="10" height="8" fill="#c77dff"/>
             <rect x="15" y="14" width="2" height="4" fill="#c77dff"/>
             <rect x="7" y="14" width="6" height="4" fill="#fff"/>
             <rect x="19" y="14" width="6" height="4" fill="#fff"/>
             <rect x="9" y="15" width="2" height="2" fill="#1b263b"/>
             <rect x="21" y="15" width="2" height="2" fill="#1b263b"/>
  <rect x="12" y="20" width="8" height="2" fill="#1b263b"/>
  <rect x="10" y="0" width="2" height="6" fill="#9d4edd"/>
          <rect x="20" y="0" width="2" height="6" fill="#9d4edd"/>
          <rect x="8" y="0" width="2" height="2" fill="#c77dff"/>
          <rect x="22" y="0" width="2" height="2" fill="#c77dff"/>
  <rect x="6" y="16" width="2" height="4" fill="#00d9ff"/>
          <rect x="6" y="20" width="2" height="2" fill="#00d9ff"/>
  
</svg>