<svg xmlns="http://www.w3.org/2000/svg" viewBox="0 0 32 32">
  <rect width="32" height="32" fill="#0f380f"/>
  <rect x="6" y="2" width="20" height="26" fill="#9bbc0f"/>
          <rect x="4" y="6" width="2" height="18" fill="#9bbc0f"/>
          <rect x="26" y="6" width="2" height="18" fill="#9bbc0f"/>
  <rect x="5" y="8" width="10" height="8" fill="#8bac0f"/>
             <rect x="17" y="8" width="10" height="8" fill="#8bac0f"/>
             <rect x="15" y="10" width="2" height="4" fill="#8bac0f"/>
             <rect x="7" y="10" width="6" height="4" fill="#fff"/>
             <rect x="19" y="10" width="6" height="4" fill="#fff"/>
             <rect x="9" y="11" width="2" height="2" fill="#0f380f"/>
             <rect x="21" y="11" width="2" height="2" fill="#0f380f"/>
  <rect x="10" y="18" width="12" height="4" fill="#0f380f"/>
             <rect x="12" y="19" width="2" height="2" fill="#306230"/>
             <rect x="16" y="19" width="2" height="2" fill="#306230"/>
             <rect x="20" y="19" width="2" height="2" fill="#306230"/>
  <rect x="8" y="-6" width="4" height="12" fill="#9bbc0f"/>
          <rect x="20" y="-6" width="4" height="12" fill="#9bbc0f"/>
          <rect x="9" y="-4" width="2" height="8" fill="#8bac0f"/>
          <rect x="21" y="-4" width="2" height="8" fill="#8bac0f"/>
  <rect x="4" y="16" width="4" height="2" fill="#8bac0f" opacity="0.5"/>
          <rect x="24" y="16" width="4" height="2" fill="#8bac0f" opacity="0.5"/>
  <rect x="26" y="2" width="4" height="2" fill="#8bac0f"/>
          <rect x="28" y="4" width="2" height="2" fill="#8bac0f"/>
          <rect x="26" y="6" width="2" height="2" fill="#8bac0f"/>
          <rect x="26" y="10" width="2" height="2" fill="#8bac0f"/>
</svg>