<svg xmlns="http://www.w3.org/2000/svg" viewBox="0 0 32 32">
  <rect width="32" height="32" fill="#1e1e2e"/>
  <rect x="4" y="4" width="24" height="16" fill="#fab387"/>
          <rect x="6" y="20" width="20" height="4" fill="#fab387"/>
          <rect x="8" y="24" width="16" height="4" fill="#fab387"/>
  <rect x="8" y="10" width="6" height="6" fill="#1e1e2e"/>
             <rect x="18" y="10" width="6" height="6" fill="#1e1e2e"/>
             <rect x="10" y="11" width="2" height="2" fill="#fff"/>
             <rect x="20" y="11" width="2" height="2" fill="#fff"/>
  <rect x="10" y="20" width="12" height="2" fill="#1e1e2e"/>
             <rect x="12" y="22" width="2" height="2" fill="#fff"/>
             <rect x="18" y="22" width="2" height="2" fill="#fff"/>
  <rect x="6" y="0" width="4" height="6" fill="#f38ba8"/>
          <rect x="22" y="0" width="4" height="6" fill="#f38ba8"/>
          <rect x="4" y="2" width="2" height="2" fill="#f38ba8"/>
          <rect x="26" y="2" width="2" height="2" fill="#f38ba8"/>
  <rect x="6" y="14" width="2" height="2" fill="#a6e3a1" opacity="0.6"/>
          <rect x="8" y="16" width="2" height="2" fill="#a6e3a1" opacity="0.6"/>
          <rect x="24" y="14" width="2" height="2" fill="#a6e3a1" opacity="0.6"/>
          <rect x="22" y="16" width="2" height="2" fill="#a6e3a1" opacity="0.6"/>
  <rect x="26" y="2" width="2" height="6" fill="#f38ba8"/>
          <rect x="24" y="6" width="4" height="4" fill="#f38ba8"/>
</svg>