<svg xmlns="http://www.w3.org/2000/svg" viewBox="0 0 32 32">
  <rect width="32" height="32" fill="#0c0c1d"/>
  <rect x="6" y="2" width="20" height="26" fill="#00d9ff"/>
          <rect x="4" y="6" width="2" height="18" fill="#00d9ff"/>
          <rect x="26" y="6" width="2" height="18" fill="#00d9ff"/>
  <rect x="8" y="9" width="2" height="2" fill="#ff00ff"/>
             <rect x="12" y="9" width="2" height="2" fill="#ff00ff"/>
             <rect x="8" y="11" width="6" height="2" fill="#ff00ff"/>
             <rect x="10" y="13" width="2" height="2" fill="#ff00ff"/>
             <rect x="18" y="9" width="2" height="2" fill="#ff00ff"/>
             <rect x="22" y="9" width="2" height="2" fill="#ff00ff"/>
             <rect x="18" y="11" width="6" height="2" fill="#ff00ff"/>
             <rect x="20" y="13" width="2" height="2" fill="#ff00ff"/>
  <rect x="12" y="18" width="8" height="2" fill="#0c0c1d"/>
             <rect x="14" y="20" width="4" height="4" fill="#ff00ff"/>
  <rect x="4" y="0" width="6" height="8" fill="#00d9ff"/>
          <rect x="22" y="0" width="6" height="8" fill="#00d9ff"/>
          <rect x="6" y="2" width="2" height="4" fill="#ff00ff"/>
          <rect x="24" y="2" width="2" height="4" fill="#ff00ff"/>
  <rect x="6" y="16" width="2" height="4" fill="#00d9ff"/>
          <rect x="6" y="20" width="2" height="2" fill="#00d9ff"/>
  
</svg>