<svg xmlns="http://www.w3.org/2000/svg" viewBox="0 0 32 32">
  <rect width="32" height="32" fill="#0c0c1d"/>
  <rect x="8" y="4" width="16" height="4" fill="#00d9ff"/>
          <rect x="6" y="8" width="20" height="4" fill="#00d9ff"/>
          <rect x="4" y="12" width="24" height="16" fill="#00d9ff"/>
  <rect x="8" y="12" width="6" height="2" fill="#0c0c1d"/>
             <rect x="18" y="12" width="6" height="2" fill="#0c0c1d"/>
  
  <rect x="4" y="0" width="24" height="8" fill="#ff00ff"/>
          <rect x="6" y="-2" width="20" height="2" fill="#ff00ff"/>
          <rect x="10" y="2" width="4" height="4" fill="#fff"/>
          <rect x="18" y="2" width="4" height="4" fill="#fff"/>
  <rect x="6" y="14" width="2" height="2" fill="#00ff87" opacity="0.6"/>
          <rect x="8" y="16" width="2" height="2" fill="#00ff87" opacity="0.6"/>
          <rect x="24" y="14" width="2" height="2" fill="#00ff87" opacity="0.6"/>
          <rect x="22" y="16" width="2" height="2" fill="#00ff87" opacity="0.6"/>
  <rect x="26" y="2" width="4" height="2" fill="#ff00ff"/>
          <rect x="28" y="4" width="2" height="2" fill="#ff00ff"/>
          <rect x="26" y="6" width="2" height="2" fill="#ff00ff"/>
          <rect x="26" y="10" width="2" height="2" fill="#ff00ff"/>
</svg>