<svg xmlns="http://www.w3.org/2000/svg" viewBox="0 0 32 32">
  <rect width="32" height="32" fill="#0f380f"/>
  <rect x="2" y="8" width="28" height="18" fill="#9bbc0f"/>
          <rect x="6" y="6" width="20" height="2" fill="#9bbc0f"/>
          <rect x="6" y="26" width="20" height="2" fill="#9bbc0f"/>
  <rect x="7" y="12" width="8" height="6" fill="#0f380f"/>
             <rect x="17" y="12" width="8" height="6" fill="#0f380f"/>
             <rect x="9" y="14" width="4" height="2" fill="#306230"/>
             <rect x="19" y="14" width="4" height="2" fill="#306230"/>
  <rect x="12" y="20" width="8" height="2" fill="#0f380f"/>
  <rect x="6" y="0" width="4" height="6" fill="#8bac0f"/>
          <rect x="22" y="0" width="4" height="6" fill="#8bac0f"/>
          <rect x="4" y="2" width="2" height="2" fill="#8bac0f"/>
          <rect x="26" y="2" width="2" height="2" fill="#8bac0f"/>
  <rect x="6" y="16" width="2" height="4" fill="#00d9ff"/>
          <rect x="6" y="20" width="2" height="2" fill="#00d9ff"/>
  <rect x="26" y="6" width="2" height="4" fill="#00d9ff"/>
          <rect x="26" y="10" width="2" height="2" fill="#00d9ff"/>
</svg>