<svg xmlns="http://www.w3.org/2000/svg" viewBox="0 0 32 32">
  <rect width="32" height="32" fill="#1a0a2e"/>
  <rect x="4" y="4" width="24" height="16" fill="#ffdbac"/>
          <rect x="6" y="20" width="20" height="4" fill="#ffdbac"/>
          <rect x="8" y="24" width="16" height="4" fill="#ffdbac"/>
  <rect x="8" y="10" width="2" height="2" fill="#1a0a2e"/>
             <rect x="10" y="12" width="2" height="2" fill="#1a0a2e"/>
             <rect x="12" y="10" width="2" height="2" fill="#1a0a2e"/>
             <rect x="8" y="14" width="2" height="2" fill="#1a0a2e"/>
             <rect x="12" y="14" width="2" height="2" fill="#1a0a2e"/>
             <rect x="18" y="10" width="2" height="2" fill="#1a0a2e"/>
             <rect x="20" y="12" width="2" height="2" fill="#1a0a2e"/>
             <rect x="22" y="10" width="2" height="2" fill="#1a0a2e"/>
             <rect x="18" y="14" width="2" height="2" fill="#1a0a2e"/>
             <rect x="22" y="14" width="2" height="2" fill="#1a0a2e"/>
  <rect x="10" y="20" width="12" height="4" fill="#1a0a2e"/>
             <rect x="12" y="21" width="2" height="2" fill="#50fa7b"/>
             <rect x="16" y="21" width="2" height="2" fill="#50fa7b"/>
             <rect x="20" y="21" width="2" height="2" fill="#50fa7b"/>
  <rect x="4" y="0" width="24" height="8" fill="#ff6b9d"/>
          <rect x="6" y="-2" width="20" height="2" fill="#ff6b9d"/>
          <rect x="10" y="2" width="4" height="4" fill="#fff"/>
          <rect x="18" y="2" width="4" height="4" fill="#fff"/>
  <rect x="4" y="16" width="4" height="2" fill="#ff6b9d" opacity="0.5"/>
          <rect x="24" y="16" width="4" height="2" fill="#ff6b9d" opacity="0.5"/>
  <rect x="2" y="2" width="4" height="2" fill="#ff6b9d"/>
          <rect x="4" y="4" width="4" height="2" fill="#ff6b9d"/>
</svg>