<svg xmlns="http://www.w3.org/2000/svg" viewBox="0 0 32 32">
  <rect width="32" height="32" fill="#2d1b4e"/>
  <rect x="6" y="6" width="20" height="20" fill="#ff6348"/>
          <rect x="8" y="4" width="16" height="2" fill="#ff6348"/>
          <rect x="8" y="26" width="16" height="2" fill="#ff6348"/>
          <rect x="4" y="8" width="2" height="16" fill="#ff6348"/>
          <rect x="26" y="8" width="2" height="16" fill="#ff6348"/>
  <rect x="10" y="10" width="2" height="2" fill="#ffc048"/>
             <rect x="8" y="12" width="6" height="2" fill="#ffc048"/>
             <rect x="10" y="14" width="2" height="2" fill="#ffc048"/>
             <rect x="20" y="10" width="2" height="2" fill="#ffc048"/>
             <rect x="18" y="12" width="6" height="2" fill="#ffc048"/>
             <rect x="20" y="14" width="2" height="2" fill="#ffc048"/>
  <rect x="12" y="20" width="8" height="2" fill="#2d1b4e"/>
  <rect x="8" y="-6" width="4" height="12" fill="#ff6348"/>
          <rect x="20" y="-6" width="4" height="12" fill="#ff6348"/>
          <rect x="9" y="-4" width="2" height="8" fill="#ffc048"/>
          <rect x="21" y="-4" width="2" height="8" fill="#ffc048"/>
  <rect x="4" y="16" width="4" height="2" fill="#ffc048" opacity="0.5"/>
          <rect x="24" y="16" width="4" height="2" fill="#ffc048" opacity="0.5"/>
  <rect x="26" y="6" width="2" height="4" fill="#00d9ff"/>
          <rect x="26" y="10" width="2" height="2" fill="#00d9ff"/>
</svg>