<svg xmlns="http://www.w3.org/2000/svg" viewBox="0 0 32 32">
  <rect width="32" height="32" fill="#0d2b45"/>
  <rect x="4" y="4" width="24" height="24" fill="#ffce96"/>
  <rect x="10" y="10" width="2" height="6" fill="#0d2b45"/>
             <rect x="20" y="10" width="2" height="6" fill="#0d2b45"/>
  <rect x="8" y="20" width="16" height="2" fill="#7ec8e3"/>
             <rect x="10" y="22" width="4" height="4" fill="#7ec8e3"/>
             <rect x="18" y="22" width="4" height="4" fill="#7ec8e3"/>
             <rect x="14" y="22" width="4" height="2" fill="#7ec8e3"/>
  <rect x="8" y="2" width="16" height="4" fill="#ff6b6b"/>
          <rect x="10" y="0" width="2" height="2" fill="#ff6b6b"/>
          <rect x="15" y="0" width="2" height="2" fill="#ff6b6b"/>
          <rect x="20" y="0" width="2" height="2" fill="#ff6b6b"/>
          <rect x="14" y="3" width="4" height="2" fill="#7ec8e3"/>
  <rect x="20" y="10" width="6" height="2" fill="#7ec8e3"/>
          <rect x="22" y="8" width="2" height="6" fill="#7ec8e3"/>
  <rect x="26" y="2" width="2" height="6" fill="#ff6b6b"/>
          <rect x="24" y="6" width="4" height="4" fill="#ff6b6b"/>
</svg>