<svg xmlns="http://www.w3.org/2000/svg" viewBox="0 0 32 32">
  <rect width="32" height="32" fill="#1a0a2e"/>
  <rect x="6" y="6" width="20" height="20" fill="#ffdbac"/>
          <rect x="8" y="4" width="16" height="2" fill="#ffdbac"/>
          <rect x="8" y="26" width="16" height="2" fill="#ffdbac"/>
          <rect x="4" y="8" width="2" height="16" fill="#ffdbac"/>
          <rect x="26" y="8" width="2" height="16" fill="#ffdbac"/>
  <rect x="7" y="10" width="8" height="6" fill="#fff"/>
             <rect x="17" y="10" width="8" height="6" fill="#fff"/>
             <rect x="8" y="11" width="3" height="4" fill="#1a0a2e"/>
             <rect x="21" y="11" width="3" height="4" fill="#1a0a2e"/>
  <rect x="10" y="20" width="2" height="2" fill="#1a0a2e"/>
             <rect x="12" y="22" width="2" height="2" fill="#1a0a2e"/>
             <rect x="14" y="20" width="4" height="2" fill="#1a0a2e"/>
             <rect x="18" y="22" width="2" height="2" fill="#1a0a2e"/>
             <rect x="20" y="20" width="2" height="2" fill="#1a0a2e"/>
  
  <rect x="24" y="8" width="4" height="4" fill="#1a0a2e"/>
          <rect x="25" y="9" width="2" height="2" fill="#50fa7b"/>
          <rect x="26" y="12" width="2" height="4" fill="#50fa7b"/>
  <rect x="2" y="2" width="4" height="2" fill="#ff6b9d"/>
          <rect x="4" y="4" width="4" height="2" fill="#ff6b9d"/>
</svg>