<svg xmlns="http://www.w3.org/2000/svg" viewBox="0 0 32 32">
  <rect width="32" height="32" fill="#0b090a"/>
  <rect x="8" y="4" width="16" height="4" fill="#b5838d"/>
          <rect x="6" y="8" width="20" height="4" fill="#b5838d"/>
          <rect x="4" y="12" width="24" height="16" fill="#b5838d"/>
  <rect x="5" y="10" width="10" height="8" fill="#e5989b"/>
             <rect x="17" y="10" width="10" height="8" fill="#e5989b"/>
             <rect x="15" y="12" width="2" height="4" fill="#e5989b"/>
             <rect x="7" y="12" width="6" height="4" fill="#fff"/>
             <rect x="19" y="12" width="6" height="4" fill="#fff"/>
             <rect x="9" y="13" width="2" height="2" fill="#0b090a"/>
             <rect x="21" y="13" width="2" height="2" fill="#0b090a"/>
  <rect x="10" y="20" width="2" height="2" fill="#0b090a"/>
             <rect x="12" y="22" width="2" height="2" fill="#0b090a"/>
             <rect x="14" y="20" width="4" height="2" fill="#0b090a"/>
             <rect x="18" y="22" width="2" height="2" fill="#0b090a"/>
             <rect x="20" y="20" width="2" height="2" fill="#0b090a"/>
  
  <rect x="4" y="16" width="4" height="2" fill="#e5989b" opacity="0.5"/>
          <rect x="24" y="16" width="4" height="2" fill="#e5989b" opacity="0.5"/>
  <rect x="26" y="6" width="2" height="4" fill="#00d9ff"/>
          <rect x="26" y="10" width="2" height="2" fill="#00d9ff"/>
</svg>