<svg xmlns="http://www.w3.org/2000/svg" viewBox="0 0 32 32">
  <rect width="32" height="32" fill="#3f2832"/>
  <rect x="4" y="4" width="24" height="24" fill="#ff9f43"/>
  <rect x="8" y="11" width="2" height="2" fill="#feca57"/>
             <rect x="12" y="11" width="2" height="2" fill="#feca57"/>
             <rect x="8" y="13" width="6" height="2" fill="#feca57"/>
             <rect x="10" y="15" width="2" height="2" fill="#feca57"/>
             <rect x="18" y="11" width="2" height="2" fill="#feca57"/>
             <rect x="22" y="11" width="2" height="2" fill="#feca57"/>
             <rect x="18" y="13" width="6" height="2" fill="#feca57"/>
             <rect x="20" y="15" width="2" height="2" fill="#feca57"/>
  <rect x="8" y="20" width="16" height="2" fill="#ff6b6b"/>
             <rect x="10" y="22" width="4" height="4" fill="#ff6b6b"/>
             <rect x="18" y="22" width="4" height="4" fill="#ff6b6b"/>
             <rect x="14" y="22" width="4" height="2" fill="#ff6b6b"/>
  <rect x="12" y="0" width="4" height="4" fill="#feca57"/>
          <rect x="14" y="2" width="6" height="2" fill="#feca57"/>
          <rect x="16" y="4" width="4" height="4" fill="#feca57"/>
  <rect x="4" y="16" width="4" height="2" fill="#feca57" opacity="0.5"/>
          <rect x="24" y="16" width="4" height="2" fill="#feca57" opacity="0.5"/>
  <rect x="26" y="2" width="2" height="6" fill="#feca57"/>
          <rect x="24" y="6" width="4" height="4" fill="#feca57"/>
</svg>