<svg xmlns="http://www.w3.org/2000/svg" viewBox="0 0 32 32">
  <rect width="32" height="32" fill="#2d1b4e"/>
  <rect x="4" y="4" width="24" height="24" fill="#ff6348"/>
  <rect x="7" y="10" width="8" height="6" fill="#2d1b4e"/>
             <rect x="17" y="10" width="8" height="6" fill="#2d1b4e"/>
             <rect x="9" y="12" width="4" height="2" fill="#3ae374"/>
             <rect x="19" y="12" width="4" height="2" fill="#3ae374"/>
  <rect x="10" y="20" width="12" height="4" fill="#2d1b4e"/>
             <rect x="12" y="21" width="2" height="2" fill="#3ae374"/>
             <rect x="16" y="21" width="2" height="2" fill="#3ae374"/>
             <rect x="20" y="21" width="2" height="2" fill="#3ae374"/>
  <rect x="8" y="-6" width="4" height="12" fill="#ff6348"/>
          <rect x="20" y="-6" width="4" height="12" fill="#ff6348"/>
          <rect x="9" y="-4" width="2" height="8" fill="#ffc048"/>
          <rect x="21" y="-4" width="2" height="8" fill="#ffc048"/>
  <rect x="4" y="4" width="2" height="2" fill="#fff"/>
          <rect x="2" y="6" width="2" height="2" fill="#fff" opacity="0.6"/>
          <rect x="6" y="6" width="2" height="2" fill="#fff" opacity="0.6"/>
  <rect x="26" y="6" width="2" height="4" fill="#00d9ff"/>
          <rect x="26" y="10" width="2" height="2" fill="#00d9ff"/>
</svg>