<svg xmlns="http://www.w3.org/2000/svg" viewBox="0 0 32 32">
  <rect width="32" height="32" fill="#1a0a2e"/>
  <rect x="8" y="4" width="16" height="4" fill="#ffdbac"/>
          <rect x="6" y="8" width="20" height="4" fill="#ffdbac"/>
          <rect x="4" y="12" width="24" height="16" fill="#ffdbac"/>
  <rect x="8" y="10" width="2" height="2" fill="#1a0a2e"/>
             <rect x="10" y="12" width="2" height="2" fill="#1a0a2e"/>
             <rect x="12" y="10" width="2" height="2" fill="#1a0a2e"/>
             <rect x="8" y="14" width="2" height="2" fill="#1a0a2e"/>
             <rect x="12" y="14" width="2" height="2" fill="#1a0a2e"/>
             <rect x="18" y="10" width="2" height="2" fill="#1a0a2e"/>
             <rect x="20" y="12" width="2" height="2" fill="#1a0a2e"/>
             <rect x="22" y="10" width="2" height="2" fill="#1a0a2e"/>
             <rect x="18" y="14" width="2" height="2" fill="#1a0a2e"/>
             <rect x="22" y="14" width="2" height="2" fill="#1a0a2e"/>
  <rect x="10" y="20" width="12" height="2" fill="#1a0a2e"/>
             <rect x="12" y="22" width="2" height="2" fill="#fff"/>
             <rect x="18" y="22" width="2" height="2" fill="#fff"/>
  <rect x="8" y="-6" width="4" height="12" fill="#ffdbac"/>
          <rect x="20" y="-6" width="4" height="12" fill="#ffdbac"/>
          <rect x="9" y="-4" width="2" height="8" fill="#ff6b9d"/>
          <rect x="21" y="-4" width="2" height="8" fill="#ff6b9d"/>
  <rect x="24" y="8" width="4" height="4" fill="#1a0a2e"/>
          <rect x="25" y="9" width="2" height="2" fill="#50fa7b"/>
          <rect x="26" y="12" width="2" height="4" fill="#50fa7b"/>
  
</svg>