<svg xmlns="http://www.w3.org/2000/svg" viewBox="0 0 32 32">
  <rect width="32" height="32" fill="#1b263b"/>
  <rect x="4" y="4" width="24" height="16" fill="#e0aaff"/>
          <rect x="6" y="20" width="20" height="4" fill="#e0aaff"/>
          <rect x="8" y="24" width="16" height="4" fill="#e0aaff"/>
  <rect x="10" y="12" width="2" height="2" fill="#1b263b"/>
             <rect x="20" y="12" width="2" height="2" fill="#1b263b"/>
  <rect x="10" y="20" width="12" height="4" fill="#1b263b"/>
             <rect x="12" y="21" width="2" height="2" fill="#9d4edd"/>
             <rect x="16" y="21" width="2" height="2" fill="#9d4edd"/>
             <rect x="20" y="21" width="2" height="2" fill="#9d4edd"/>
  <rect x="10" y="0" width="2" height="6" fill="#9d4edd"/>
          <rect x="20" y="0" width="2" height="6" fill="#9d4edd"/>
          <rect x="8" y="0" width="2" height="2" fill="#c77dff"/>
          <rect x="22" y="0" width="2" height="2" fill="#c77dff"/>
  <rect x="4" y="4" width="2" height="2" fill="#fff"/>
          <rect x="2" y="6" width="2" height="2" fill="#fff" opacity="0.6"/>
          <rect x="6" y="6" width="2" height="2" fill="#fff" opacity="0.6"/>
  <rect x="26" y="6" width="2" height="4" fill="#00d9ff"/>
          <rect x="26" y="10" width="2" height="2" fill="#00d9ff"/>
</svg>