<svg xmlns="http://www.w3.org/2000/svg" viewBox="0 0 32 32">
  <rect width="32" height="32" fill="#0d2b45"/>
  <rect x="6" y="2" width="20" height="26" fill="#ffce96"/>
          <rect x="4" y="6" width="2" height="18" fill="#ffce96"/>
          <rect x="26" y="6" width="2" height="18" fill="#ffce96"/>
  <rect x="5" y="8" width="10" height="8" fill="#ff6b6b"/>
             <rect x="17" y="8" width="10" height="8" fill="#ff6b6b"/>
             <rect x="15" y="10" width="2" height="4" fill="#ff6b6b"/>
             <rect x="7" y="10" width="6" height="4" fill="#fff"/>
             <rect x="19" y="10" width="6" height="4" fill="#fff"/>
             <rect x="9" y="11" width="2" height="2" fill="#0d2b45"/>
             <rect x="21" y="11" width="2" height="2" fill="#0d2b45"/>
  <rect x="13" y="17" width="6" height="4" fill="#0d2b45"/>
             <rect x="14" y="18" width="4" height="2" fill="#ff6b6b"/>
  <rect x="14" y="0" width="4" height="4" fill="#ff6b6b"/>
          <rect x="12" y="4" width="8" height="2" fill="#ff6b6b"/>
          <rect x="10" y="6" width="12" height="2" fill="#ff6b6b"/>
  <rect x="6" y="16" width="2" height="4" fill="#00d9ff"/>
          <rect x="6" y="20" width="2" height="2" fill="#00d9ff"/>
  <rect x="26" y="6" width="2" height="4" fill="#00d9ff"/>
          <rect x="26" y="10" width="2" height="2" fill="#00d9ff"/>
</svg>