<svg xmlns="http://www.w3.org/2000/svg" viewBox="0 0 32 32">
  <rect width="32" height="32" fill="#3f2832"/>
  <rect x="2" y="8" width="28" height="18" fill="#ff9f43"/>
          <rect x="6" y="6" width="20" height="2" fill="#ff9f43"/>
          <rect x="6" y="26" width="20" height="2" fill="#ff9f43"/>
  <rect x="8" y="13" width="2" height="2" fill="#feca57"/>
             <rect x="12" y="13" width="2" height="2" fill="#feca57"/>
             <rect x="8" y="15" width="6" height="2" fill="#feca57"/>
             <rect x="10" y="17" width="2" height="2" fill="#feca57"/>
             <rect x="18" y="13" width="2" height="2" fill="#feca57"/>
             <rect x="22" y="13" width="2" height="2" fill="#feca57"/>
             <rect x="18" y="15" width="6" height="2" fill="#feca57"/>
             <rect x="20" y="17" width="2" height="2" fill="#feca57"/>
  <rect x="12" y="20" width="8" height="2" fill="#3f2832"/>
  <rect x="14" y="-4" width="4" height="10" fill="#feca57"/>
          <rect x="12" y="0" width="2" height="6" fill="#feca57"/>
          <rect x="18" y="0" width="2" height="6" fill="#feca57"/>
  <rect x="20" y="10" width="6" height="2" fill="#ff6b6b"/>
          <rect x="22" y="8" width="2" height="6" fill="#ff6b6b"/>
  
</svg>