<svg xmlns="http://www.w3.org/2000/svg" viewBox="0 0 32 32">
  <rect width="32" height="32" fill="#1a1c2c"/>
  <rect x="2" y="8" width="28" height="18" fill="#f4f4f4"/>
          <rect x="6" y="6" width="20" height="2" fill="#f4f4f4"/>
          <rect x="6" y="26" width="20" height="2" fill="#f4f4f4"/>
  <rect x="10" y="14" width="2" height="2" fill="#1a1c2c"/>
             <rect x="20" y="14" width="2" height="2" fill="#1a1c2c"/>
  
  <rect x="6" y="2" width="20" height="2" fill="#1a1c2c"/>
          <rect x="10" y="0" width="12" height="2" fill="#1a1c2c"/>
          <rect x="12" y="-4" width="8" height="4" fill="#1a1c2c"/>
          <rect x="14" y="-2" width="4" height="2" fill="#94b0c2"/>
  <rect x="6" y="14" width="2" height="2" fill="#566c86" opacity="0.6"/>
          <rect x="8" y="16" width="2" height="2" fill="#566c86" opacity="0.6"/>
          <rect x="24" y="14" width="2" height="2" fill="#566c86" opacity="0.6"/>
          <rect x="22" y="16" width="2" height="2" fill="#566c86" opacity="0.6"/>
  <rect x="26" y="2" width="2" height="6" fill="#94b0c2"/>
          <rect x="24" y="6" width="4" height="4" fill="#94b0c2"/>
</svg>