<svg xmlns="http://www.w3.org/2000/svg" viewBox="0 0 32 32">
  <rect width="32" height="32" fill="#0b090a"/>
  <rect x="4" y="4" width="24" height="24" fill="#b5838d"/>
  <rect x="7" y="10" width="8" height="6" fill="#0b090a"/>
             <rect x="17" y="10" width="8" height="6" fill="#0b090a"/>
             <rect x="9" y="12" width="4" height="2" fill="#ffb4a2"/>
             <rect x="19" y="12" width="4" height="2" fill="#ffb4a2"/>
  <rect x="12" y="20" width="8" height="2" fill="#0b090a"/>
             <rect x="10" y="18" width="2" height="2" fill="#0b090a"/>
             <rect x="20" y="18" width="2" height="2" fill="#0b090a"/>
  <rect x="6" y="2" width="8" height="4" fill="#e5989b"/>
          <rect x="18" y="2" width="8" height="4" fill="#e5989b"/>
          <rect x="14" y="3" width="4" height="2" fill="#e5989b"/>
  <rect x="4" y="4" width="2" height="2" fill="#fff"/>
          <rect x="2" y="6" width="2" height="2" fill="#fff" opacity="0.6"/>
          <rect x="6" y="6" width="2" height="2" fill="#fff" opacity="0.6"/>
  <rect x="26" y="2" width="4" height="2" fill="#e5989b"/>
          <rect x="28" y="4" width="2" height="2" fill="#e5989b"/>
          <rect x="26" y="6" width="2" height="2" fill="#e5989b"/>
          <rect x="26" y="10" width="2" height="2" fill="#e5989b"/>
</svg>