<svg xmlns="http://www.w3.org/2000/svg" viewBox="0 0 32 32">
  <rect width="32" height="32" fill="#1a1c2c"/>
  <rect x="6" y="6" width="20" height="20" fill="#f4f4f4"/>
          <rect x="8" y="4" width="16" height="2" fill="#f4f4f4"/>
          <rect x="8" y="26" width="16" height="2" fill="#f4f4f4"/>
          <rect x="4" y="8" width="2" height="16" fill="#f4f4f4"/>
          <rect x="26" y="8" width="2" height="16" fill="#f4f4f4"/>
  <rect x="7" y="10" width="8" height="6" fill="#1a1c2c"/>
             <rect x="17" y="10" width="8" height="6" fill="#1a1c2c"/>
             <rect x="9" y="12" width="4" height="2" fill="#566c86"/>
             <rect x="19" y="12" width="4" height="2" fill="#566c86"/>
  <rect x="12" y="20" width="8" height="2" fill="#1a1c2c"/>
             <rect x="14" y="22" width="4" height="4" fill="#94b0c2"/>
  <rect x="8" y="2" width="16" height="4" fill="#94b0c2"/>
          <rect x="10" y="0" width="2" height="2" fill="#94b0c2"/>
          <rect x="15" y="0" width="2" height="2" fill="#94b0c2"/>
          <rect x="20" y="0" width="2" height="2" fill="#94b0c2"/>
          <rect x="14" y="3" width="4" height="2" fill="#566c86"/>
  <rect x="20" y="10" width="6" height="2" fill="#566c86"/>
          <rect x="22" y="8" width="2" height="6" fill="#566c86"/>
  <rect x="2" y="2" width="4" height="2" fill="#94b0c2"/>
          <rect x="4" y="4" width="4" height="2" fill="#94b0c2"/>
</svg>