<svg xmlns="http://www.w3.org/2000/svg" viewBox="0 0 32 32">
  <rect width="32" height="32" fill="#1a0a2e"/>
  <rect x="4" y="4" width="24" height="16" fill="#ffdbac"/>
          <rect x="6" y="20" width="20" height="4" fill="#ffdbac"/>
          <rect x="8" y="24" width="16" height="4" fill="#ffdbac"/>
  <rect x="7" y="10" width="8" height="6" fill="#fff"/>
             <rect x="17" y="10" width="8" height="6" fill="#fff"/>
             <rect x="8" y="11" width="3" height="4" fill="#1a0a2e"/>
             <rect x="21" y="11" width="3" height="4" fill="#1a0a2e"/>
  <rect x="10" y="20" width="2" height="2" fill="#1a0a2e"/>
             <rect x="12" y="22" width="2" height="2" fill="#1a0a2e"/>
             <rect x="14" y="20" width="4" height="2" fill="#1a0a2e"/>
             <rect x="18" y="22" width="2" height="2" fill="#1a0a2e"/>
             <rect x="20" y="20" width="2" height="2" fill="#1a0a2e"/>
  <rect x="4" y="0" width="6" height="8" fill="#ffdbac"/>
          <rect x="22" y="0" width="6" height="8" fill="#ffdbac"/>
          <rect x="6" y="2" width="2" height="4" fill="#ff6b9d"/>
          <rect x="24" y="2" width="2" height="4" fill="#ff6b9d"/>
  <rect x="6" y="16" width="2" height="4" fill="#00d9ff"/>
          <rect x="6" y="20" width="2" height="2" fill="#00d9ff"/>
  
</svg>