<svg xmlns="http://www.w3.org/2000/svg" viewBox="0 0 32 32">
  <rect width="32" height="32" fill="#03071e"/>
  <rect x="6" y="2" width="20" height="26" fill="#ffba08"/>
          <rect x="4" y="6" width="2" height="18" fill="#ffba08"/>
          <rect x="26" y="6" width="2" height="18" fill="#ffba08"/>
  <rect x="8" y="10" width="6" height="2" fill="#03071e"/>
             <rect x="18" y="10" width="6" height="2" fill="#03071e"/>
  <rect x="8" y="18" width="16" height="2" fill="#dc2f02"/>
             <rect x="10" y="20" width="4" height="4" fill="#dc2f02"/>
             <rect x="18" y="20" width="4" height="4" fill="#dc2f02"/>
             <rect x="14" y="20" width="4" height="2" fill="#dc2f02"/>
  <rect x="8" y="-6" width="4" height="12" fill="#ffba08"/>
          <rect x="20" y="-6" width="4" height="12" fill="#ffba08"/>
          <rect x="9" y="-4" width="2" height="8" fill="#f48c06"/>
          <rect x="21" y="-4" width="2" height="8" fill="#f48c06"/>
  <rect x="4" y="16" width="4" height="2" fill="#f48c06" opacity="0.5"/>
          <rect x="24" y="16" width="4" height="2" fill="#f48c06" opacity="0.5"/>
  <rect x="26" y="2" width="2" height="6" fill="#f48c06"/>
          <rect x="24" y="6" width="4" height="4" fill="#f48c06"/>
</svg>