<svg xmlns="http://www.w3.org/2000/svg" viewBox="0 0 32 32">
  <rect width="32" height="32" fill="#2d1b4e"/>
  <rect x="6" y="2" width="20" height="26" fill="#ff6348"/>
          <rect x="4" y="6" width="2" height="18" fill="#ff6348"/>
          <rect x="26" y="6" width="2" height="18" fill="#ff6348"/>
  <rect x="6" y="8" width="10" height="6" fill="#2d1b4e"/>
             <rect x="8" y="10" width="2" height="2" fill="#ffc048"/>
             <rect x="18" y="8" width="6" height="6" fill="#fff"/>
             <rect x="20" y="10" width="2" height="2" fill="#2d1b4e"/>
  <rect x="12" y="18" width="8" height="2" fill="#2d1b4e"/>
             <rect x="10" y="16" width="2" height="2" fill="#2d1b4e"/>
             <rect x="20" y="16" width="2" height="2" fill="#2d1b4e"/>
  <rect x="4" y="0" width="6" height="8" fill="#ff6348"/>
          <rect x="22" y="0" width="6" height="8" fill="#ff6348"/>
          <rect x="6" y="2" width="2" height="4" fill="#ffc048"/>
          <rect x="24" y="2" width="2" height="4" fill="#ffc048"/>
  <rect x="20" y="10" width="6" height="2" fill="#3ae374"/>
          <rect x="22" y="8" width="2" height="6" fill="#3ae374"/>
  <rect x="26" y="2" width="2" height="6" fill="#ffc048"/>
          <rect x="24" y="6" width="4" height="4" fill="#ffc048"/>
</svg>