<svg xmlns="http://www.w3.org/2000/svg" viewBox="0 0 32 32">
  <rect width="32" height="32" fill="#10002b"/>
  <rect x="2" y="8" width="28" height="18" fill="#e0aaff"/>
          <rect x="6" y="6" width="20" height="2" fill="#e0aaff"/>
          <rect x="6" y="26" width="20" height="2" fill="#e0aaff"/>
  <rect x="7" y="12" width="8" height="6" fill="#10002b"/>
             <rect x="17" y="12" width="8" height="6" fill="#10002b"/>
             <rect x="9" y="14" width="4" height="2" fill="#ffea00"/>
             <rect x="19" y="14" width="4" height="2" fill="#ffea00"/>
  <rect x="10" y="20" width="12" height="2" fill="#10002b"/>
             <rect x="12" y="22" width="2" height="2" fill="#fff"/>
             <rect x="18" y="22" width="2" height="2" fill="#fff"/>
  <rect x="8" y="2" width="16" height="4" fill="#ff9e00"/>
          <rect x="10" y="0" width="2" height="2" fill="#ff9e00"/>
          <rect x="15" y="0" width="2" height="2" fill="#ff9e00"/>
          <rect x="20" y="0" width="2" height="2" fill="#ff9e00"/>
          <rect x="14" y="3" width="4" height="2" fill="#ffea00"/>
  
  <rect x="2" y="2" width="4" height="2" fill="#ff9e00"/>
          <rect x="4" y="4" width="4" height="2" fill="#ff9e00"/>
</svg>