<svg xmlns="http://www.w3.org/2000/svg" viewBox="0 0 32 32">
  <rect width="32" height="32" fill="#0c0c1d"/>
  <rect x="8" y="4" width="16" height="4" fill="#00d9ff"/>
          <rect x="6" y="8" width="20" height="4" fill="#00d9ff"/>
          <rect x="4" y="12" width="24" height="16" fill="#00d9ff"/>
  <rect x="10" y="12" width="2" height="2" fill="#0c0c1d"/>
             <rect x="20" y="12" width="2" height="2" fill="#0c0c1d"/>
  <rect x="10" y="20" width="12" height="4" fill="#0c0c1d"/>
             <rect x="12" y="21" width="2" height="2" fill="#00ff87"/>
             <rect x="16" y="21" width="2" height="2" fill="#00ff87"/>
             <rect x="20" y="21" width="2" height="2" fill="#00ff87"/>
  <rect x="14" y="0" width="4" height="4" fill="#ff00ff"/>
          <rect x="12" y="4" width="8" height="2" fill="#ff00ff"/>
          <rect x="10" y="6" width="12" height="2" fill="#ff00ff"/>
  <rect x="24" y="8" width="4" height="4" fill="#0c0c1d"/>
          <rect x="25" y="9" width="2" height="2" fill="#00ff87"/>
          <rect x="26" y="12" width="2" height="4" fill="#00ff87"/>
  <rect x="2" y="2" width="4" height="2" fill="#ff00ff"/>
          <rect x="4" y="4" width="4" height="2" fill="#ff00ff"/>
</svg>