<svg xmlns="http://www.w3.org/2000/svg" viewBox="0 0 32 32">
  <rect width="32" height="32" fill="#1b263b"/>
  <rect x="6" y="2" width="20" height="26" fill="#e0aaff"/>
          <rect x="4" y="6" width="2" height="18" fill="#e0aaff"/>
          <rect x="26" y="6" width="2" height="18" fill="#e0aaff"/>
  <rect x="7" y="8" width="8" height="6" fill="#fff"/>
             <rect x="17" y="8" width="8" height="6" fill="#fff"/>
             <rect x="8" y="9" width="3" height="4" fill="#1b263b"/>
             <rect x="21" y="9" width="3" height="4" fill="#1b263b"/>
  
  <rect x="10" y="0" width="2" height="6" fill="#9d4edd"/>
          <rect x="20" y="0" width="2" height="6" fill="#9d4edd"/>
          <rect x="8" y="0" width="2" height="2" fill="#c77dff"/>
          <rect x="22" y="0" width="2" height="2" fill="#c77dff"/>
  <rect x="4" y="12" width="2" height="8" fill="#c77dff"/>
          <rect x="26" y="12" width="2" height="8" fill="#c77dff"/>
          <rect x="6" y="14" width="2" height="4" fill="#c77dff"/>
          <rect x="24" y="14" width="2" height="4" fill="#c77dff"/>
  <rect x="26" y="2" width="4" height="2" fill="#c77dff"/>
          <rect x="28" y="4" width="2" height="2" fill="#c77dff"/>
          <rect x="26" y="6" width="2" height="2" fill="#c77dff"/>
          <rect x="26" y="10" width="2" height="2" fill="#c77dff"/>
</svg>