<svg xmlns="http://www.w3.org/2000/svg" viewBox="0 0 32 32">
  <rect width="32" height="32" fill="#2d1b4e"/>
  <rect x="4" y="10" width="24" height="12" fill="#bd93f9"/>
          <rect x="6" y="8" width="8" height="4" fill="#bd93f9"/>
          <rect x="18" y="8" width="8" height="4" fill="#bd93f9"/>
          <rect x="8" y="14" width="6" height="2" fill="#2d1b4e"/>
          <rect x="10" y="12" width="2" height="6" fill="#2d1b4e"/>
          <rect x="20" y="14" width="2" height="2" fill="#ffb86c"/>
          <rect x="24" y="14" width="2" height="2" fill="#ffb86c"/>
  <rect x="10" y="14" width="2" height="2" fill="#ffb86c"/>
             <rect x="8" y="16" width="6" height="2" fill="#ffb86c"/>
             <rect x="10" y="18" width="2" height="2" fill="#ffb86c"/>
             <rect x="20" y="14" width="2" height="2" fill="#ffb86c"/>
             <rect x="18" y="16" width="6" height="2" fill="#ffb86c"/>
             <rect x="20" y="18" width="2" height="2" fill="#ffb86c"/>
  <rect x="4" y="4" width="2" height="2" fill="#ffb86c"/>
          <rect x="2" y="6" width="2" height="2" fill="#ffb86c" opacity="0.6"/>
</svg>