<svg xmlns="http://www.w3.org/2000/svg" viewBox="0 0 32 32">
  <rect width="32" height="32" fill="#0a192f"/>
  <rect x="4" y="4" width="24" height="16" fill="#64ffda"/>
          <rect x="6" y="20" width="20" height="4" fill="#64ffda"/>
          <rect x="8" y="24" width="16" height="4" fill="#64ffda"/>
  <rect x="8" y="10" width="2" height="2" fill="#0a192f"/>
             <rect x="10" y="12" width="2" height="2" fill="#0a192f"/>
             <rect x="12" y="10" width="2" height="2" fill="#0a192f"/>
             <rect x="8" y="14" width="2" height="2" fill="#0a192f"/>
             <rect x="12" y="14" width="2" height="2" fill="#0a192f"/>
             <rect x="18" y="10" width="2" height="2" fill="#0a192f"/>
             <rect x="20" y="12" width="2" height="2" fill="#0a192f"/>
             <rect x="22" y="10" width="2" height="2" fill="#0a192f"/>
             <rect x="18" y="14" width="2" height="2" fill="#0a192f"/>
             <rect x="22" y="14" width="2" height="2" fill="#0a192f"/>
  <rect x="10" y="20" width="12" height="4" fill="#0a192f"/>
             <rect x="12" y="21" width="2" height="2" fill="#7209b7"/>
             <rect x="16" y="21" width="2" height="2" fill="#7209b7"/>
             <rect x="20" y="21" width="2" height="2" fill="#7209b7"/>
  <rect x="14" y="0" width="4" height="4" fill="#f72585"/>
          <rect x="12" y="4" width="8" height="2" fill="#f72585"/>
          <rect x="10" y="6" width="12" height="2" fill="#f72585"/>
  
  <rect x="26" y="2" width="2" height="6" fill="#f72585"/>
          <rect x="24" y="6" width="4" height="4" fill="#f72585"/>
</svg>