<svg xmlns="http://www.w3.org/2000/svg" viewBox="0 0 32 32">
  <rect width="32" height="32" fill="#10002b"/>
  <rect x="6" y="2" width="20" height="26" fill="#e0aaff"/>
          <rect x="4" y="6" width="2" height="18" fill="#e0aaff"/>
          <rect x="26" y="6" width="2" height="18" fill="#e0aaff"/>
  <rect x="12" y="8" width="8" height="8" fill="#fff"/>
             <rect x="14" y="10" width="4" height="4" fill="#10002b"/>
             <rect x="15" y="11" width="2" height="2" fill="#ff9e00"/>
  <rect x="10" y="18" width="12" height="4" fill="#10002b"/>
             <rect x="12" y="18" width="8" height="2" fill="#fff"/>
  <rect x="6" y="2" width="8" height="4" fill="#ff9e00"/>
          <rect x="18" y="2" width="8" height="4" fill="#ff9e00"/>
          <rect x="14" y="3" width="4" height="2" fill="#ff9e00"/>
  <rect x="6" y="14" width="2" height="2" fill="#ffea00" opacity="0.6"/>
          <rect x="8" y="16" width="2" height="2" fill="#ffea00" opacity="0.6"/>
          <rect x="24" y="14" width="2" height="2" fill="#ffea00" opacity="0.6"/>
          <rect x="22" y="16" width="2" height="2" fill="#ffea00" opacity="0.6"/>
  <rect x="2" y="2" width="4" height="2" fill="#ff9e00"/>
          <rect x="4" y="4" width="4" height="2" fill="#ff9e00"/>
</svg>