<svg xmlns="http://www.w3.org/2000/svg" viewBox="0 0 32 32">
  <rect width="32" height="32" fill="#10002b"/>
  <rect x="8" y="4" width="16" height="4" fill="#e0aaff"/>
          <rect x="6" y="8" width="20" height="4" fill="#e0aaff"/>
          <rect x="4" y="12" width="24" height="16" fill="#e0aaff"/>
  <rect x="8" y="11" width="2" height="2" fill="#ff9e00"/>
             <rect x="12" y="11" width="2" height="2" fill="#ff9e00"/>
             <rect x="8" y="13" width="6" height="2" fill="#ff9e00"/>
             <rect x="10" y="15" width="2" height="2" fill="#ff9e00"/>
             <rect x="18" y="11" width="2" height="2" fill="#ff9e00"/>
             <rect x="22" y="11" width="2" height="2" fill="#ff9e00"/>
             <rect x="18" y="13" width="6" height="2" fill="#ff9e00"/>
             <rect x="20" y="15" width="2" height="2" fill="#ff9e00"/>
  <rect x="8" y="20" width="16" height="2" fill="#ffea00"/>
             <rect x="10" y="22" width="4" height="4" fill="#ffea00"/>
             <rect x="18" y="22" width="4" height="4" fill="#ffea00"/>
             <rect x="14" y="22" width="4" height="2" fill="#ffea00"/>
  <rect x="4" y="0" width="24" height="8" fill="#ff9e00"/>
          <rect x="6" y="-2" width="20" height="2" fill="#ff9e00"/>
          <rect x="10" y="2" width="4" height="4" fill="#fff"/>
          <rect x="18" y="2" width="4" height="4" fill="#fff"/>
  <rect x="4" y="12" width="2" height="8" fill="#ff9e00"/>
          <rect x="26" y="12" width="2" height="8" fill="#ff9e00"/>
          <rect x="6" y="14" width="2" height="4" fill="#ff9e00"/>
          <rect x="24" y="14" width="2" height="4" fill="#ff9e00"/>
  <rect x="26" y="2" width="2" height="6" fill="#ff9e00"/>
          <rect x="24" y="6" width="4" height="4" fill="#ff9e00"/>
</svg>