<svg xmlns="http://www.w3.org/2000/svg" viewBox="0 0 32 32">
  <rect width="32" height="32" fill="#03071e"/>
  <rect x="2" y="8" width="28" height="18" fill="#ffba08"/>
          <rect x="6" y="6" width="20" height="2" fill="#ffba08"/>
          <rect x="6" y="26" width="20" height="2" fill="#ffba08"/>
  <rect x="7" y="12" width="8" height="6" fill="#03071e"/>
             <rect x="17" y="12" width="8" height="6" fill="#03071e"/>
             <rect x="9" y="14" width="4" height="2" fill="#dc2f02"/>
             <rect x="19" y="14" width="4" height="2" fill="#dc2f02"/>
  <rect x="10" y="20" width="12" height="4" fill="#03071e"/>
             <rect x="12" y="21" width="2" height="2" fill="#dc2f02"/>
             <rect x="16" y="21" width="2" height="2" fill="#dc2f02"/>
             <rect x="20" y="21" width="2" height="2" fill="#dc2f02"/>
  
  <rect x="6" y="14" width="2" height="2" fill="#dc2f02" opacity="0.6"/>
          <rect x="8" y="16" width="2" height="2" fill="#dc2f02" opacity="0.6"/>
          <rect x="24" y="14" width="2" height="2" fill="#dc2f02" opacity="0.6"/>
          <rect x="22" y="16" width="2" height="2" fill="#dc2f02" opacity="0.6"/>
  <rect x="2" y="2" width="4" height="2" fill="#f48c06"/>
          <rect x="4" y="4" width="4" height="2" fill="#f48c06"/>
</svg>