<svg xmlns="http://www.w3.org/2000/svg" viewBox="0 0 32 32">
  <rect width="32" height="32" fill="#1a0a2e"/>
  <rect x="6" y="2" width="20" height="26" fill="#ffdbac"/>
          <rect x="4" y="6" width="2" height="18" fill="#ffdbac"/>
          <rect x="26" y="6" width="2" height="18" fill="#ffdbac"/>
  <rect x="10" y="8" width="2" height="2" fill="#ff6b9d"/>
             <rect x="8" y="10" width="6" height="2" fill="#ff6b9d"/>
             <rect x="10" y="12" width="2" height="2" fill="#ff6b9d"/>
             <rect x="20" y="8" width="2" height="2" fill="#ff6b9d"/>
             <rect x="18" y="10" width="6" height="2" fill="#ff6b9d"/>
             <rect x="20" y="12" width="2" height="2" fill="#ff6b9d"/>
  <rect x="8" y="18" width="16" height="2" fill="#50fa7b"/>
             <rect x="10" y="20" width="4" height="4" fill="#50fa7b"/>
             <rect x="18" y="20" width="4" height="4" fill="#50fa7b"/>
             <rect x="14" y="20" width="4" height="2" fill="#50fa7b"/>
  <rect x="6" y="0" width="4" height="6" fill="#ff6b9d"/>
          <rect x="22" y="0" width="4" height="6" fill="#ff6b9d"/>
          <rect x="4" y="2" width="2" height="2" fill="#ff6b9d"/>
          <rect x="26" y="2" width="2" height="2" fill="#ff6b9d"/>
  <rect x="24" y="8" width="4" height="4" fill="#1a0a2e"/>
          <rect x="25" y="9" width="2" height="2" fill="#50fa7b"/>
          <rect x="26" y="12" width="2" height="4" fill="#50fa7b"/>
  
</svg>