<svg xmlns="http://www.w3.org/2000/svg" viewBox="0 0 32 32">
  <rect width="32" height="32" fill="#10002b"/>
  <rect x="2" y="8" width="28" height="18" fill="#e0aaff"/>
          <rect x="6" y="6" width="20" height="2" fill="#e0aaff"/>
          <rect x="6" y="26" width="20" height="2" fill="#e0aaff"/>
  <rect x="8" y="13" width="2" height="2" fill="#ff9e00"/>
             <rect x="12" y="13" width="2" height="2" fill="#ff9e00"/>
             <rect x="8" y="15" width="6" height="2" fill="#ff9e00"/>
             <rect x="10" y="17" width="2" height="2" fill="#ff9e00"/>
             <rect x="18" y="13" width="2" height="2" fill="#ff9e00"/>
             <rect x="22" y="13" width="2" height="2" fill="#ff9e00"/>
             <rect x="18" y="15" width="6" height="2" fill="#ff9e00"/>
             <rect x="20" y="17" width="2" height="2" fill="#ff9e00"/>
  <rect x="10" y="20" width="12" height="2" fill="#10002b"/>
             <rect x="12" y="22" width="2" height="2" fill="#fff"/>
             <rect x="18" y="22" width="2" height="2" fill="#fff"/>
  <rect x="8" y="0" width="16" height="2" fill="#ff9e00"/>
          <rect x="6" y="2" width="2" height="2" fill="#ff9e00"/>
          <rect x="24" y="2" width="2" height="2" fill="#ff9e00"/>
  <rect x="6" y="16" width="2" height="4" fill="#00d9ff"/>
          <rect x="6" y="20" width="2" height="2" fill="#00d9ff"/>
  <rect x="26" y="6" width="2" height="4" fill="#00d9ff"/>
          <rect x="26" y="10" width="2" height="2" fill="#00d9ff"/>
</svg>