<svg xmlns="http://www.w3.org/2000/svg" viewBox="0 0 32 32">
  <rect width="32" height="32" fill="#282a36"/>
  <rect x="6" y="2" width="20" height="26" fill="#f8f8f2"/>
          <rect x="4" y="6" width="2" height="18" fill="#f8f8f2"/>
          <rect x="26" y="6" width="2" height="18" fill="#f8f8f2"/>
  <rect x="7" y="8" width="8" height="6" fill="#282a36"/>
             <rect x="17" y="8" width="8" height="6" fill="#282a36"/>
             <rect x="9" y="10" width="4" height="2" fill="#8be9fd"/>
             <rect x="19" y="10" width="4" height="2" fill="#8be9fd"/>
  <rect x="8" y="18" width="16" height="2" fill="#8be9fd"/>
             <rect x="10" y="20" width="4" height="4" fill="#8be9fd"/>
             <rect x="18" y="20" width="4" height="4" fill="#8be9fd"/>
             <rect x="14" y="20" width="4" height="2" fill="#8be9fd"/>
  <rect x="14" y="0" width="4" height="4" fill="#ff79c6"/>
          <rect x="12" y="4" width="8" height="2" fill="#ff79c6"/>
          <rect x="10" y="6" width="12" height="2" fill="#ff79c6"/>
  <rect x="4" y="12" width="2" height="8" fill="#ff79c6"/>
          <rect x="26" y="12" width="2" height="8" fill="#ff79c6"/>
          <rect x="6" y="14" width="2" height="4" fill="#ff79c6"/>
          <rect x="24" y="14" width="2" height="4" fill="#ff79c6"/>
  <rect x="2" y="2" width="4" height="2" fill="#ff79c6"/>
          <rect x="4" y="4" width="4" height="2" fill="#ff79c6"/>
</svg>