<svg xmlns="http://www.w3.org/2000/svg" viewBox="0 0 32 32">
  <rect width="32" height="32" fill="#1e1e2e"/>
  <rect x="4" y="4" width="24" height="16" fill="#fab387"/>
          <rect x="6" y="20" width="20" height="4" fill="#fab387"/>
          <rect x="8" y="24" width="16" height="4" fill="#fab387"/>
  <rect x="10" y="12" width="2" height="2" fill="#1e1e2e"/>
             <rect x="20" y="12" width="2" height="2" fill="#1e1e2e"/>
  <rect x="8" y="20" width="16" height="2" fill="#a6e3a1"/>
             <rect x="10" y="22" width="4" height="4" fill="#a6e3a1"/>
             <rect x="18" y="22" width="4" height="4" fill="#a6e3a1"/>
             <rect x="14" y="22" width="4" height="2" fill="#a6e3a1"/>
  <rect x="4" y="0" width="24" height="8" fill="#f38ba8"/>
          <rect x="6" y="-2" width="20" height="2" fill="#f38ba8"/>
          <rect x="10" y="2" width="4" height="4" fill="#fff"/>
          <rect x="18" y="2" width="4" height="4" fill="#fff"/>
  <rect x="4" y="4" width="2" height="2" fill="#fff"/>
          <rect x="2" y="6" width="2" height="2" fill="#fff" opacity="0.6"/>
          <rect x="6" y="6" width="2" height="2" fill="#fff" opacity="0.6"/>
  <rect x="2" y="2" width="4" height="2" fill="#f38ba8"/>
          <rect x="4" y="4" width="4" height="2" fill="#f38ba8"/>
</svg>