<svg xmlns="http://www.w3.org/2000/svg" viewBox="0 0 32 32">
  <rect width="32" height="32" fill="#0d2b45"/>
  <rect x="4" y="4" width="24" height="16" fill="#ffce96"/>
          <rect x="6" y="20" width="20" height="4" fill="#ffce96"/>
          <rect x="8" y="24" width="16" height="4" fill="#ffce96"/>
  <rect x="8" y="11" width="2" height="2" fill="#ff6b6b"/>
             <rect x="12" y="11" width="2" height="2" fill="#ff6b6b"/>
             <rect x="8" y="13" width="6" height="2" fill="#ff6b6b"/>
             <rect x="10" y="15" width="2" height="2" fill="#ff6b6b"/>
             <rect x="18" y="11" width="2" height="2" fill="#ff6b6b"/>
             <rect x="22" y="11" width="2" height="2" fill="#ff6b6b"/>
             <rect x="18" y="13" width="6" height="2" fill="#ff6b6b"/>
             <rect x="20" y="15" width="2" height="2" fill="#ff6b6b"/>
  <rect x="10" y="20" width="12" height="4" fill="#0d2b45"/>
             <rect x="12" y="20" width="8" height="2" fill="#fff"/>
  <rect x="6" y="2" width="20" height="2" fill="#0d2b45"/>
          <rect x="10" y="0" width="12" height="2" fill="#0d2b45"/>
          <rect x="12" y="-4" width="8" height="4" fill="#0d2b45"/>
          <rect x="14" y="-2" width="4" height="2" fill="#ff6b6b"/>
  <rect x="20" y="10" width="6" height="2" fill="#7ec8e3"/>
          <rect x="22" y="8" width="2" height="6" fill="#7ec8e3"/>
  <rect x="2" y="2" width="4" height="2" fill="#ff6b6b"/>
          <rect x="4" y="4" width="4" height="2" fill="#ff6b6b"/>
</svg>