<svg xmlns="http://www.w3.org/2000/svg" viewBox="0 0 32 32">
  <rect width="32" height="32" fill="#0f380f"/>
  <rect x="4" y="4" width="24" height="24" fill="#9bbc0f"/>
  <rect x="8" y="10" width="6" height="6" fill="#0f380f"/>
             <rect x="18" y="10" width="6" height="6" fill="#0f380f"/>
             <rect x="10" y="11" width="2" height="2" fill="#fff"/>
             <rect x="20" y="11" width="2" height="2" fill="#fff"/>
  <rect x="12" y="20" width="8" height="2" fill="#0f380f"/>
             <rect x="10" y="18" width="2" height="2" fill="#0f380f"/>
             <rect x="20" y="18" width="2" height="2" fill="#0f380f"/>
  
  <rect x="24" y="8" width="4" height="4" fill="#0f380f"/>
          <rect x="25" y="9" width="2" height="2" fill="#306230"/>
          <rect x="26" y="12" width="2" height="4" fill="#306230"/>
  <rect x="26" y="2" width="4" height="2" fill="#8bac0f"/>
          <rect x="28" y="4" width="2" height="2" fill="#8bac0f"/>
          <rect x="26" y="6" width="2" height="2" fill="#8bac0f"/>
          <rect x="26" y="10" width="2" height="2" fill="#8bac0f"/>
</svg>