<svg xmlns="http://www.w3.org/2000/svg" viewBox="0 0 32 32">
  <rect width="32" height="32" fill="#1a1c2c"/>
  <rect x="2" y="8" width="28" height="18" fill="#f4f4f4"/>
          <rect x="6" y="6" width="20" height="2" fill="#f4f4f4"/>
          <rect x="6" y="26" width="20" height="2" fill="#f4f4f4"/>
  <rect x="8" y="12" width="6" height="6" fill="#1a1c2c"/>
             <rect x="18" y="12" width="6" height="6" fill="#1a1c2c"/>
             <rect x="10" y="13" width="2" height="2" fill="#fff"/>
             <rect x="20" y="13" width="2" height="2" fill="#fff"/>
  <rect x="13" y="19" width="6" height="4" fill="#1a1c2c"/>
             <rect x="14" y="20" width="4" height="2" fill="#94b0c2"/>
  <rect x="10" y="0" width="2" height="6" fill="#566c86"/>
          <rect x="20" y="0" width="2" height="6" fill="#566c86"/>
          <rect x="8" y="0" width="2" height="2" fill="#94b0c2"/>
          <rect x="22" y="0" width="2" height="2" fill="#94b0c2"/>
  <rect x="6" y="16" width="2" height="4" fill="#00d9ff"/>
          <rect x="6" y="20" width="2" height="2" fill="#00d9ff"/>
  
</svg>