<svg xmlns="http://www.w3.org/2000/svg" viewBox="0 0 32 32">
  <rect width="32" height="32" fill="#0f380f"/>
  <rect x="8" y="4" width="16" height="4" fill="#9bbc0f"/>
          <rect x="6" y="8" width="20" height="4" fill="#9bbc0f"/>
          <rect x="4" y="12" width="24" height="16" fill="#9bbc0f"/>
  <rect x="10" y="10" width="2" height="2" fill="#8bac0f"/>
             <rect x="8" y="12" width="6" height="2" fill="#8bac0f"/>
             <rect x="10" y="14" width="2" height="2" fill="#8bac0f"/>
             <rect x="20" y="10" width="2" height="2" fill="#8bac0f"/>
             <rect x="18" y="12" width="6" height="2" fill="#8bac0f"/>
             <rect x="20" y="14" width="2" height="2" fill="#8bac0f"/>
  <rect x="8" y="20" width="16" height="2" fill="#306230"/>
             <rect x="10" y="22" width="4" height="4" fill="#306230"/>
             <rect x="18" y="22" width="4" height="4" fill="#306230"/>
             <rect x="14" y="22" width="4" height="2" fill="#306230"/>
  <rect x="14" y="-4" width="4" height="10" fill="#8bac0f"/>
          <rect x="12" y="0" width="2" height="6" fill="#8bac0f"/>
          <rect x="18" y="0" width="2" height="6" fill="#8bac0f"/>
  <rect x="6" y="16" width="2" height="4" fill="#00d9ff"/>
          <rect x="6" y="20" width="2" height="2" fill="#00d9ff"/>
  
</svg>