<svg xmlns="http://www.w3.org/2000/svg" viewBox="0 0 32 32">
  <rect width="32" height="32" fill="#0d2b45"/>
  <rect x="8" y="8" width="14" height="18" fill="#7ec8e3"/>
          <rect x="10" y="10" width="10" height="14" fill="#0d2b45"/>
          <rect x="22" y="12" width="4" height="2" fill="#7ec8e3"/>
          <rect x="24" y="14" width="2" height="6" fill="#7ec8e3"/>
          <rect x="22" y="20" width="4" height="2" fill="#7ec8e3"/>
  <rect x="10" y="15" width="2" height="2" fill="#ff6b6b"/>
             <rect x="8" y="17" width="6" height="2" fill="#ff6b6b"/>
             <rect x="10" y="19" width="2" height="2" fill="#ff6b6b"/>
             <rect x="20" y="15" width="2" height="2" fill="#ff6b6b"/>
             <rect x="18" y="17" width="6" height="2" fill="#ff6b6b"/>
             <rect x="20" y="19" width="2" height="2" fill="#ff6b6b"/>
  <rect x="4" y="4" width="2" height="2" fill="#ff6b6b"/>
          <rect x="8" y="4" width="2" height="2" fill="#ff6b6b"/>
          <rect x="4" y="6" width="6" height="2" fill="#ff6b6b"/>
          <rect x="6" y="8" width="2" height="2" fill="#ff6b6b"/>
</svg>