<svg xmlns="http://www.w3.org/2000/svg" viewBox="0 0 32 32">
  <rect width="32" height="32" fill="#0b090a"/>
  <rect x="6" y="2" width="20" height="26" fill="#b5838d"/>
          <rect x="4" y="6" width="2" height="18" fill="#b5838d"/>
          <rect x="26" y="6" width="2" height="18" fill="#b5838d"/>
  <rect x="7" y="8" width="8" height="6" fill="#0b090a"/>
             <rect x="17" y="8" width="8" height="6" fill="#0b090a"/>
             <rect x="9" y="10" width="4" height="2" fill="#ffb4a2"/>
             <rect x="19" y="10" width="4" height="2" fill="#ffb4a2"/>
  
  <rect x="8" y="2" width="16" height="4" fill="#e5989b"/>
          <rect x="10" y="0" width="2" height="2" fill="#e5989b"/>
          <rect x="15" y="0" width="2" height="2" fill="#e5989b"/>
          <rect x="20" y="0" width="2" height="2" fill="#e5989b"/>
          <rect x="14" y="3" width="4" height="2" fill="#ffb4a2"/>
  <rect x="4" y="16" width="4" height="2" fill="#e5989b" opacity="0.5"/>
          <rect x="24" y="16" width="4" height="2" fill="#e5989b" opacity="0.5"/>
  <rect x="26" y="2" width="2" height="6" fill="#e5989b"/>
          <rect x="24" y="6" width="4" height="4" fill="#e5989b"/>
</svg>