<svg xmlns="http://www.w3.org/2000/svg" viewBox="0 0 32 32">
  <rect width="32" height="32" fill="#1b263b"/>
  <rect x="10" y="18" width="12" height="10" fill="#3ae374"/>
          <rect x="14" y="10" width="4" height="10" fill="#e0aaff"/>
          <rect x="10" y="6" width="4" height="6" fill="#e0aaff"/>
          <rect x="18" y="6" width="4" height="6" fill="#e0aaff"/>
          <rect x="8" y="4" width="4" height="4" fill="#e0aaff"/>
          <rect x="20" y="4" width="4" height="4" fill="#e0aaff"/>
          <rect x="12" y="2" width="8" height="4" fill="#e0aaff"/>
  <rect x="8" y="13" width="2" height="2" fill="#fff"/>
             <rect x="10" y="11" width="2" height="2" fill="#fff"/>
             <rect x="12" y="13" width="2" height="2" fill="#fff"/>
             <rect x="18" y="13" width="2" height="2" fill="#fff"/>
             <rect x="20" y="11" width="2" height="2" fill="#fff"/>
             <rect x="22" y="13" width="2" height="2" fill="#fff"/>
  <rect x="4" y="4" width="2" height="2" fill="#3ae374"/>
          <rect x="8" y="4" width="2" height="2" fill="#3ae374"/>
          <rect x="4" y="6" width="6" height="2" fill="#3ae374"/>
          <rect x="6" y="8" width="2" height="2" fill="#3ae374"/>
</svg>