<svg xmlns="http://www.w3.org/2000/svg" viewBox="0 0 32 32">
  <rect width="32" height="32" fill="#282a36"/>
  <rect x="6" y="2" width="20" height="26" fill="#f8f8f2"/>
          <rect x="4" y="6" width="2" height="18" fill="#f8f8f2"/>
          <rect x="26" y="6" width="2" height="18" fill="#f8f8f2"/>
  <rect x="5" y="8" width="10" height="8" fill="#ff79c6"/>
             <rect x="17" y="8" width="10" height="8" fill="#ff79c6"/>
             <rect x="15" y="10" width="2" height="4" fill="#ff79c6"/>
             <rect x="7" y="10" width="6" height="4" fill="#fff"/>
             <rect x="19" y="10" width="6" height="4" fill="#fff"/>
             <rect x="9" y="11" width="2" height="2" fill="#282a36"/>
             <rect x="21" y="11" width="2" height="2" fill="#282a36"/>
  <rect x="12" y="18" width="8" height="2" fill="#282a36"/>
             <rect x="14" y="20" width="4" height="4" fill="#ff79c6"/>
  
  <rect x="4" y="16" width="4" height="2" fill="#ff79c6" opacity="0.5"/>
          <rect x="24" y="16" width="4" height="2" fill="#ff79c6" opacity="0.5"/>
  <rect x="26" y="2" width="2" height="6" fill="#ff79c6"/>
          <rect x="24" y="6" width="4" height="4" fill="#ff79c6"/>
</svg>