<svg xmlns="http://www.w3.org/2000/svg" viewBox="0 0 32 32">
  <rect width="32" height="32" fill="#1a0a2e"/>
  <rect x="4" y="4" width="24" height="24" fill="#ffdbac"/>
  <rect x="8" y="10" width="2" height="2" fill="#1a0a2e"/>
             <rect x="10" y="12" width="2" height="2" fill="#1a0a2e"/>
             <rect x="12" y="10" width="2" height="2" fill="#1a0a2e"/>
             <rect x="8" y="14" width="2" height="2" fill="#1a0a2e"/>
             <rect x="12" y="14" width="2" height="2" fill="#1a0a2e"/>
             <rect x="18" y="10" width="2" height="2" fill="#1a0a2e"/>
             <rect x="20" y="12" width="2" height="2" fill="#1a0a2e"/>
             <rect x="22" y="10" width="2" height="2" fill="#1a0a2e"/>
             <rect x="18" y="14" width="2" height="2" fill="#1a0a2e"/>
             <rect x="22" y="14" width="2" height="2" fill="#1a0a2e"/>
  <rect x="10" y="20" width="12" height="4" fill="#1a0a2e"/>
             <rect x="12" y="21" width="2" height="2" fill="#50fa7b"/>
             <rect x="16" y="21" width="2" height="2" fill="#50fa7b"/>
             <rect x="20" y="21" width="2" height="2" fill="#50fa7b"/>
  <rect x="10" y="0" width="2" height="6" fill="#50fa7b"/>
          <rect x="20" y="0" width="2" height="6" fill="#50fa7b"/>
          <rect x="8" y="0" width="2" height="2" fill="#ff6b9d"/>
          <rect x="22" y="0" width="2" height="2" fill="#ff6b9d"/>
  <rect x="4" y="16" width="4" height="2" fill="#ff6b9d" opacity="0.5"/>
          <rect x="24" y="16" width="4" height="2" fill="#ff6b9d" opacity="0.5"/>
  
</svg>