<svg xmlns="http://www.w3.org/2000/svg" viewBox="0 0 32 32">
  <rect width="32" height="32" fill="#2d1b4e"/>
  <rect x="2" y="8" width="28" height="18" fill="#ff6348"/>
          <rect x="6" y="6" width="20" height="2" fill="#ff6348"/>
          <rect x="6" y="26" width="20" height="2" fill="#ff6348"/>
  <rect x="8" y="12" width="6" height="6" fill="#2d1b4e"/>
             <rect x="18" y="12" width="6" height="6" fill="#2d1b4e"/>
             <rect x="10" y="13" width="2" height="2" fill="#fff"/>
             <rect x="20" y="13" width="2" height="2" fill="#fff"/>
  <rect x="12" y="20" width="8" height="2" fill="#2d1b4e"/>
             <rect x="14" y="22" width="4" height="4" fill="#ffc048"/>
  <rect x="4" y="0" width="6" height="8" fill="#ff6348"/>
          <rect x="22" y="0" width="6" height="8" fill="#ff6348"/>
          <rect x="6" y="2" width="2" height="4" fill="#ffc048"/>
          <rect x="24" y="2" width="2" height="4" fill="#ffc048"/>
  <rect x="6" y="14" width="2" height="2" fill="#3ae374" opacity="0.6"/>
          <rect x="8" y="16" width="2" height="2" fill="#3ae374" opacity="0.6"/>
          <rect x="24" y="14" width="2" height="2" fill="#3ae374" opacity="0.6"/>
          <rect x="22" y="16" width="2" height="2" fill="#3ae374" opacity="0.6"/>
  
</svg>