<svg xmlns="http://www.w3.org/2000/svg" viewBox="0 0 32 32">
  <rect width="32" height="32" fill="#1a0a2e"/>
  <rect x="4" y="10" width="24" height="12" fill="#ff6b9d"/>
          <rect x="6" y="8" width="8" height="4" fill="#ff6b9d"/>
          <rect x="18" y="8" width="8" height="4" fill="#ff6b9d"/>
          <rect x="8" y="14" width="6" height="2" fill="#1a0a2e"/>
          <rect x="10" y="12" width="2" height="6" fill="#1a0a2e"/>
          <rect x="20" y="14" width="2" height="2" fill="#50fa7b"/>
          <rect x="24" y="14" width="2" height="2" fill="#50fa7b"/>
  <rect x="8" y="12" width="2" height="2" fill="#fff"/>
             <rect x="10" y="10" width="2" height="2" fill="#fff"/>
             <rect x="12" y="12" width="2" height="2" fill="#fff"/>
             <rect x="18" y="12" width="2" height="2" fill="#fff"/>
             <rect x="20" y="10" width="2" height="2" fill="#fff"/>
             <rect x="22" y="12" width="2" height="2" fill="#fff"/>
  <rect x="4" y="4" width="2" height="2" fill="#50fa7b"/>
          <rect x="2" y="6" width="2" height="2" fill="#50fa7b" opacity="0.6"/>
</svg>