<svg xmlns="http://www.w3.org/2000/svg" viewBox="0 0 32 32">
  <rect width="32" height="32" fill="#282a36"/>
  <rect x="6" y="6" width="20" height="20" fill="#f8f8f2"/>
          <rect x="8" y="4" width="16" height="2" fill="#f8f8f2"/>
          <rect x="8" y="26" width="16" height="2" fill="#f8f8f2"/>
          <rect x="4" y="8" width="2" height="16" fill="#f8f8f2"/>
          <rect x="26" y="8" width="2" height="16" fill="#f8f8f2"/>
  <rect x="8" y="12" width="6" height="2" fill="#282a36"/>
             <rect x="18" y="12" width="6" height="2" fill="#282a36"/>
  <rect x="10" y="20" width="2" height="2" fill="#282a36"/>
             <rect x="12" y="22" width="2" height="2" fill="#282a36"/>
             <rect x="14" y="20" width="4" height="2" fill="#282a36"/>
             <rect x="18" y="22" width="2" height="2" fill="#282a36"/>
             <rect x="20" y="20" width="2" height="2" fill="#282a36"/>
  <rect x="8" y="-6" width="4" height="12" fill="#f8f8f2"/>
          <rect x="20" y="-6" width="4" height="12" fill="#f8f8f2"/>
          <rect x="9" y="-4" width="2" height="8" fill="#ff79c6"/>
          <rect x="21" y="-4" width="2" height="8" fill="#ff79c6"/>
  <rect x="4" y="12" width="2" height="8" fill="#ff79c6"/>
          <rect x="26" y="12" width="2" height="8" fill="#ff79c6"/>
          <rect x="6" y="14" width="2" height="4" fill="#ff79c6"/>
          <rect x="24" y="14" width="2" height="4" fill="#ff79c6"/>
  
</svg>