<svg xmlns="http://www.w3.org/2000/svg" viewBox="0 0 32 32">
  <rect width="32" height="32" fill="#2c003e"/>
  <rect x="2" y="8" width="28" height="18" fill="#ff79c6"/>
          <rect x="6" y="6" width="20" height="2" fill="#ff79c6"/>
          <rect x="6" y="26" width="20" height="2" fill="#ff79c6"/>
  <rect x="10" y="14" width="2" height="2" fill="#2c003e"/>
             <rect x="20" y="14" width="2" height="2" fill="#2c003e"/>
  <rect x="8" y="20" width="16" height="2" fill="#50fa7b"/>
             <rect x="10" y="22" width="4" height="4" fill="#50fa7b"/>
             <rect x="18" y="22" width="4" height="4" fill="#50fa7b"/>
             <rect x="14" y="22" width="4" height="2" fill="#50fa7b"/>
  <rect x="14" y="-4" width="4" height="10" fill="#bd93f9"/>
          <rect x="12" y="0" width="2" height="6" fill="#bd93f9"/>
          <rect x="18" y="0" width="2" height="6" fill="#bd93f9"/>
  <rect x="4" y="16" width="4" height="2" fill="#bd93f9" opacity="0.5"/>
          <rect x="24" y="16" width="4" height="2" fill="#bd93f9" opacity="0.5"/>
  <rect x="26" y="6" width="2" height="4" fill="#00d9ff"/>
          <rect x="26" y="10" width="2" height="2" fill="#00d9ff"/>
</svg>