<svg xmlns="http://www.w3.org/2000/svg" viewBox="0 0 32 32">
  <rect width="32" height="32" fill="#0f380f"/>
  <rect x="4" y="4" width="24" height="24" fill="#9bbc0f"/>
  <rect x="6" y="10" width="10" height="6" fill="#0f380f"/>
             <rect x="8" y="12" width="2" height="2" fill="#8bac0f"/>
             <rect x="18" y="10" width="6" height="6" fill="#fff"/>
             <rect x="20" y="12" width="2" height="2" fill="#0f380f"/>
  <rect x="13" y="19" width="6" height="4" fill="#0f380f"/>
             <rect x="14" y="20" width="4" height="2" fill="#8bac0f"/>
  <rect x="6" y="0" width="4" height="6" fill="#8bac0f"/>
          <rect x="22" y="0" width="4" height="6" fill="#8bac0f"/>
          <rect x="4" y="2" width="2" height="2" fill="#8bac0f"/>
          <rect x="26" y="2" width="2" height="2" fill="#8bac0f"/>
  <rect x="6" y="14" width="2" height="2" fill="#306230" opacity="0.6"/>
          <rect x="8" y="16" width="2" height="2" fill="#306230" opacity="0.6"/>
          <rect x="24" y="14" width="2" height="2" fill="#306230" opacity="0.6"/>
          <rect x="22" y="16" width="2" height="2" fill="#306230" opacity="0.6"/>
  
</svg>