<svg xmlns="http://www.w3.org/2000/svg" viewBox="0 0 32 32">
  <rect width="32" height="32" fill="#2c003e"/>
  <rect x="4" y="4" width="24" height="24" fill="#ff79c6"/>
  <rect x="12" y="10" width="8" height="8" fill="#fff"/>
             <rect x="14" y="12" width="4" height="4" fill="#2c003e"/>
             <rect x="15" y="13" width="2" height="2" fill="#bd93f9"/>
  <rect x="10" y="20" width="12" height="4" fill="#2c003e"/>
             <rect x="12" y="21" width="2" height="2" fill="#50fa7b"/>
             <rect x="16" y="21" width="2" height="2" fill="#50fa7b"/>
             <rect x="20" y="21" width="2" height="2" fill="#50fa7b"/>
  <rect x="4" y="0" width="6" height="8" fill="#ff79c6"/>
          <rect x="22" y="0" width="6" height="8" fill="#ff79c6"/>
          <rect x="6" y="2" width="2" height="4" fill="#bd93f9"/>
          <rect x="24" y="2" width="2" height="4" fill="#bd93f9"/>
  <rect x="6" y="16" width="2" height="4" fill="#00d9ff"/>
          <rect x="6" y="20" width="2" height="2" fill="#00d9ff"/>
  <rect x="26" y="6" width="2" height="4" fill="#00d9ff"/>
          <rect x="26" y="10" width="2" height="2" fill="#00d9ff"/>
</svg>