<svg xmlns="http://www.w3.org/2000/svg" viewBox="0 0 32 32">
  <rect width="32" height="32" fill="#282a36"/>
  <rect x="4" y="4" width="24" height="16" fill="#f8f8f2"/>
          <rect x="6" y="20" width="20" height="4" fill="#f8f8f2"/>
          <rect x="8" y="24" width="16" height="4" fill="#f8f8f2"/>
  <rect x="12" y="10" width="8" height="8" fill="#fff"/>
             <rect x="14" y="12" width="4" height="4" fill="#282a36"/>
             <rect x="15" y="13" width="2" height="2" fill="#ff79c6"/>
  <rect x="10" y="20" width="12" height="4" fill="#282a36"/>
             <rect x="12" y="21" width="2" height="2" fill="#8be9fd"/>
             <rect x="16" y="21" width="2" height="2" fill="#8be9fd"/>
             <rect x="20" y="21" width="2" height="2" fill="#8be9fd"/>
  <rect x="8" y="-6" width="4" height="12" fill="#f8f8f2"/>
          <rect x="20" y="-6" width="4" height="12" fill="#f8f8f2"/>
          <rect x="9" y="-4" width="2" height="8" fill="#ff79c6"/>
          <rect x="21" y="-4" width="2" height="8" fill="#ff79c6"/>
  <rect x="20" y="10" width="6" height="2" fill="#8be9fd"/>
          <rect x="22" y="8" width="2" height="6" fill="#8be9fd"/>
  <rect x="26" y="6" width="2" height="4" fill="#00d9ff"/>
          <rect x="26" y="10" width="2" height="2" fill="#00d9ff"/>
</svg>