<svg xmlns="http://www.w3.org/2000/svg" viewBox="0 0 32 32">
  <rect width="32" height="32" fill="#03071e"/>
  <rect x="6" y="2" width="20" height="26" fill="#ffba08"/>
          <rect x="4" y="6" width="2" height="18" fill="#ffba08"/>
          <rect x="26" y="6" width="2" height="18" fill="#ffba08"/>
  <rect x="7" y="8" width="8" height="6" fill="#fff"/>
             <rect x="17" y="8" width="8" height="6" fill="#fff"/>
             <rect x="8" y="9" width="3" height="4" fill="#03071e"/>
             <rect x="21" y="9" width="3" height="4" fill="#03071e"/>
  <rect x="13" y="17" width="6" height="4" fill="#03071e"/>
             <rect x="14" y="18" width="4" height="2" fill="#f48c06"/>
  <rect x="14" y="0" width="4" height="4" fill="#f48c06"/>
          <rect x="12" y="2" width="2" height="4" fill="#f48c06"/>
          <rect x="18" y="2" width="2" height="4" fill="#f48c06"/>
          <rect x="14" y="4" width="4" height="2" fill="#f48c06"/>
          <rect x="15" y="2" width="2" height="2" fill="#dc2f02"/>
  <rect x="6" y="16" width="2" height="4" fill="#00d9ff"/>
          <rect x="6" y="20" width="2" height="2" fill="#00d9ff"/>
  
</svg>