<svg xmlns="http://www.w3.org/2000/svg" viewBox="0 0 32 32">
  <rect width="32" height="32" fill="#1a1c2c"/>
  <rect x="4" y="4" width="24" height="16" fill="#f4f4f4"/>
          <rect x="6" y="20" width="20" height="4" fill="#f4f4f4"/>
          <rect x="8" y="24" width="16" height="4" fill="#f4f4f4"/>
  <rect x="10" y="10" width="2" height="2" fill="#94b0c2"/>
             <rect x="8" y="12" width="6" height="2" fill="#94b0c2"/>
             <rect x="10" y="14" width="2" height="2" fill="#94b0c2"/>
             <rect x="20" y="10" width="2" height="2" fill="#94b0c2"/>
             <rect x="18" y="12" width="6" height="2" fill="#94b0c2"/>
             <rect x="20" y="14" width="2" height="2" fill="#94b0c2"/>
  <rect x="10" y="20" width="2" height="2" fill="#1a1c2c"/>
             <rect x="12" y="22" width="2" height="2" fill="#1a1c2c"/>
             <rect x="14" y="20" width="4" height="2" fill="#1a1c2c"/>
             <rect x="18" y="22" width="2" height="2" fill="#1a1c2c"/>
             <rect x="20" y="20" width="2" height="2" fill="#1a1c2c"/>
  <rect x="8" y="0" width="16" height="2" fill="#94b0c2"/>
          <rect x="6" y="2" width="2" height="2" fill="#94b0c2"/>
          <rect x="24" y="2" width="2" height="2" fill="#94b0c2"/>
  <rect x="4" y="16" width="4" height="2" fill="#94b0c2" opacity="0.5"/>
          <rect x="24" y="16" width="4" height="2" fill="#94b0c2" opacity="0.5"/>
  <rect x="26" y="2" width="4" height="2" fill="#94b0c2"/>
          <rect x="28" y="4" width="2" height="2" fill="#94b0c2"/>
          <rect x="26" y="6" width="2" height="2" fill="#94b0c2"/>
          <rect x="26" y="10" width="2" height="2" fill="#94b0c2"/>
</svg>