<svg xmlns="http://www.w3.org/2000/svg" viewBox="0 0 32 32">
  <rect width="32" height="32" fill="#0b090a"/>
  <rect x="4" y="4" width="24" height="24" fill="#b5838d"/>
  <rect x="8" y="11" width="2" height="2" fill="#e5989b"/>
             <rect x="12" y="11" width="2" height="2" fill="#e5989b"/>
             <rect x="8" y="13" width="6" height="2" fill="#e5989b"/>
             <rect x="10" y="15" width="2" height="2" fill="#e5989b"/>
             <rect x="18" y="11" width="2" height="2" fill="#e5989b"/>
             <rect x="22" y="11" width="2" height="2" fill="#e5989b"/>
             <rect x="18" y="13" width="6" height="2" fill="#e5989b"/>
             <rect x="20" y="15" width="2" height="2" fill="#e5989b"/>
  
  <rect x="8" y="0" width="16" height="2" fill="#e5989b"/>
          <rect x="6" y="2" width="2" height="2" fill="#e5989b"/>
          <rect x="24" y="2" width="2" height="2" fill="#e5989b"/>
  <rect x="6" y="14" width="2" height="2" fill="#ffb4a2" opacity="0.6"/>
          <rect x="8" y="16" width="2" height="2" fill="#ffb4a2" opacity="0.6"/>
          <rect x="24" y="14" width="2" height="2" fill="#ffb4a2" opacity="0.6"/>
          <rect x="22" y="16" width="2" height="2" fill="#ffb4a2" opacity="0.6"/>
  <rect x="26" y="6" width="2" height="4" fill="#00d9ff"/>
          <rect x="26" y="10" width="2" height="2" fill="#00d9ff"/>
</svg>