<svg xmlns="http://www.w3.org/2000/svg" viewBox="0 0 32 32">
  <rect width="32" height="32" fill="#0d2b45"/>
  <rect x="2" y="8" width="28" height="18" fill="#ffce96"/>
          <rect x="6" y="6" width="20" height="2" fill="#ffce96"/>
          <rect x="6" y="26" width="20" height="2" fill="#ffce96"/>
  <rect x="7" y="12" width="8" height="6" fill="#0d2b45"/>
             <rect x="17" y="12" width="8" height="6" fill="#0d2b45"/>
             <rect x="9" y="14" width="4" height="2" fill="#7ec8e3"/>
             <rect x="19" y="14" width="4" height="2" fill="#7ec8e3"/>
  <rect x="10" y="20" width="12" height="4" fill="#0d2b45"/>
             <rect x="12" y="20" width="8" height="2" fill="#fff"/>
  <rect x="8" y="2" width="16" height="4" fill="#ff6b6b"/>
          <rect x="10" y="0" width="2" height="2" fill="#ff6b6b"/>
          <rect x="15" y="0" width="2" height="2" fill="#ff6b6b"/>
          <rect x="20" y="0" width="2" height="2" fill="#ff6b6b"/>
          <rect x="14" y="3" width="4" height="2" fill="#7ec8e3"/>
  <rect x="6" y="14" width="2" height="2" fill="#7ec8e3" opacity="0.6"/>
          <rect x="8" y="16" width="2" height="2" fill="#7ec8e3" opacity="0.6"/>
          <rect x="24" y="14" width="2" height="2" fill="#7ec8e3" opacity="0.6"/>
          <rect x="22" y="16" width="2" height="2" fill="#7ec8e3" opacity="0.6"/>
  <rect x="26" y="2" width="4" height="2" fill="#ff6b6b"/>
          <rect x="28" y="4" width="2" height="2" fill="#ff6b6b"/>
          <rect x="26" y="6" width="2" height="2" fill="#ff6b6b"/>
          <rect x="26" y="10" width="2" height="2" fill="#ff6b6b"/>
</svg>