<svg xmlns="http://www.w3.org/2000/svg" viewBox="0 0 32 32">
  <rect width="32" height="32" fill="#1a0a2e"/>
  <rect x="4" y="4" width="24" height="16" fill="#ffdbac"/>
          <rect x="6" y="20" width="20" height="4" fill="#ffdbac"/>
          <rect x="8" y="24" width="16" height="4" fill="#ffdbac"/>
  <rect x="10" y="10" width="2" height="6" fill="#1a0a2e"/>
             <rect x="20" y="10" width="2" height="6" fill="#1a0a2e"/>
  <rect x="12" y="20" width="8" height="2" fill="#1a0a2e"/>
             <rect x="14" y="22" width="4" height="4" fill="#ff6b9d"/>
  <rect x="4" y="0" width="24" height="8" fill="#ff6b9d"/>
          <rect x="6" y="-2" width="20" height="2" fill="#ff6b9d"/>
          <rect x="10" y="2" width="4" height="4" fill="#fff"/>
          <rect x="18" y="2" width="4" height="4" fill="#fff"/>
  <rect x="4" y="12" width="2" height="8" fill="#ff6b9d"/>
          <rect x="26" y="12" width="2" height="8" fill="#ff6b9d"/>
          <rect x="6" y="14" width="2" height="4" fill="#ff6b9d"/>
          <rect x="24" y="14" width="2" height="4" fill="#ff6b9d"/>
  <rect x="26" y="2" width="4" height="2" fill="#ff6b9d"/>
          <rect x="28" y="4" width="2" height="2" fill="#ff6b9d"/>
          <rect x="26" y="6" width="2" height="2" fill="#ff6b9d"/>
          <rect x="26" y="10" width="2" height="2" fill="#ff6b9d"/>
</svg>