<svg xmlns="http://www.w3.org/2000/svg" viewBox="0 0 32 32">
  <rect width="32" height="32" fill="#1e1e2e"/>
  <rect x="6" y="2" width="20" height="26" fill="#fab387"/>
          <rect x="4" y="6" width="2" height="18" fill="#fab387"/>
          <rect x="26" y="6" width="2" height="18" fill="#fab387"/>
  <rect x="5" y="8" width="10" height="8" fill="#f38ba8"/>
             <rect x="17" y="8" width="10" height="8" fill="#f38ba8"/>
             <rect x="15" y="10" width="2" height="4" fill="#f38ba8"/>
             <rect x="7" y="10" width="6" height="4" fill="#fff"/>
             <rect x="19" y="10" width="6" height="4" fill="#fff"/>
             <rect x="9" y="11" width="2" height="2" fill="#1e1e2e"/>
             <rect x="21" y="11" width="2" height="2" fill="#1e1e2e"/>
  
  <rect x="6" y="0" width="4" height="6" fill="#f38ba8"/>
          <rect x="22" y="0" width="4" height="6" fill="#f38ba8"/>
          <rect x="4" y="2" width="2" height="2" fill="#f38ba8"/>
          <rect x="26" y="2" width="2" height="2" fill="#f38ba8"/>
  
  <rect x="2" y="2" width="4" height="2" fill="#f38ba8"/>
          <rect x="4" y="4" width="4" height="2" fill="#f38ba8"/>
</svg>