<svg xmlns="http://www.w3.org/2000/svg" viewBox="0 0 32 32">
  <rect width="32" height="32" fill="#10002b"/>
  <rect x="4" y="6" width="24" height="18" fill="#ff9e00"/>
          <rect x="6" y="8" width="20" height="14" fill="#10002b"/>
          <rect x="10" y="24" width="12" height="2" fill="#ff9e00"/>
          <rect x="8" y="26" width="16" height="2" fill="#c77dff"/>
          <rect x="26" y="8" width="2" height="4" fill="#c77dff"/>
  <rect x="10" y="14" width="2" height="2" fill="#c77dff"/>
             <rect x="8" y="16" width="6" height="2" fill="#c77dff"/>
             <rect x="10" y="18" width="2" height="2" fill="#c77dff"/>
             <rect x="20" y="14" width="2" height="2" fill="#c77dff"/>
             <rect x="18" y="16" width="6" height="2" fill="#c77dff"/>
             <rect x="20" y="18" width="2" height="2" fill="#c77dff"/>
  <rect x="4" y="4" width="2" height="2" fill="#c77dff"/>
          <rect x="8" y="4" width="2" height="2" fill="#c77dff"/>
          <rect x="4" y="6" width="6" height="2" fill="#c77dff"/>
          <rect x="6" y="8" width="2" height="2" fill="#c77dff"/>
</svg>