<svg xmlns="http://www.w3.org/2000/svg" viewBox="0 0 32 32">
  <rect width="32" height="32" fill="#1e1e2e"/>
  <rect x="6" y="6" width="20" height="20" fill="#fab387"/>
          <rect x="8" y="4" width="16" height="2" fill="#fab387"/>
          <rect x="8" y="26" width="16" height="2" fill="#fab387"/>
          <rect x="4" y="8" width="2" height="16" fill="#fab387"/>
          <rect x="26" y="8" width="2" height="16" fill="#fab387"/>
  <rect x="8" y="11" width="2" height="2" fill="#f38ba8"/>
             <rect x="12" y="11" width="2" height="2" fill="#f38ba8"/>
             <rect x="8" y="13" width="6" height="2" fill="#f38ba8"/>
             <rect x="10" y="15" width="2" height="2" fill="#f38ba8"/>
             <rect x="18" y="11" width="2" height="2" fill="#f38ba8"/>
             <rect x="22" y="11" width="2" height="2" fill="#f38ba8"/>
             <rect x="18" y="13" width="6" height="2" fill="#f38ba8"/>
             <rect x="20" y="15" width="2" height="2" fill="#f38ba8"/>
  <rect x="12" y="20" width="8" height="2" fill="#1e1e2e"/>
  <rect x="4" y="0" width="6" height="8" fill="#fab387"/>
          <rect x="22" y="0" width="6" height="8" fill="#fab387"/>
          <rect x="6" y="2" width="2" height="4" fill="#f38ba8"/>
          <rect x="24" y="2" width="2" height="4" fill="#f38ba8"/>
  <rect x="4" y="4" width="2" height="2" fill="#fff"/>
          <rect x="2" y="6" width="2" height="2" fill="#fff" opacity="0.6"/>
          <rect x="6" y="6" width="2" height="2" fill="#fff" opacity="0.6"/>
  <rect x="26" y="6" width="2" height="4" fill="#00d9ff"/>
          <rect x="26" y="10" width="2" height="2" fill="#00d9ff"/>
</svg>