<svg xmlns="http://www.w3.org/2000/svg" viewBox="0 0 32 32">
  <rect width="32" height="32" fill="#0a192f"/>
  <rect x="6" y="6" width="20" height="20" fill="#64ffda"/>
          <rect x="8" y="4" width="16" height="2" fill="#64ffda"/>
          <rect x="8" y="26" width="16" height="2" fill="#64ffda"/>
          <rect x="4" y="8" width="2" height="16" fill="#64ffda"/>
          <rect x="26" y="8" width="2" height="16" fill="#64ffda"/>
  <rect x="6" y="10" width="10" height="6" fill="#0a192f"/>
             <rect x="8" y="12" width="2" height="2" fill="#f72585"/>
             <rect x="18" y="10" width="6" height="6" fill="#fff"/>
             <rect x="20" y="12" width="2" height="2" fill="#0a192f"/>
  <rect x="10" y="20" width="12" height="2" fill="#0a192f"/>
             <rect x="12" y="22" width="2" height="2" fill="#fff"/>
             <rect x="18" y="22" width="2" height="2" fill="#fff"/>
  <rect x="14" y="0" width="4" height="4" fill="#f72585"/>
          <rect x="12" y="2" width="2" height="4" fill="#f72585"/>
          <rect x="18" y="2" width="2" height="4" fill="#f72585"/>
          <rect x="14" y="4" width="4" height="2" fill="#f72585"/>
          <rect x="15" y="2" width="2" height="2" fill="#7209b7"/>
  <rect x="6" y="14" width="2" height="2" fill="#7209b7" opacity="0.6"/>
          <rect x="8" y="16" width="2" height="2" fill="#7209b7" opacity="0.6"/>
          <rect x="24" y="14" width="2" height="2" fill="#7209b7" opacity="0.6"/>
          <rect x="22" y="16" width="2" height="2" fill="#7209b7" opacity="0.6"/>
  <rect x="26" y="2" width="2" height="6" fill="#f72585"/>
          <rect x="24" y="6" width="4" height="4" fill="#f72585"/>
</svg>