<svg xmlns="http://www.w3.org/2000/svg" viewBox="0 0 32 32">
  <rect width="32" height="32" fill="#0c0c1d"/>
  <rect x="4" y="4" width="24" height="24" fill="#00d9ff"/>
  <rect x="5" y="10" width="10" height="8" fill="#ff00ff"/>
             <rect x="17" y="10" width="10" height="8" fill="#ff00ff"/>
             <rect x="15" y="12" width="2" height="4" fill="#ff00ff"/>
             <rect x="7" y="12" width="6" height="4" fill="#fff"/>
             <rect x="19" y="12" width="6" height="4" fill="#fff"/>
             <rect x="9" y="13" width="2" height="2" fill="#0c0c1d"/>
             <rect x="21" y="13" width="2" height="2" fill="#0c0c1d"/>
  <rect x="10" y="20" width="12" height="2" fill="#0c0c1d"/>
             <rect x="12" y="22" width="2" height="2" fill="#fff"/>
             <rect x="18" y="22" width="2" height="2" fill="#fff"/>
  <rect x="14" y="-4" width="4" height="10" fill="#ff00ff"/>
          <rect x="12" y="0" width="2" height="6" fill="#ff00ff"/>
          <rect x="18" y="0" width="2" height="6" fill="#ff00ff"/>
  <rect x="4" y="16" width="4" height="2" fill="#ff00ff" opacity="0.5"/>
          <rect x="24" y="16" width="4" height="2" fill="#ff00ff" opacity="0.5"/>
  <rect x="2" y="2" width="4" height="2" fill="#ff00ff"/>
          <rect x="4" y="4" width="4" height="2" fill="#ff00ff"/>
</svg>