<svg xmlns="http://www.w3.org/2000/svg" viewBox="0 0 32 32">
  <rect width="32" height="32" fill="#1a0a2e"/>
  <rect x="6" y="2" width="20" height="26" fill="#ffdbac"/>
          <rect x="4" y="6" width="2" height="18" fill="#ffdbac"/>
          <rect x="26" y="6" width="2" height="18" fill="#ffdbac"/>
  <rect x="12" y="8" width="8" height="8" fill="#fff"/>
             <rect x="14" y="10" width="4" height="4" fill="#1a0a2e"/>
             <rect x="15" y="11" width="2" height="2" fill="#ff6b9d"/>
  <rect x="12" y="18" width="8" height="2" fill="#1a0a2e"/>
             <rect x="10" y="16" width="2" height="2" fill="#1a0a2e"/>
             <rect x="20" y="16" width="2" height="2" fill="#1a0a2e"/>
  <rect x="8" y="0" width="16" height="2" fill="#ff6b9d"/>
          <rect x="6" y="2" width="2" height="2" fill="#ff6b9d"/>
          <rect x="24" y="2" width="2" height="2" fill="#ff6b9d"/>
  <rect x="20" y="10" width="6" height="2" fill="#50fa7b"/>
          <rect x="22" y="8" width="2" height="6" fill="#50fa7b"/>
  <rect x="26" y="2" width="4" height="2" fill="#ff6b9d"/>
          <rect x="28" y="4" width="2" height="2" fill="#ff6b9d"/>
          <rect x="26" y="6" width="2" height="2" fill="#ff6b9d"/>
          <rect x="26" y="10" width="2" height="2" fill="#ff6b9d"/>
</svg>