<svg xmlns="http://www.w3.org/2000/svg" viewBox="0 0 32 32">
  <rect width="32" height="32" fill="#1a0a2e"/>
  <rect x="4" y="4" width="24" height="16" fill="#ffdbac"/>
          <rect x="6" y="20" width="20" height="4" fill="#ffdbac"/>
          <rect x="8" y="24" width="16" height="4" fill="#ffdbac"/>
  <rect x="5" y="10" width="10" height="8" fill="#ff6b9d"/>
             <rect x="17" y="10" width="10" height="8" fill="#ff6b9d"/>
             <rect x="15" y="12" width="2" height="4" fill="#ff6b9d"/>
             <rect x="7" y="12" width="6" height="4" fill="#fff"/>
             <rect x="19" y="12" width="6" height="4" fill="#fff"/>
             <rect x="9" y="13" width="2" height="2" fill="#1a0a2e"/>
             <rect x="21" y="13" width="2" height="2" fill="#1a0a2e"/>
  <rect x="13" y="19" width="6" height="4" fill="#1a0a2e"/>
             <rect x="14" y="20" width="4" height="2" fill="#ff6b9d"/>
  <rect x="6" y="0" width="4" height="6" fill="#ff6b9d"/>
          <rect x="22" y="0" width="4" height="6" fill="#ff6b9d"/>
          <rect x="4" y="2" width="2" height="2" fill="#ff6b9d"/>
          <rect x="26" y="2" width="2" height="2" fill="#ff6b9d"/>
  <rect x="4" y="12" width="2" height="8" fill="#ff6b9d"/>
          <rect x="26" y="12" width="2" height="8" fill="#ff6b9d"/>
          <rect x="6" y="14" width="2" height="4" fill="#ff6b9d"/>
          <rect x="24" y="14" width="2" height="4" fill="#ff6b9d"/>
  <rect x="26" y="2" width="4" height="2" fill="#ff6b9d"/>
          <rect x="28" y="4" width="2" height="2" fill="#ff6b9d"/>
          <rect x="26" y="6" width="2" height="2" fill="#ff6b9d"/>
          <rect x="26" y="10" width="2" height="2" fill="#ff6b9d"/>
</svg>