<svg xmlns="http://www.w3.org/2000/svg" viewBox="0 0 32 32">
  <rect width="32" height="32" fill="#03071e"/>
  <rect x="4" y="4" width="24" height="24" fill="#ffba08"/>
  <rect x="10" y="10" width="2" height="2" fill="#f48c06"/>
             <rect x="8" y="12" width="6" height="2" fill="#f48c06"/>
             <rect x="10" y="14" width="2" height="2" fill="#f48c06"/>
             <rect x="20" y="10" width="2" height="2" fill="#f48c06"/>
             <rect x="18" y="12" width="6" height="2" fill="#f48c06"/>
             <rect x="20" y="14" width="2" height="2" fill="#f48c06"/>
  <rect x="12" y="20" width="8" height="2" fill="#03071e"/>
             <rect x="10" y="18" width="2" height="2" fill="#03071e"/>
             <rect x="20" y="18" width="2" height="2" fill="#03071e"/>
  <rect x="8" y="-6" width="4" height="12" fill="#ffba08"/>
          <rect x="20" y="-6" width="4" height="12" fill="#ffba08"/>
          <rect x="9" y="-4" width="2" height="8" fill="#f48c06"/>
          <rect x="21" y="-4" width="2" height="8" fill="#f48c06"/>
  <rect x="24" y="8" width="4" height="4" fill="#03071e"/>
          <rect x="25" y="9" width="2" height="2" fill="#dc2f02"/>
          <rect x="26" y="12" width="2" height="4" fill="#dc2f02"/>
  <rect x="26" y="2" width="4" height="2" fill="#f48c06"/>
          <rect x="28" y="4" width="2" height="2" fill="#f48c06"/>
          <rect x="26" y="6" width="2" height="2" fill="#f48c06"/>
          <rect x="26" y="10" width="2" height="2" fill="#f48c06"/>
</svg>