<svg xmlns="http://www.w3.org/2000/svg" viewBox="0 0 32 32">
  <rect width="32" height="32" fill="#2d1b4e"/>
  <rect x="4" y="4" width="24" height="24" fill="#ff6348"/>
  <rect x="8" y="10" width="2" height="2" fill="#2d1b4e"/>
             <rect x="10" y="12" width="2" height="2" fill="#2d1b4e"/>
             <rect x="12" y="10" width="2" height="2" fill="#2d1b4e"/>
             <rect x="8" y="14" width="2" height="2" fill="#2d1b4e"/>
             <rect x="12" y="14" width="2" height="2" fill="#2d1b4e"/>
             <rect x="18" y="10" width="2" height="2" fill="#2d1b4e"/>
             <rect x="20" y="12" width="2" height="2" fill="#2d1b4e"/>
             <rect x="22" y="10" width="2" height="2" fill="#2d1b4e"/>
             <rect x="18" y="14" width="2" height="2" fill="#2d1b4e"/>
             <rect x="22" y="14" width="2" height="2" fill="#2d1b4e"/>
  <rect x="12" y="20" width="8" height="2" fill="#2d1b4e"/>
  <rect x="6" y="2" width="20" height="2" fill="#2d1b4e"/>
          <rect x="10" y="0" width="12" height="2" fill="#2d1b4e"/>
          <rect x="12" y="-4" width="8" height="4" fill="#2d1b4e"/>
          <rect x="14" y="-2" width="4" height="2" fill="#ffc048"/>
  <rect x="24" y="8" width="4" height="4" fill="#2d1b4e"/>
          <rect x="25" y="9" width="2" height="2" fill="#3ae374"/>
          <rect x="26" y="12" width="2" height="4" fill="#3ae374"/>
  <rect x="2" y="2" width="4" height="2" fill="#ffc048"/>
          <rect x="4" y="4" width="4" height="2" fill="#ffc048"/>
</svg>