<svg xmlns="http://www.w3.org/2000/svg" viewBox="0 0 32 32">
  <rect width="32" height="32" fill="#0d2b45"/>
  <rect x="6" y="2" width="20" height="26" fill="#ffce96"/>
          <rect x="4" y="6" width="2" height="18" fill="#ffce96"/>
          <rect x="26" y="6" width="2" height="18" fill="#ffce96"/>
  <rect x="12" y="8" width="8" height="8" fill="#fff"/>
             <rect x="14" y="10" width="4" height="4" fill="#0d2b45"/>
             <rect x="15" y="11" width="2" height="2" fill="#ff6b6b"/>
  <rect x="12" y="18" width="8" height="2" fill="#0d2b45"/>
             <rect x="14" y="20" width="4" height="4" fill="#ff6b6b"/>
  <rect x="6" y="0" width="4" height="6" fill="#ff6b6b"/>
          <rect x="22" y="0" width="4" height="6" fill="#ff6b6b"/>
          <rect x="4" y="2" width="2" height="2" fill="#ff6b6b"/>
          <rect x="26" y="2" width="2" height="2" fill="#ff6b6b"/>
  <rect x="4" y="4" width="2" height="2" fill="#fff"/>
          <rect x="2" y="6" width="2" height="2" fill="#fff" opacity="0.6"/>
          <rect x="6" y="6" width="2" height="2" fill="#fff" opacity="0.6"/>
  <rect x="26" y="6" width="2" height="4" fill="#00d9ff"/>
          <rect x="26" y="10" width="2" height="2" fill="#00d9ff"/>
</svg>