<svg xmlns="http://www.w3.org/2000/svg" viewBox="0 0 32 32">
  <rect width="32" height="32" fill="#1b263b"/>
  <rect x="2" y="8" width="28" height="18" fill="#e0aaff"/>
          <rect x="6" y="6" width="20" height="2" fill="#e0aaff"/>
          <rect x="6" y="26" width="20" height="2" fill="#e0aaff"/>
  <rect x="6" y="12" width="10" height="6" fill="#1b263b"/>
             <rect x="8" y="14" width="2" height="2" fill="#c77dff"/>
             <rect x="18" y="12" width="6" height="6" fill="#fff"/>
             <rect x="20" y="14" width="2" height="2" fill="#1b263b"/>
  <rect x="13" y="19" width="6" height="4" fill="#1b263b"/>
             <rect x="14" y="20" width="4" height="2" fill="#c77dff"/>
  <rect x="8" y="2" width="16" height="4" fill="#c77dff"/>
          <rect x="10" y="0" width="2" height="2" fill="#c77dff"/>
          <rect x="15" y="0" width="2" height="2" fill="#c77dff"/>
          <rect x="20" y="0" width="2" height="2" fill="#c77dff"/>
          <rect x="14" y="3" width="4" height="2" fill="#9d4edd"/>
  <rect x="4" y="16" width="4" height="2" fill="#c77dff" opacity="0.5"/>
          <rect x="24" y="16" width="4" height="2" fill="#c77dff" opacity="0.5"/>
  
</svg>