<svg xmlns="http://www.w3.org/2000/svg" viewBox="0 0 32 32">
  <rect width="32" height="32" fill="#0b090a"/>
  <rect x="2" y="8" width="28" height="18" fill="#b5838d"/>
          <rect x="6" y="6" width="20" height="2" fill="#b5838d"/>
          <rect x="6" y="26" width="20" height="2" fill="#b5838d"/>
  <rect x="5" y="12" width="10" height="8" fill="#e5989b"/>
             <rect x="17" y="12" width="10" height="8" fill="#e5989b"/>
             <rect x="15" y="14" width="2" height="4" fill="#e5989b"/>
             <rect x="7" y="14" width="6" height="4" fill="#fff"/>
             <rect x="19" y="14" width="6" height="4" fill="#fff"/>
             <rect x="9" y="15" width="2" height="2" fill="#0b090a"/>
             <rect x="21" y="15" width="2" height="2" fill="#0b090a"/>
  <rect x="13" y="19" width="6" height="4" fill="#0b090a"/>
             <rect x="14" y="20" width="4" height="2" fill="#e5989b"/>
  <rect x="14" y="-4" width="4" height="10" fill="#e5989b"/>
          <rect x="12" y="0" width="2" height="6" fill="#e5989b"/>
          <rect x="18" y="0" width="2" height="6" fill="#e5989b"/>
  <rect x="20" y="10" width="6" height="2" fill="#ffb4a2"/>
          <rect x="22" y="8" width="2" height="6" fill="#ffb4a2"/>
  <rect x="26" y="2" width="4" height="2" fill="#e5989b"/>
          <rect x="28" y="4" width="2" height="2" fill="#e5989b"/>
          <rect x="26" y="6" width="2" height="2" fill="#e5989b"/>
          <rect x="26" y="10" width="2" height="2" fill="#e5989b"/>
</svg>