<svg xmlns="http://www.w3.org/2000/svg" viewBox="0 0 32 32">
  <rect width="32" height="32" fill="#2c003e"/>
  <rect x="4" y="4" width="24" height="16" fill="#ff79c6"/>
          <rect x="6" y="20" width="20" height="4" fill="#ff79c6"/>
          <rect x="8" y="24" width="16" height="4" fill="#ff79c6"/>
  <rect x="8" y="10" width="6" height="6" fill="#2c003e"/>
             <rect x="18" y="10" width="6" height="6" fill="#2c003e"/>
             <rect x="10" y="11" width="2" height="2" fill="#fff"/>
             <rect x="20" y="11" width="2" height="2" fill="#fff"/>
  <rect x="10" y="20" width="12" height="4" fill="#2c003e"/>
             <rect x="12" y="20" width="8" height="2" fill="#fff"/>
  <rect x="12" y="0" width="4" height="4" fill="#bd93f9"/>
          <rect x="14" y="2" width="6" height="2" fill="#bd93f9"/>
          <rect x="16" y="4" width="4" height="4" fill="#bd93f9"/>
  <rect x="4" y="16" width="4" height="2" fill="#bd93f9" opacity="0.5"/>
          <rect x="24" y="16" width="4" height="2" fill="#bd93f9" opacity="0.5"/>
  <rect x="26" y="2" width="2" height="6" fill="#bd93f9"/>
          <rect x="24" y="6" width="4" height="4" fill="#bd93f9"/>
</svg>