<svg xmlns="http://www.w3.org/2000/svg" viewBox="0 0 32 32">
  <rect width="32" height="32" fill="#10002b"/>
  <rect x="16" y="2" width="6" height="4" fill="#c77dff"/>
          <rect x="14" y="6" width="6" height="4" fill="#c77dff"/>
          <rect x="12" y="10" width="8" height="4" fill="#c77dff"/>
          <rect x="10" y="14" width="12" height="4" fill="#c77dff"/>
          <rect x="14" y="18" width="6" height="4" fill="#c77dff"/>
          <rect x="12" y="22" width="6" height="4" fill="#c77dff"/>
          <rect x="10" y="26" width="6" height="4" fill="#c77dff"/>
  <rect x="10" y="14" width="2" height="2" fill="#c77dff"/>
             <rect x="8" y="16" width="6" height="2" fill="#c77dff"/>
             <rect x="10" y="18" width="2" height="2" fill="#c77dff"/>
             <rect x="20" y="14" width="2" height="2" fill="#c77dff"/>
             <rect x="18" y="16" width="6" height="2" fill="#c77dff"/>
             <rect x="20" y="18" width="2" height="2" fill="#c77dff"/>
  <rect x="26" y="4" width="2" height="2" fill="#c77dff"/>
          <rect x="24" y="6" width="2" height="2" fill="#c77dff" opacity="0.5"/>
          <rect x="28" y="6" width="2" height="2" fill="#c77dff" opacity="0.5"/>
</svg>