<svg xmlns="http://www.w3.org/2000/svg" viewBox="0 0 32 32">
  <rect width="32" height="32" fill="#03071e"/>
  <rect x="2" y="8" width="28" height="18" fill="#ffba08"/>
          <rect x="6" y="6" width="20" height="2" fill="#ffba08"/>
          <rect x="6" y="26" width="20" height="2" fill="#ffba08"/>
  <rect x="8" y="12" width="6" height="6" fill="#03071e"/>
             <rect x="18" y="12" width="6" height="6" fill="#03071e"/>
             <rect x="10" y="13" width="2" height="2" fill="#fff"/>
             <rect x="20" y="13" width="2" height="2" fill="#fff"/>
  <rect x="12" y="20" width="8" height="2" fill="#03071e"/>
             <rect x="10" y="18" width="2" height="2" fill="#03071e"/>
             <rect x="20" y="18" width="2" height="2" fill="#03071e"/>
  <rect x="6" y="2" width="8" height="4" fill="#f48c06"/>
          <rect x="18" y="2" width="8" height="4" fill="#f48c06"/>
          <rect x="14" y="3" width="4" height="2" fill="#f48c06"/>
  <rect x="20" y="10" width="6" height="2" fill="#dc2f02"/>
          <rect x="22" y="8" width="2" height="6" fill="#dc2f02"/>
  <rect x="26" y="2" width="4" height="2" fill="#f48c06"/>
          <rect x="28" y="4" width="2" height="2" fill="#f48c06"/>
          <rect x="26" y="6" width="2" height="2" fill="#f48c06"/>
          <rect x="26" y="10" width="2" height="2" fill="#f48c06"/>
</svg>