<svg xmlns="http://www.w3.org/2000/svg" viewBox="0 0 32 32">
  <rect width="32" height="32" fill="#282a36"/>
  <rect x="6" y="2" width="20" height="26" fill="#f8f8f2"/>
          <rect x="4" y="6" width="2" height="18" fill="#f8f8f2"/>
          <rect x="26" y="6" width="2" height="18" fill="#f8f8f2"/>
  <rect x="8" y="8" width="6" height="6" fill="#282a36"/>
             <rect x="18" y="8" width="6" height="6" fill="#282a36"/>
             <rect x="10" y="9" width="2" height="2" fill="#fff"/>
             <rect x="20" y="9" width="2" height="2" fill="#fff"/>
  <rect x="10" y="18" width="12" height="4" fill="#282a36"/>
             <rect x="12" y="19" width="2" height="2" fill="#8be9fd"/>
             <rect x="16" y="19" width="2" height="2" fill="#8be9fd"/>
             <rect x="20" y="19" width="2" height="2" fill="#8be9fd"/>
  
  <rect x="4" y="12" width="2" height="8" fill="#ff79c6"/>
          <rect x="26" y="12" width="2" height="8" fill="#ff79c6"/>
          <rect x="6" y="14" width="2" height="4" fill="#ff79c6"/>
          <rect x="24" y="14" width="2" height="4" fill="#ff79c6"/>
  <rect x="26" y="2" width="2" height="6" fill="#ff79c6"/>
          <rect x="24" y="6" width="4" height="4" fill="#ff79c6"/>
</svg>