<svg xmlns="http://www.w3.org/2000/svg" viewBox="0 0 32 32">
  <rect width="32" height="32" fill="#1a0a2e"/>
  <rect x="4" y="4" width="24" height="24" fill="#ffdbac"/>
  <rect x="5" y="10" width="10" height="8" fill="#ff6b9d"/>
             <rect x="17" y="10" width="10" height="8" fill="#ff6b9d"/>
             <rect x="15" y="12" width="2" height="4" fill="#ff6b9d"/>
             <rect x="7" y="12" width="6" height="4" fill="#fff"/>
             <rect x="19" y="12" width="6" height="4" fill="#fff"/>
             <rect x="9" y="13" width="2" height="2" fill="#1a0a2e"/>
             <rect x="21" y="13" width="2" height="2" fill="#1a0a2e"/>
  <rect x="10" y="20" width="12" height="4" fill="#1a0a2e"/>
             <rect x="12" y="20" width="8" height="2" fill="#fff"/>
  <rect x="10" y="0" width="2" height="6" fill="#50fa7b"/>
          <rect x="20" y="0" width="2" height="6" fill="#50fa7b"/>
          <rect x="8" y="0" width="2" height="2" fill="#ff6b9d"/>
          <rect x="22" y="0" width="2" height="2" fill="#ff6b9d"/>
  <rect x="4" y="4" width="2" height="2" fill="#fff"/>
          <rect x="2" y="6" width="2" height="2" fill="#fff" opacity="0.6"/>
          <rect x="6" y="6" width="2" height="2" fill="#fff" opacity="0.6"/>
  <rect x="26" y="2" width="4" height="2" fill="#ff6b9d"/>
          <rect x="28" y="4" width="2" height="2" fill="#ff6b9d"/>
          <rect x="26" y="6" width="2" height="2" fill="#ff6b9d"/>
          <rect x="26" y="10" width="2" height="2" fill="#ff6b9d"/>
</svg>