<svg xmlns="http://www.w3.org/2000/svg" viewBox="0 0 32 32">
  <rect width="32" height="32" fill="#3f2832"/>
  <rect x="4" y="4" width="24" height="24" fill="#ff9f43"/>
  <rect x="12" y="10" width="8" height="8" fill="#fff"/>
             <rect x="14" y="12" width="4" height="4" fill="#3f2832"/>
             <rect x="15" y="13" width="2" height="2" fill="#feca57"/>
  <rect x="12" y="20" width="8" height="2" fill="#3f2832"/>
  <rect x="8" y="-6" width="4" height="12" fill="#ff9f43"/>
          <rect x="20" y="-6" width="4" height="12" fill="#ff9f43"/>
          <rect x="9" y="-4" width="2" height="8" fill="#feca57"/>
          <rect x="21" y="-4" width="2" height="8" fill="#feca57"/>
  <rect x="4" y="4" width="2" height="2" fill="#fff"/>
          <rect x="2" y="6" width="2" height="2" fill="#fff" opacity="0.6"/>
          <rect x="6" y="6" width="2" height="2" fill="#fff" opacity="0.6"/>
  <rect x="26" y="2" width="4" height="2" fill="#feca57"/>
          <rect x="28" y="4" width="2" height="2" fill="#feca57"/>
          <rect x="26" y="6" width="2" height="2" fill="#feca57"/>
          <rect x="26" y="10" width="2" height="2" fill="#feca57"/>
</svg>