<svg xmlns="http://www.w3.org/2000/svg" viewBox="0 0 32 32">
  <rect width="32" height="32" fill="#1a1a2e"/>
  <rect x="10" y="18" width="12" height="10" fill="#feca57"/>
          <rect x="14" y="10" width="4" height="10" fill="#ff6b6b"/>
          <rect x="10" y="6" width="4" height="6" fill="#ff6b6b"/>
          <rect x="18" y="6" width="4" height="6" fill="#ff6b6b"/>
          <rect x="8" y="4" width="4" height="4" fill="#ff6b6b"/>
          <rect x="20" y="4" width="4" height="4" fill="#ff6b6b"/>
          <rect x="12" y="2" width="8" height="4" fill="#ff6b6b"/>
  <rect x="8" y="12" width="2" height="2" fill="#fff"/>
             <rect x="10" y="10" width="2" height="2" fill="#fff"/>
             <rect x="12" y="12" width="2" height="2" fill="#fff"/>
             <rect x="18" y="12" width="2" height="2" fill="#fff"/>
             <rect x="20" y="10" width="2" height="2" fill="#fff"/>
             <rect x="22" y="12" width="2" height="2" fill="#fff"/>
  <rect x="4" y="4" width="2" height="2" fill="#feca57"/>
          <rect x="2" y="6" width="2" height="2" fill="#feca57" opacity="0.6"/>
</svg>