<svg xmlns="http://www.w3.org/2000/svg" viewBox="0 0 32 32">
  <rect width="32" height="32" fill="#0b090a"/>
  <rect x="2" y="8" width="28" height="18" fill="#b5838d"/>
          <rect x="6" y="6" width="20" height="2" fill="#b5838d"/>
          <rect x="6" y="26" width="20" height="2" fill="#b5838d"/>
  <rect x="8" y="13" width="2" height="2" fill="#e5989b"/>
             <rect x="12" y="13" width="2" height="2" fill="#e5989b"/>
             <rect x="8" y="15" width="6" height="2" fill="#e5989b"/>
             <rect x="10" y="17" width="2" height="2" fill="#e5989b"/>
             <rect x="18" y="13" width="2" height="2" fill="#e5989b"/>
             <rect x="22" y="13" width="2" height="2" fill="#e5989b"/>
             <rect x="18" y="15" width="6" height="2" fill="#e5989b"/>
             <rect x="20" y="17" width="2" height="2" fill="#e5989b"/>
  <rect x="10" y="20" width="2" height="2" fill="#0b090a"/>
             <rect x="12" y="22" width="2" height="2" fill="#0b090a"/>
             <rect x="14" y="20" width="4" height="2" fill="#0b090a"/>
             <rect x="18" y="22" width="2" height="2" fill="#0b090a"/>
             <rect x="20" y="20" width="2" height="2" fill="#0b090a"/>
  <rect x="4" y="0" width="24" height="8" fill="#e5989b"/>
          <rect x="6" y="-2" width="20" height="2" fill="#e5989b"/>
          <rect x="10" y="2" width="4" height="4" fill="#fff"/>
          <rect x="18" y="2" width="4" height="4" fill="#fff"/>
  <rect x="4" y="12" width="2" height="8" fill="#e5989b"/>
          <rect x="26" y="12" width="2" height="8" fill="#e5989b"/>
          <rect x="6" y="14" width="2" height="4" fill="#e5989b"/>
          <rect x="24" y="14" width="2" height="4" fill="#e5989b"/>
  <rect x="26" y="2" width="2" height="6" fill="#e5989b"/>
          <rect x="24" y="6" width="4" height="4" fill="#e5989b"/>
</svg>