<svg xmlns="http://www.w3.org/2000/svg" viewBox="0 0 32 32">
  <rect width="32" height="32" fill="#1a0a2e"/>
  <rect x="2" y="8" width="28" height="18" fill="#ffdbac"/>
          <rect x="6" y="6" width="20" height="2" fill="#ffdbac"/>
          <rect x="6" y="26" width="20" height="2" fill="#ffdbac"/>
  <rect x="7" y="12" width="8" height="6" fill="#1a0a2e"/>
             <rect x="17" y="12" width="8" height="6" fill="#1a0a2e"/>
             <rect x="9" y="14" width="4" height="2" fill="#50fa7b"/>
             <rect x="19" y="14" width="4" height="2" fill="#50fa7b"/>
  <rect x="12" y="20" width="8" height="2" fill="#1a0a2e"/>
             <rect x="14" y="22" width="4" height="4" fill="#ff6b9d"/>
  <rect x="14" y="0" width="4" height="4" fill="#ff6b9d"/>
          <rect x="12" y="2" width="2" height="4" fill="#ff6b9d"/>
          <rect x="18" y="2" width="2" height="4" fill="#ff6b9d"/>
          <rect x="14" y="4" width="4" height="2" fill="#ff6b9d"/>
          <rect x="15" y="2" width="2" height="2" fill="#50fa7b"/>
  
  <rect x="2" y="2" width="4" height="2" fill="#ff6b9d"/>
          <rect x="4" y="4" width="4" height="2" fill="#ff6b9d"/>
</svg>