<svg xmlns="http://www.w3.org/2000/svg" viewBox="0 0 32 32">
  <rect width="32" height="32" fill="#10002b"/>
  <rect x="6" y="2" width="20" height="26" fill="#e0aaff"/>
          <rect x="4" y="6" width="2" height="18" fill="#e0aaff"/>
          <rect x="26" y="6" width="2" height="18" fill="#e0aaff"/>
  <rect x="8" y="8" width="6" height="6" fill="#10002b"/>
             <rect x="18" y="8" width="6" height="6" fill="#10002b"/>
             <rect x="10" y="9" width="2" height="2" fill="#fff"/>
             <rect x="20" y="9" width="2" height="2" fill="#fff"/>
  <rect x="12" y="18" width="8" height="2" fill="#10002b"/>
             <rect x="10" y="16" width="2" height="2" fill="#10002b"/>
             <rect x="20" y="16" width="2" height="2" fill="#10002b"/>
  <rect x="4" y="0" width="6" height="8" fill="#e0aaff"/>
          <rect x="22" y="0" width="6" height="8" fill="#e0aaff"/>
          <rect x="6" y="2" width="2" height="4" fill="#ff9e00"/>
          <rect x="24" y="2" width="2" height="4" fill="#ff9e00"/>
  <rect x="20" y="10" width="6" height="2" fill="#ffea00"/>
          <rect x="22" y="8" width="2" height="6" fill="#ffea00"/>
  <rect x="26" y="2" width="2" height="6" fill="#ff9e00"/>
          <rect x="24" y="6" width="4" height="4" fill="#ff9e00"/>
</svg>