<svg xmlns="http://www.w3.org/2000/svg" viewBox="0 0 32 32">
  <rect width="32" height="32" fill="#2c003e"/>
  <rect x="2" y="8" width="28" height="18" fill="#ff79c6"/>
          <rect x="6" y="6" width="20" height="2" fill="#ff79c6"/>
          <rect x="6" y="26" width="20" height="2" fill="#ff79c6"/>
  <rect x="7" y="12" width="8" height="6" fill="#fff"/>
             <rect x="17" y="12" width="8" height="6" fill="#fff"/>
             <rect x="8" y="13" width="3" height="4" fill="#2c003e"/>
             <rect x="21" y="13" width="3" height="4" fill="#2c003e"/>
  <rect x="10" y="20" width="2" height="2" fill="#2c003e"/>
             <rect x="12" y="22" width="2" height="2" fill="#2c003e"/>
             <rect x="14" y="20" width="4" height="2" fill="#2c003e"/>
             <rect x="18" y="22" width="2" height="2" fill="#2c003e"/>
             <rect x="20" y="20" width="2" height="2" fill="#2c003e"/>
  <rect x="6" y="0" width="4" height="6" fill="#bd93f9"/>
          <rect x="22" y="0" width="4" height="6" fill="#bd93f9"/>
          <rect x="4" y="2" width="2" height="2" fill="#bd93f9"/>
          <rect x="26" y="2" width="2" height="2" fill="#bd93f9"/>
  <rect x="4" y="16" width="4" height="2" fill="#bd93f9" opacity="0.5"/>
          <rect x="24" y="16" width="4" height="2" fill="#bd93f9" opacity="0.5"/>
  <rect x="26" y="6" width="2" height="4" fill="#00d9ff"/>
          <rect x="26" y="10" width="2" height="2" fill="#00d9ff"/>
</svg>