<svg xmlns="http://www.w3.org/2000/svg" viewBox="0 0 32 32">
  <rect width="32" height="32" fill="#0d2b45"/>
  <rect x="4" y="4" width="24" height="24" fill="#ffce96"/>
  <rect x="10" y="10" width="2" height="6" fill="#0d2b45"/>
             <rect x="20" y="10" width="2" height="6" fill="#0d2b45"/>
  <rect x="10" y="20" width="2" height="2" fill="#0d2b45"/>
             <rect x="12" y="22" width="2" height="2" fill="#0d2b45"/>
             <rect x="14" y="20" width="4" height="2" fill="#0d2b45"/>
             <rect x="18" y="22" width="2" height="2" fill="#0d2b45"/>
             <rect x="20" y="20" width="2" height="2" fill="#0d2b45"/>
  <rect x="6" y="2" width="8" height="4" fill="#ff6b6b"/>
          <rect x="18" y="2" width="8" height="4" fill="#ff6b6b"/>
          <rect x="14" y="3" width="4" height="2" fill="#ff6b6b"/>
  <rect x="6" y="16" width="2" height="4" fill="#00d9ff"/>
          <rect x="6" y="20" width="2" height="2" fill="#00d9ff"/>
  <rect x="26" y="6" width="2" height="4" fill="#00d9ff"/>
          <rect x="26" y="10" width="2" height="2" fill="#00d9ff"/>
</svg>