<svg xmlns="http://www.w3.org/2000/svg" viewBox="0 0 32 32">
  <rect width="32" height="32" fill="#0c0c1d"/>
  <rect x="4" y="4" width="24" height="24" fill="#00d9ff"/>
  <rect x="8" y="11" width="2" height="2" fill="#ff00ff"/>
             <rect x="12" y="11" width="2" height="2" fill="#ff00ff"/>
             <rect x="8" y="13" width="6" height="2" fill="#ff00ff"/>
             <rect x="10" y="15" width="2" height="2" fill="#ff00ff"/>
             <rect x="18" y="11" width="2" height="2" fill="#ff00ff"/>
             <rect x="22" y="11" width="2" height="2" fill="#ff00ff"/>
             <rect x="18" y="13" width="6" height="2" fill="#ff00ff"/>
             <rect x="20" y="15" width="2" height="2" fill="#ff00ff"/>
  <rect x="12" y="20" width="8" height="2" fill="#0c0c1d"/>
  <rect x="14" y="0" width="4" height="4" fill="#ff00ff"/>
          <rect x="12" y="2" width="2" height="4" fill="#ff00ff"/>
          <rect x="18" y="2" width="2" height="4" fill="#ff00ff"/>
          <rect x="14" y="4" width="4" height="2" fill="#ff00ff"/>
          <rect x="15" y="2" width="2" height="2" fill="#00ff87"/>
  
  <rect x="26" y="2" width="4" height="2" fill="#ff00ff"/>
          <rect x="28" y="4" width="2" height="2" fill="#ff00ff"/>
          <rect x="26" y="6" width="2" height="2" fill="#ff00ff"/>
          <rect x="26" y="10" width="2" height="2" fill="#ff00ff"/>
</svg>