<svg xmlns="http://www.w3.org/2000/svg" viewBox="0 0 32 32">
  <rect width="32" height="32" fill="#0b090a"/>
  <rect x="4" y="4" width="24" height="16" fill="#b5838d"/>
          <rect x="6" y="20" width="20" height="4" fill="#b5838d"/>
          <rect x="8" y="24" width="16" height="4" fill="#b5838d"/>
  <rect x="7" y="10" width="8" height="6" fill="#fff"/>
             <rect x="17" y="10" width="8" height="6" fill="#fff"/>
             <rect x="8" y="11" width="3" height="4" fill="#0b090a"/>
             <rect x="21" y="11" width="3" height="4" fill="#0b090a"/>
  <rect x="13" y="19" width="6" height="4" fill="#0b090a"/>
             <rect x="14" y="20" width="4" height="2" fill="#e5989b"/>
  <rect x="14" y="0" width="4" height="4" fill="#e5989b"/>
          <rect x="12" y="2" width="2" height="4" fill="#e5989b"/>
          <rect x="18" y="2" width="2" height="4" fill="#e5989b"/>
          <rect x="14" y="4" width="4" height="2" fill="#e5989b"/>
          <rect x="15" y="2" width="2" height="2" fill="#ffb4a2"/>
  <rect x="4" y="16" width="4" height="2" fill="#e5989b" opacity="0.5"/>
          <rect x="24" y="16" width="4" height="2" fill="#e5989b" opacity="0.5"/>
  <rect x="26" y="2" width="4" height="2" fill="#e5989b"/>
          <rect x="28" y="4" width="2" height="2" fill="#e5989b"/>
          <rect x="26" y="6" width="2" height="2" fill="#e5989b"/>
          <rect x="26" y="10" width="2" height="2" fill="#e5989b"/>
</svg>