<svg xmlns="http://www.w3.org/2000/svg" viewBox="0 0 32 32">
  <rect width="32" height="32" fill="#0b090a"/>
  <rect x="8" y="4" width="16" height="4" fill="#b5838d"/>
          <rect x="6" y="8" width="20" height="4" fill="#b5838d"/>
          <rect x="4" y="12" width="24" height="16" fill="#b5838d"/>
  <rect x="10" y="12" width="2" height="2" fill="#0b090a"/>
             <rect x="20" y="12" width="2" height="2" fill="#0b090a"/>
  <rect x="8" y="20" width="16" height="2" fill="#ffb4a2"/>
             <rect x="10" y="22" width="4" height="4" fill="#ffb4a2"/>
             <rect x="18" y="22" width="4" height="4" fill="#ffb4a2"/>
             <rect x="14" y="22" width="4" height="2" fill="#ffb4a2"/>
  <rect x="8" y="-6" width="4" height="12" fill="#b5838d"/>
          <rect x="20" y="-6" width="4" height="12" fill="#b5838d"/>
          <rect x="9" y="-4" width="2" height="8" fill="#e5989b"/>
          <rect x="21" y="-4" width="2" height="8" fill="#e5989b"/>
  <rect x="4" y="4" width="2" height="2" fill="#fff"/>
          <rect x="2" y="6" width="2" height="2" fill="#fff" opacity="0.6"/>
          <rect x="6" y="6" width="2" height="2" fill="#fff" opacity="0.6"/>
  <rect x="2" y="2" width="4" height="2" fill="#e5989b"/>
          <rect x="4" y="4" width="4" height="2" fill="#e5989b"/>
</svg>