<svg xmlns="http://www.w3.org/2000/svg" viewBox="0 0 32 32">
  <rect width="32" height="32" fill="#3f2832"/>
  <rect x="6" y="2" width="20" height="26" fill="#ff9f43"/>
          <rect x="4" y="6" width="2" height="18" fill="#ff9f43"/>
          <rect x="26" y="6" width="2" height="18" fill="#ff9f43"/>
  <rect x="7" y="8" width="8" height="6" fill="#3f2832"/>
             <rect x="17" y="8" width="8" height="6" fill="#3f2832"/>
             <rect x="9" y="10" width="4" height="2" fill="#ff6b6b"/>
             <rect x="19" y="10" width="4" height="2" fill="#ff6b6b"/>
  <rect x="12" y="18" width="8" height="2" fill="#3f2832"/>
             <rect x="14" y="20" width="4" height="4" fill="#feca57"/>
  <rect x="6" y="2" width="8" height="4" fill="#feca57"/>
          <rect x="18" y="2" width="8" height="4" fill="#feca57"/>
          <rect x="14" y="3" width="4" height="2" fill="#feca57"/>
  <rect x="6" y="16" width="2" height="4" fill="#00d9ff"/>
          <rect x="6" y="20" width="2" height="2" fill="#00d9ff"/>
  <rect x="26" y="6" width="2" height="4" fill="#00d9ff"/>
          <rect x="26" y="10" width="2" height="2" fill="#00d9ff"/>
</svg>