<svg xmlns="http://www.w3.org/2000/svg" viewBox="0 0 32 32">
  <rect width="32" height="32" fill="#2d1b4e"/>
  <rect x="4" y="4" width="24" height="24" fill="#ff6348"/>
  <rect x="8" y="10" width="2" height="2" fill="#2d1b4e"/>
             <rect x="10" y="12" width="2" height="2" fill="#2d1b4e"/>
             <rect x="12" y="10" width="2" height="2" fill="#2d1b4e"/>
             <rect x="8" y="14" width="2" height="2" fill="#2d1b4e"/>
             <rect x="12" y="14" width="2" height="2" fill="#2d1b4e"/>
             <rect x="18" y="10" width="2" height="2" fill="#2d1b4e"/>
             <rect x="20" y="12" width="2" height="2" fill="#2d1b4e"/>
             <rect x="22" y="10" width="2" height="2" fill="#2d1b4e"/>
             <rect x="18" y="14" width="2" height="2" fill="#2d1b4e"/>
             <rect x="22" y="14" width="2" height="2" fill="#2d1b4e"/>
  
  <rect x="6" y="0" width="4" height="6" fill="#ffc048"/>
          <rect x="22" y="0" width="4" height="6" fill="#ffc048"/>
          <rect x="4" y="2" width="2" height="2" fill="#ffc048"/>
          <rect x="26" y="2" width="2" height="2" fill="#ffc048"/>
  <rect x="4" y="16" width="4" height="2" fill="#ffc048" opacity="0.5"/>
          <rect x="24" y="16" width="4" height="2" fill="#ffc048" opacity="0.5"/>
  <rect x="26" y="2" width="2" height="6" fill="#ffc048"/>
          <rect x="24" y="6" width="4" height="4" fill="#ffc048"/>
</svg>