<svg xmlns="http://www.w3.org/2000/svg" viewBox="0 0 32 32">
  <rect width="32" height="32" fill="#1e1e2e"/>
  <rect x="6" y="2" width="20" height="26" fill="#fab387"/>
          <rect x="4" y="6" width="2" height="18" fill="#fab387"/>
          <rect x="26" y="6" width="2" height="18" fill="#fab387"/>
  <rect x="7" y="8" width="8" height="6" fill="#fff"/>
             <rect x="17" y="8" width="8" height="6" fill="#fff"/>
             <rect x="8" y="9" width="3" height="4" fill="#1e1e2e"/>
             <rect x="21" y="9" width="3" height="4" fill="#1e1e2e"/>
  <rect x="12" y="18" width="8" height="2" fill="#1e1e2e"/>
             <rect x="10" y="16" width="2" height="2" fill="#1e1e2e"/>
             <rect x="20" y="16" width="2" height="2" fill="#1e1e2e"/>
  <rect x="6" y="0" width="4" height="6" fill="#f38ba8"/>
          <rect x="22" y="0" width="4" height="6" fill="#f38ba8"/>
          <rect x="4" y="2" width="2" height="2" fill="#f38ba8"/>
          <rect x="26" y="2" width="2" height="2" fill="#f38ba8"/>
  <rect x="4" y="16" width="4" height="2" fill="#f38ba8" opacity="0.5"/>
          <rect x="24" y="16" width="4" height="2" fill="#f38ba8" opacity="0.5"/>
  <rect x="26" y="2" width="4" height="2" fill="#f38ba8"/>
          <rect x="28" y="4" width="2" height="2" fill="#f38ba8"/>
          <rect x="26" y="6" width="2" height="2" fill="#f38ba8"/>
          <rect x="26" y="10" width="2" height="2" fill="#f38ba8"/>
</svg>