<svg xmlns="http://www.w3.org/2000/svg" viewBox="0 0 32 32">
  <rect width="32" height="32" fill="#1a0a2e"/>
  <rect x="4" y="4" width="24" height="24" fill="#ffdbac"/>
  <rect x="8" y="10" width="6" height="6" fill="#1a0a2e"/>
             <rect x="18" y="10" width="6" height="6" fill="#1a0a2e"/>
             <rect x="10" y="11" width="2" height="2" fill="#fff"/>
             <rect x="20" y="11" width="2" height="2" fill="#fff"/>
  <rect x="13" y="19" width="6" height="4" fill="#1a0a2e"/>
             <rect x="14" y="20" width="4" height="2" fill="#ff6b9d"/>
  <rect x="8" y="2" width="16" height="4" fill="#ff6b9d"/>
          <rect x="10" y="0" width="2" height="2" fill="#ff6b9d"/>
          <rect x="15" y="0" width="2" height="2" fill="#ff6b9d"/>
          <rect x="20" y="0" width="2" height="2" fill="#ff6b9d"/>
          <rect x="14" y="3" width="4" height="2" fill="#50fa7b"/>
  <rect x="6" y="14" width="2" height="2" fill="#50fa7b" opacity="0.6"/>
          <rect x="8" y="16" width="2" height="2" fill="#50fa7b" opacity="0.6"/>
          <rect x="24" y="14" width="2" height="2" fill="#50fa7b" opacity="0.6"/>
          <rect x="22" y="16" width="2" height="2" fill="#50fa7b" opacity="0.6"/>
  <rect x="26" y="6" width="2" height="4" fill="#00d9ff"/>
          <rect x="26" y="10" width="2" height="2" fill="#00d9ff"/>
</svg>