<svg xmlns="http://www.w3.org/2000/svg" viewBox="0 0 32 32">
  <rect width="32" height="32" fill="#0c0c1d"/>
  <rect x="6" y="2" width="20" height="26" fill="#00d9ff"/>
          <rect x="4" y="6" width="2" height="18" fill="#00d9ff"/>
          <rect x="26" y="6" width="2" height="18" fill="#00d9ff"/>
  <rect x="7" y="8" width="8" height="6" fill="#0c0c1d"/>
             <rect x="17" y="8" width="8" height="6" fill="#0c0c1d"/>
             <rect x="9" y="10" width="4" height="2" fill="#00ff87"/>
             <rect x="19" y="10" width="4" height="2" fill="#00ff87"/>
  <rect x="10" y="18" width="12" height="4" fill="#0c0c1d"/>
             <rect x="12" y="19" width="2" height="2" fill="#00ff87"/>
             <rect x="16" y="19" width="2" height="2" fill="#00ff87"/>
             <rect x="20" y="19" width="2" height="2" fill="#00ff87"/>
  <rect x="8" y="-6" width="4" height="12" fill="#00d9ff"/>
          <rect x="20" y="-6" width="4" height="12" fill="#00d9ff"/>
          <rect x="9" y="-4" width="2" height="8" fill="#ff00ff"/>
          <rect x="21" y="-4" width="2" height="8" fill="#ff00ff"/>
  <rect x="6" y="16" width="2" height="4" fill="#00d9ff"/>
          <rect x="6" y="20" width="2" height="2" fill="#00d9ff"/>
  
</svg>