<svg xmlns="http://www.w3.org/2000/svg" viewBox="0 0 32 32">
  <rect width="32" height="32" fill="#2d1b4e"/>
  <rect x="2" y="8" width="28" height="18" fill="#ff6348"/>
          <rect x="6" y="6" width="20" height="2" fill="#ff6348"/>
          <rect x="6" y="26" width="20" height="2" fill="#ff6348"/>
  <rect x="7" y="12" width="8" height="6" fill="#2d1b4e"/>
             <rect x="17" y="12" width="8" height="6" fill="#2d1b4e"/>
             <rect x="9" y="14" width="4" height="2" fill="#3ae374"/>
             <rect x="19" y="14" width="4" height="2" fill="#3ae374"/>
  <rect x="10" y="20" width="12" height="4" fill="#2d1b4e"/>
             <rect x="12" y="20" width="8" height="2" fill="#fff"/>
  <rect x="14" y="0" width="4" height="4" fill="#ffc048"/>
          <rect x="12" y="4" width="8" height="2" fill="#ffc048"/>
          <rect x="10" y="6" width="12" height="2" fill="#ffc048"/>
  <rect x="4" y="4" width="2" height="2" fill="#fff"/>
          <rect x="2" y="6" width="2" height="2" fill="#fff" opacity="0.6"/>
          <rect x="6" y="6" width="2" height="2" fill="#fff" opacity="0.6"/>
  
</svg>