<svg xmlns="http://www.w3.org/2000/svg" viewBox="0 0 32 32">
  <rect width="32" height="32" fill="#1b263b"/>
  <rect x="8" y="4" width="16" height="4" fill="#e0aaff"/>
          <rect x="6" y="8" width="20" height="4" fill="#e0aaff"/>
          <rect x="4" y="12" width="24" height="16" fill="#e0aaff"/>
  <rect x="7" y="10" width="8" height="6" fill="#1b263b"/>
             <rect x="17" y="10" width="8" height="6" fill="#1b263b"/>
             <rect x="9" y="12" width="4" height="2" fill="#9d4edd"/>
             <rect x="19" y="12" width="4" height="2" fill="#9d4edd"/>
  <rect x="13" y="19" width="6" height="4" fill="#1b263b"/>
             <rect x="14" y="20" width="4" height="2" fill="#c77dff"/>
  <rect x="4" y="0" width="24" height="8" fill="#c77dff"/>
          <rect x="6" y="-2" width="20" height="2" fill="#c77dff"/>
          <rect x="10" y="2" width="4" height="4" fill="#fff"/>
          <rect x="18" y="2" width="4" height="4" fill="#fff"/>
  <rect x="6" y="14" width="2" height="2" fill="#9d4edd" opacity="0.6"/>
          <rect x="8" y="16" width="2" height="2" fill="#9d4edd" opacity="0.6"/>
          <rect x="24" y="14" width="2" height="2" fill="#9d4edd" opacity="0.6"/>
          <rect x="22" y="16" width="2" height="2" fill="#9d4edd" opacity="0.6"/>
  <rect x="26" y="6" width="2" height="4" fill="#00d9ff"/>
          <rect x="26" y="10" width="2" height="2" fill="#00d9ff"/>
</svg>