<svg xmlns="http://www.w3.org/2000/svg" viewBox="0 0 32 32">
  <rect width="32" height="32" fill="#0d2b45"/>
  <rect x="2" y="8" width="28" height="18" fill="#ffce96"/>
          <rect x="6" y="6" width="20" height="2" fill="#ffce96"/>
          <rect x="6" y="26" width="20" height="2" fill="#ffce96"/>
  <rect x="8" y="13" width="2" height="2" fill="#ff6b6b"/>
             <rect x="12" y="13" width="2" height="2" fill="#ff6b6b"/>
             <rect x="8" y="15" width="6" height="2" fill="#ff6b6b"/>
             <rect x="10" y="17" width="2" height="2" fill="#ff6b6b"/>
             <rect x="18" y="13" width="2" height="2" fill="#ff6b6b"/>
             <rect x="22" y="13" width="2" height="2" fill="#ff6b6b"/>
             <rect x="18" y="15" width="6" height="2" fill="#ff6b6b"/>
             <rect x="20" y="17" width="2" height="2" fill="#ff6b6b"/>
  <rect x="10" y="20" width="12" height="2" fill="#0d2b45"/>
             <rect x="12" y="22" width="2" height="2" fill="#fff"/>
             <rect x="18" y="22" width="2" height="2" fill="#fff"/>
  <rect x="12" y="0" width="8" height="6" fill="#7ec8e3"/>
          <rect x="10" y="2" width="2" height="4" fill="#7ec8e3"/>
          <rect x="20" y="2" width="2" height="4" fill="#7ec8e3"/>
  <rect x="6" y="16" width="2" height="4" fill="#00d9ff"/>
          <rect x="6" y="20" width="2" height="2" fill="#00d9ff"/>
  <rect x="26" y="6" width="2" height="4" fill="#00d9ff"/>
          <rect x="26" y="10" width="2" height="2" fill="#00d9ff"/>
</svg>