<svg xmlns="http://www.w3.org/2000/svg" viewBox="0 0 32 32">
  <rect width="32" height="32" fill="#2d1b4e"/>
  <rect x="6" y="6" width="20" height="6" fill="#ffb86c"/>
          <rect x="4" y="12" width="24" height="4" fill="#bd93f9"/>
          <rect x="4" y="16" width="24" height="4" fill="#4ade80"/>
          <rect x="4" y="20" width="24" height="4" fill="#ffb86c"/>
          <rect x="6" y="24" width="20" height="4" fill="#ffb86c"/>
          <rect x="10" y="8" width="2" height="2" fill="#fff"/>
          <rect x="16" y="8" width="2" height="2" fill="#fff"/>
  <rect x="10" y="12" width="2" height="2" fill="#ffb86c"/>
             <rect x="8" y="14" width="6" height="2" fill="#ffb86c"/>
             <rect x="10" y="16" width="2" height="2" fill="#ffb86c"/>
             <rect x="20" y="12" width="2" height="2" fill="#ffb86c"/>
             <rect x="18" y="14" width="6" height="2" fill="#ffb86c"/>
             <rect x="20" y="16" width="2" height="2" fill="#ffb86c"/>
  <rect x="4" y="4" width="2" height="2" fill="#ffb86c"/>
          <rect x="8" y="4" width="2" height="2" fill="#ffb86c"/>
          <rect x="4" y="6" width="6" height="2" fill="#ffb86c"/>
          <rect x="6" y="8" width="2" height="2" fill="#ffb86c"/>
</svg>