<svg xmlns="http://www.w3.org/2000/svg" viewBox="0 0 32 32">
  <rect width="32" height="32" fill="#1b263b"/>
  <rect x="6" y="2" width="20" height="26" fill="#e0aaff"/>
          <rect x="4" y="6" width="2" height="18" fill="#e0aaff"/>
          <rect x="26" y="6" width="2" height="18" fill="#e0aaff"/>
  <rect x="5" y="8" width="10" height="8" fill="#c77dff"/>
             <rect x="17" y="8" width="10" height="8" fill="#c77dff"/>
             <rect x="15" y="10" width="2" height="4" fill="#c77dff"/>
             <rect x="7" y="10" width="6" height="4" fill="#fff"/>
             <rect x="19" y="10" width="6" height="4" fill="#fff"/>
             <rect x="9" y="11" width="2" height="2" fill="#1b263b"/>
             <rect x="21" y="11" width="2" height="2" fill="#1b263b"/>
  <rect x="10" y="18" width="2" height="2" fill="#1b263b"/>
             <rect x="12" y="20" width="2" height="2" fill="#1b263b"/>
             <rect x="14" y="18" width="4" height="2" fill="#1b263b"/>
             <rect x="18" y="20" width="2" height="2" fill="#1b263b"/>
             <rect x="20" y="18" width="2" height="2" fill="#1b263b"/>
  
  <rect x="6" y="14" width="2" height="2" fill="#9d4edd" opacity="0.6"/>
          <rect x="8" y="16" width="2" height="2" fill="#9d4edd" opacity="0.6"/>
          <rect x="24" y="14" width="2" height="2" fill="#9d4edd" opacity="0.6"/>
          <rect x="22" y="16" width="2" height="2" fill="#9d4edd" opacity="0.6"/>
  <rect x="26" y="6" width="2" height="4" fill="#00d9ff"/>
          <rect x="26" y="10" width="2" height="2" fill="#00d9ff"/>
</svg>