<svg xmlns="http://www.w3.org/2000/svg" viewBox="0 0 32 32">
  <rect width="32" height="32" fill="#1a0a2e"/>
  <rect x="2" y="8" width="28" height="18" fill="#ffdbac"/>
          <rect x="6" y="6" width="20" height="2" fill="#ffdbac"/>
          <rect x="6" y="26" width="20" height="2" fill="#ffdbac"/>
  <rect x="12" y="12" width="8" height="8" fill="#fff"/>
             <rect x="14" y="14" width="4" height="4" fill="#1a0a2e"/>
             <rect x="15" y="15" width="2" height="2" fill="#ff6b9d"/>
  <rect x="10" y="20" width="12" height="4" fill="#1a0a2e"/>
             <rect x="12" y="20" width="8" height="2" fill="#fff"/>
  <rect x="8" y="-6" width="4" height="12" fill="#ffdbac"/>
          <rect x="20" y="-6" width="4" height="12" fill="#ffdbac"/>
          <rect x="9" y="-4" width="2" height="8" fill="#ff6b9d"/>
          <rect x="21" y="-4" width="2" height="8" fill="#ff6b9d"/>
  <rect x="4" y="12" width="2" height="8" fill="#ff6b9d"/>
          <rect x="26" y="12" width="2" height="8" fill="#ff6b9d"/>
          <rect x="6" y="14" width="2" height="4" fill="#ff6b9d"/>
          <rect x="24" y="14" width="2" height="4" fill="#ff6b9d"/>
  <rect x="26" y="2" width="4" height="2" fill="#ff6b9d"/>
          <rect x="28" y="4" width="2" height="2" fill="#ff6b9d"/>
          <rect x="26" y="6" width="2" height="2" fill="#ff6b9d"/>
          <rect x="26" y="10" width="2" height="2" fill="#ff6b9d"/>
</svg>