<svg xmlns="http://www.w3.org/2000/svg" viewBox="0 0 32 32">
  <rect width="32" height="32" fill="#1a1c2c"/>
  <rect x="8" y="4" width="16" height="4" fill="#f4f4f4"/>
          <rect x="6" y="8" width="20" height="4" fill="#f4f4f4"/>
          <rect x="4" y="12" width="24" height="16" fill="#f4f4f4"/>
  <rect x="7" y="10" width="8" height="6" fill="#fff"/>
             <rect x="17" y="10" width="8" height="6" fill="#fff"/>
             <rect x="8" y="11" width="3" height="4" fill="#1a1c2c"/>
             <rect x="21" y="11" width="3" height="4" fill="#1a1c2c"/>
  <rect x="12" y="20" width="8" height="2" fill="#1a1c2c"/>
  <rect x="14" y="-4" width="4" height="10" fill="#94b0c2"/>
          <rect x="12" y="0" width="2" height="6" fill="#94b0c2"/>
          <rect x="18" y="0" width="2" height="6" fill="#94b0c2"/>
  <rect x="24" y="8" width="4" height="4" fill="#1a1c2c"/>
          <rect x="25" y="9" width="2" height="2" fill="#566c86"/>
          <rect x="26" y="12" width="2" height="4" fill="#566c86"/>
  <rect x="26" y="6" width="2" height="4" fill="#00d9ff"/>
          <rect x="26" y="10" width="2" height="2" fill="#00d9ff"/>
</svg>